<svg width="265" height="311" viewBox="0 0 265 311" fill="none" xmlns="http://www.w3.org/2000/svg">
<g filter="url(#filter0_d_218_38)">
<path fill-rule="evenodd" clip-rule="evenodd" d="M120.605 132.213L120.113 128.448C115.759 131.942 112.468 132.213 106.469 132.213C97.3472 132.213 89.9487 123.39 89.9487 112.46V59.8097C89.9487 48.7852 97.3472 39.9618 106.469 39.9618H109.43C112.636 39.9618 115.597 40.8827 118.227 42.4405V22.8701C118.227 21.4006 117.158 20.2023 115.843 20.2023C114.612 20.2023 113.543 21.3943 113.543 22.8701V33.8063H106.475C97.3537 33.8063 89.9552 29.0257 89.9552 18.0958C89.9552 7.16595 97.3407 0.449097 106.469 0.449097H125.289C134.411 0.449097 141.809 9.27246 141.809 20.2023V132.213H120.605ZM118.221 109.792V62.3766C118.221 60.9071 117.152 59.8034 115.837 59.8034C114.606 59.8034 113.537 60.9071 113.537 62.3766V109.792C113.537 111.261 114.606 112.46 115.837 112.46C117.152 112.46 118.221 111.268 118.221 109.792ZM241.481 128.448L241.973 132.213H263.177V20.2023C263.177 9.27246 255.779 0.449097 246.657 0.449097H227.837C218.715 0.449097 211.323 7.16595 211.323 18.0958C211.323 29.0257 218.722 33.8063 227.844 33.8063H234.912V22.8701C234.912 21.3943 235.981 20.2023 237.212 20.2023C238.527 20.2023 239.596 21.4006 239.596 22.8701V42.4405C236.965 40.8827 234.005 39.9618 230.798 39.9618H227.837C218.715 39.9618 211.317 48.7852 211.317 59.8097V112.46C211.317 123.39 218.715 132.213 227.837 132.213C233.836 132.213 237.127 131.942 241.481 128.448ZM239.589 62.3766V109.792C239.589 111.268 238.52 112.46 237.205 112.46C235.974 112.46 234.905 111.261 234.905 109.792V62.3766C234.905 60.9071 235.974 59.8034 237.205 59.8034C238.52 59.8034 239.589 60.9071 239.589 62.3766ZM150.374 112.491C150.374 123.408 157.973 132.213 167.348 132.213V132.207H186.68C196.054 132.207 203.653 123.402 203.653 112.485V76.3401C203.653 65.4228 196.054 56.6184 186.68 56.6184H176.968C175.699 56.6184 174.604 55.4264 174.604 53.9569V23.0404C174.604 21.5709 175.699 20.3789 176.968 20.3789C178.322 20.3789 179.417 21.5709 179.417 23.0404V51.2954H186.68C196.054 51.2954 203.653 42.4909 203.653 31.5737V20.3789C203.653 9.46166 196.054 0.657227 186.68 0.657227H167.348C157.973 0.657227 150.374 9.46166 150.374 20.3789V56.6247C150.374 67.5419 157.973 76.3464 167.348 76.3464H176.975C178.329 76.3464 179.424 77.5384 179.424 78.9133V109.83C179.424 111.299 178.322 112.491 176.975 112.491C175.705 112.491 174.61 111.299 174.61 109.83V81.5748H167.348C157.973 81.5748 150.374 90.3792 150.374 101.296V112.491ZM215.904 249.073C215.904 259.303 223.853 267.559 233.655 267.559H264.033V249.073H243.723C242.394 249.073 241.248 247.957 241.248 246.582V215.205H258.908V196.72H241.248V162.763H264.033V144.278H215.904V249.073ZM189.86 302.626C176.301 302.626 165.307 292.036 165.307 278.912V144.461H200.368V275.714C200.368 277.48 201.956 278.912 203.789 278.912H235.307V302.626H189.86ZM121.493 212.121C121.493 218.674 126.941 223.959 133.666 223.959V223.972H154.501V212.134H140.572C139.665 212.134 138.875 211.421 138.875 210.538V190.445H150.989V178.606H138.875V156.86H154.501V145.022H121.493V212.121ZM104.137 247.043C96.0384 247.043 89.4692 240.225 89.4692 231.774V145.186H110.408V229.711C110.408 230.847 111.354 231.774 112.449 231.774H131.275V247.043H104.137ZM8.96729 147.551C8.96729 161.811 18.8988 173.321 31.1432 173.321L31.1367 173.315H56.4029C68.6473 173.315 78.5789 161.811 78.5789 147.545V100.313C78.5789 86.0527 68.6473 74.5426 56.4029 74.5426H43.718C42.0595 74.5426 40.6278 72.9848 40.6278 71.0675V30.6717C40.6278 28.7544 42.066 27.1966 43.718 27.1966C45.4866 27.1966 46.9184 28.7544 46.9184 30.6717V67.5924H56.4094C68.6538 67.5924 78.5854 56.0886 78.5854 41.8224V27.1966C78.5854 12.9367 68.6538 1.42664 56.4094 1.42664H31.1432C18.8988 1.42664 8.96729 12.9304 8.96729 27.1966V74.5489C8.96729 88.8088 18.8988 100.319 31.1497 100.325H43.7245C45.4931 100.325 46.9249 101.883 46.9249 103.68V144.076C46.9249 145.993 45.4866 147.551 43.7245 147.551C42.066 147.551 40.6342 145.993 40.6342 144.076V107.156H31.1432C18.8988 107.156 8.96729 118.659 8.96729 132.926V147.551Z" fill="#FFF8BD"/>
</g>
<defs>
<filter id="filter0_d_218_38" x="0.967285" y="0.449097" width="263.065" height="310.177" filterUnits="userSpaceOnUse" color-interpolation-filters="sRGB">
<feFlood flood-opacity="0" result="BackgroundImageFix"/>
<feColorMatrix in="SourceAlpha" type="matrix" values="0 0 0 0 0 0 0 0 0 0 0 0 0 0 0 0 0 0 127 0" result="hardAlpha"/>
<feOffset dx="-8" dy="8"/>
<feComposite in2="hardAlpha" operator="out"/>
<feColorMatrix type="matrix" values="0 0 0 0 0.772549 0 0 0 0 0.360784 0 0 0 0 0.172549 0 0 0 1 0"/>
<feBlend mode="normal" in2="BackgroundImageFix" result="effect1_dropShadow_218_38"/>
<feBlend mode="normal" in="SourceGraphic" in2="effect1_dropShadow_218_38" result="shape"/>
</filter>
</defs>
</svg>
