<svg width="51" height="640" viewBox="0 0 51 640" fill="none" xmlns="http://www.w3.org/2000/svg">
<g opacity="0.6">
<path d="M35.2186 557.776L35.2186 539.983L19.6063 539.983C18.0562 532.672 12.355 526.846 5.24468 524.985L5.24468 511.678L0.547501 511.678L0.547501 524.356L0.478371 524.356L0.47837 529.055C8.04118 529.104 14.5247 535.017 15.2555 542.561L15.461 544.681L30.5155 544.681L30.5155 559.632L30.5331 561.84L32.5881 562.086C40.0977 562.985 45.7696 569.357 45.7755 576.908C45.7696 584.507 39.8335 591.031 32.2711 591.771L30.1515 591.977L30.1515 607.034L15.2027 607.034L12.995 607.045L12.7484 609.107C11.9541 615.758 6.87239 620.959 0.478366 622.074L0.478366 626.825C0.497501 626.823 0.516631 626.82 0.535754 626.818L0.535754 639.467L5.23293 639.467L5.23293 625.573C11.0927 623.212 15.5961 618.091 17.0522 611.732L34.8428 611.732L34.8428 596.117C43.7498 594.226 50.4609 586.175 50.4668 576.908C50.455 567.683 44.0316 559.796 35.2068 557.776L35.2186 557.776Z" fill="#C55C2C"/>
<path d="M0.478393 17.8982L0.478393 13.2L0.54721 13.2L0.547211 0.521482L5.24439 0.521482L5.24439 13.8283C12.3547 15.6899 18.0559 21.5153 19.606 28.8264L35.2183 28.8264L35.2183 46.6198L35.2065 46.6198C44.0313 48.6399 50.4547 56.5265 50.4665 65.752C50.4606 75.0186 43.7495 83.0697 34.8425 84.9606L34.8425 100.575L17.0519 100.575C15.5958 106.935 11.0924 112.056 5.23264 114.417L5.23264 128.311L5.24439 128.311L5.24439 141.617C12.3547 143.479 18.0559 149.304 19.606 156.615L35.2183 156.615L35.2183 174.409L35.2065 174.409C44.0313 176.429 50.4547 184.316 50.4665 193.541C50.4606 202.808 43.7495 210.859 34.8425 212.75L34.8425 228.364L17.0519 228.364C15.5958 234.724 11.0924 239.845 5.23264 242.206L5.23264 256.1L5.24458 256.1L5.24458 269.406C12.3549 271.268 18.0561 277.093 19.6062 284.405L35.2185 284.405L35.2185 302.198L35.2067 302.198C44.0315 304.218 50.4549 312.105 50.4667 321.33C50.4608 330.597 43.7497 338.648 34.8427 340.539L34.8427 356.153L17.0521 356.153C15.596 362.513 11.0926 367.634 5.23283 369.995L5.23283 383.889L5.24457 383.889L5.24457 397.195C12.3549 399.057 18.0561 404.882 19.6062 412.194L35.2185 412.194L35.2184 429.987L35.2067 429.987C44.0315 432.007 50.4549 439.894 50.4667 449.119C50.4608 458.386 43.7497 466.437 34.8427 468.328L34.8427 483.942L17.0521 483.942C15.596 490.302 11.0926 495.423 5.23282 497.784L5.23282 511.678L0.535645 511.678L0.535646 499.029C0.516561 499.031 0.497468 499.034 0.478372 499.036L0.478372 494.285C6.87234 493.169 11.954 487.969 12.7483 481.318L12.9949 479.256L15.2026 479.245L30.1514 479.245L30.1514 464.188L32.271 463.982C39.8334 463.242 45.7695 456.718 45.7754 449.119C45.7695 441.567 40.0976 435.196 32.588 434.297L30.533 434.051L30.5154 431.843L30.5154 416.892L15.4609 416.892L15.2554 414.772C14.5246 407.228 8.04113 401.315 0.478376 401.265L0.478376 396.567L0.547396 396.567L0.547396 383.889L0.535647 383.889L0.535647 371.24C0.516562 371.242 0.497474 371.245 0.478377 371.247L0.478378 366.496C6.87234 365.38 11.954 360.18 12.7483 353.528L12.9949 351.467L15.2026 351.456L30.1514 351.456L30.1514 336.399L32.271 336.193C39.8334 335.453 45.7695 328.929 45.7754 321.33C45.7695 313.778 40.0976 307.407 32.588 306.508L30.533 306.262L30.5154 304.054L30.5154 289.102L15.4609 289.102L15.2554 286.983C14.5246 279.439 8.04114 273.526 0.478382 273.476L0.478382 268.778L0.547397 268.778L0.547398 256.1L0.535458 256.1L0.535458 243.451C0.516438 243.453 0.497414 243.456 0.478383 243.458L0.478383 238.707C6.87226 237.591 11.9538 232.391 12.7481 225.739L12.9947 223.678L15.2024 223.666L30.1512 223.666L30.1512 208.61L32.2708 208.404C39.8332 207.664 45.7693 201.14 45.7752 193.541C45.7693 185.989 40.0975 179.618 32.5878 178.719L30.5328 178.473L30.5152 176.264L30.5152 161.313L15.4608 161.313L15.2552 159.193C14.5244 151.65 8.04106 145.737 0.478387 145.687L0.478387 140.989L0.547205 140.989L0.547209 128.311L0.53546 128.311L0.53546 115.661C0.516444 115.664 0.49742 115.667 0.478389 115.669L0.478389 110.918C6.87226 109.802 11.9538 104.602 12.7481 97.9503L12.9947 95.8891L15.2024 95.8774L30.1512 95.8774L30.1512 80.8206L32.2708 80.615C39.8332 79.8751 45.7693 73.3509 45.7752 65.752C45.7693 58.2001 40.0975 51.8286 32.5878 50.9301L30.5328 50.6834L30.5152 48.4754L30.5152 33.5243L15.4608 33.5243L15.2553 31.4044C14.5244 23.8608 8.04106 17.9477 0.478393 17.8982Z" fill="#C55C2C"/>
<path d="M0.478391 69.2281L0.478391 59.8095C0.4974 59.8093 0.516423 59.8091 0.535463 59.8091C3.13065 59.8091 5.24439 61.9232 5.24439 64.5188C5.24439 67.1144 3.13065 69.2285 0.535462 69.2285C0.516431 69.2285 0.497403 69.2283 0.478391 69.2281Z" fill="#C55C2C"/>
<path fill-rule="evenodd" clip-rule="evenodd" d="M0.478391 70.1444L0.529595 70.0858L2.29691 72.1C2.39085 72.2057 3.53579 73.527 4.86274 75.6939C4.20514 72.9692 4.00551 70.9667 3.99376 70.814L3.74129 68.1479L6.41868 68.2478L6.45978 68.2502C6.84729 68.2719 9.42997 68.4165 12.754 69.34C10.1529 67.7897 8.43847 66.3862 8.31517 66.2805L6.25428 64.5716L8.21535 62.7512C8.33865 62.6338 10.194 60.9425 13.165 59.216C9.70671 60.1908 6.96473 60.461 6.78271 60.4786L4.11706 60.7311L4.21688 58.0533C4.22275 57.9006 4.31082 55.8805 4.96256 53.0735C3.58276 55.2874 2.41434 56.7144 2.32039 56.826L0.611795 58.8872L0.478391 58.7434L0.478391 51.4C1.73221 49.4976 3.34664 46.6688 4.24624 43.6307L4.24624 43.6248C5.15044 40.5947 3.76478 38.281 3.12478 37.4236C2.22645 36.2197 1.12261 35.5914 0.523722 35.5914C0.508883 35.5914 0.493769 35.5917 0.478392 35.5924L0.478392 30.876C0.491549 30.8759 0.504702 30.8759 0.517851 30.8759C2.76663 30.8759 5.14457 32.2676 6.88253 34.599C8.83186 37.2063 9.59515 40.395 9.07259 43.525C11.0337 40.9764 13.8226 39.3262 16.9345 38.921C19.7 38.5628 22.2834 39.2851 23.857 40.8589C25.4481 42.4445 26.1468 45.1105 25.73 47.988C25.2309 51.4175 23.3285 54.3537 20.4691 56.1859C24.1447 55.2757 27.8789 56.0097 30.7442 58.2177C32.9519 59.9207 34.2671 62.2344 34.2671 64.4836C34.2671 66.7327 32.8814 69.111 30.5504 70.8492C28.4719 72.3996 26.0353 73.2041 23.5458 73.2041C22.5359 73.2041 21.526 73.069 20.522 72.7989C23.3168 74.772 25.1311 77.6964 25.5597 80.985C25.9178 83.7509 25.1957 86.3347 23.6221 87.9085C22.3362 89.1946 20.3458 89.8993 18.1088 89.8993C17.5862 89.8993 17.0402 89.864 16.4941 89.7818C13.2766 89.3179 10.4876 87.609 8.64397 85.031C9.28396 88.5721 8.42085 92.0897 6.23666 94.7733C4.63381 96.743 2.52127 97.9583 0.478389 98.1151L0.478389 93.3641C1.07721 93.1907 1.88216 92.6921 2.60222 91.8078C3.25983 90.9974 4.71595 88.7483 3.93505 85.4304C3.17763 82.2123 1.68628 79.4405 0.500237 77.6025C0.492966 77.6128 0.485684 77.6232 0.47839 77.6337L0.478391 70.1444ZM29.5699 64.5012C29.5699 63.9022 29.0415 62.8569 27.8789 61.9584L27.8848 61.9643C27.051 61.3242 24.767 59.9325 21.4731 60.8016C18.2791 61.6413 15.5488 63.2093 13.7404 64.4425C15.6428 65.6991 18.4846 67.3258 21.5377 68.2301C24.5674 69.1286 26.8808 67.7427 27.738 67.1026C28.9417 66.2042 29.5699 65.1002 29.5699 64.5012ZM17.5451 43.5955C16.5059 43.7305 13.9048 44.3648 12.1903 47.3068C10.5287 50.1608 9.70671 53.1968 9.30158 55.3461C11.5327 54.8881 14.6916 54.0307 17.4923 52.5098C20.2754 51.0064 20.933 48.3873 21.0856 47.3303C21.297 45.8446 20.9741 44.629 20.5396 44.1945C20.1932 43.848 19.3888 43.5426 18.3143 43.5426C18.0736 43.5426 17.8152 43.5602 17.5451 43.5955ZM20.9036 81.5957C20.7686 80.5563 20.1344 77.9548 17.1928 76.2401C14.3393 74.5782 11.3037 73.7561 9.15479 73.3509C9.61276 75.5824 10.47 78.7417 11.9907 81.5429C13.4938 84.3264 16.1125 84.9841 17.1693 85.1368C18.6548 85.3482 19.8702 85.0252 20.3047 84.5906C20.7275 84.1678 21.0915 83.0521 20.9036 81.5957Z" fill="#C55C2C"/>
<path d="M0.478385 197.017L0.478385 187.599C0.497394 187.598 0.516422 187.598 0.535461 187.598C3.13065 187.598 5.24438 189.712 5.24438 192.308C5.24438 194.903 3.13065 197.018 0.53546 197.018C0.516425 197.018 0.497401 197.017 0.478385 197.017Z" fill="#C55C2C"/>
<path fill-rule="evenodd" clip-rule="evenodd" d="M0.478385 197.933L0.52959 197.875L2.2969 199.889C2.39085 199.995 3.53578 201.316 4.86274 203.483C4.20513 200.758 4.0055 198.756 3.99376 198.603L3.74129 195.937L6.41868 196.037L6.45985 196.039C6.84764 196.061 9.43019 196.206 12.754 197.129C10.1529 195.579 8.43846 194.175 8.31516 194.07L6.25428 192.361L8.21535 190.54C8.33865 190.423 10.194 188.732 13.165 187.005C9.70671 187.98 6.96473 188.25 6.78271 188.268L4.11706 188.52L4.21688 185.842C4.22275 185.69 4.31082 183.67 4.96255 180.863C3.58276 183.076 2.41433 184.503 2.32039 184.615L0.611789 186.676L0.478385 186.532L0.478386 179.189C1.7322 177.287 3.34664 174.458 4.24624 171.42L4.24624 171.414C5.15044 168.384 3.76477 166.07 3.12478 165.213C2.22645 164.009 1.12261 163.38 0.52372 163.38C0.508881 163.38 0.493767 163.381 0.478386 163.381L0.478387 158.665C0.491544 158.665 0.504697 158.665 0.51785 158.665C2.76663 158.665 5.14457 160.057 6.88253 162.388C8.83186 164.995 9.59515 168.184 9.07259 171.314C11.0337 168.765 13.8226 167.115 16.9345 166.71C19.7 166.352 22.2834 167.074 23.857 168.648C25.4481 170.234 26.1468 172.9 25.73 175.777C25.2309 179.207 23.3285 182.143 20.4691 183.975C24.1447 183.065 27.8789 183.799 30.7442 186.007C32.9519 187.71 34.2671 190.023 34.2671 192.273C34.2671 194.522 32.8814 196.9 30.5504 198.638C28.4719 200.189 26.0353 200.993 23.5458 200.993C22.5359 200.993 21.526 200.858 20.522 200.588C23.3168 202.561 25.1311 205.486 25.5597 208.774C25.9178 211.54 25.1957 214.124 23.6221 215.698C22.3362 216.984 20.3458 217.688 18.1088 217.688C17.5862 217.688 17.0402 217.653 16.4941 217.571C13.2766 217.107 10.4876 215.398 8.64397 212.82C9.28396 216.361 8.42085 219.879 6.23666 222.562C4.63381 224.532 2.52126 225.747 0.478384 225.904L0.478384 221.153C1.0772 220.98 1.88216 220.481 2.60222 219.597C3.25982 218.786 4.71595 216.537 3.93505 213.219C3.17763 210.001 1.68627 207.23 0.500231 205.392C0.492961 205.402 0.485678 205.412 0.478385 205.423L0.478385 197.933ZM29.5699 192.29C29.5699 191.691 29.0415 190.646 27.8789 189.747L27.8848 189.753C27.051 189.113 24.767 187.722 21.4731 188.591C18.2791 189.43 15.5488 190.998 13.7404 192.232C15.6428 193.488 18.4846 195.115 21.5377 196.019C24.5674 196.918 26.8808 195.532 27.738 194.892C28.9417 193.993 29.5699 192.889 29.5699 192.29ZM17.5451 171.385C16.5059 171.52 13.9048 172.154 12.1903 175.096C10.5287 177.95 9.7067 180.986 9.30157 183.135C11.5327 182.677 14.6916 181.82 17.4923 180.299C20.2754 178.796 20.933 176.176 21.0856 175.119C21.297 173.634 20.9741 172.418 20.5396 171.984C20.1932 171.637 19.3888 171.332 18.3143 171.332C18.0736 171.332 17.8152 171.349 17.5451 171.385ZM20.9036 209.385C20.7686 208.345 20.1344 205.744 17.1928 204.029C14.3393 202.367 11.3037 201.545 9.15478 201.14C9.61276 203.371 10.47 206.531 11.9907 209.332C13.4938 212.115 16.1125 212.773 17.1693 212.926C18.6548 213.137 19.8702 212.814 20.3047 212.38C20.7275 211.957 21.0915 210.841 20.9036 209.385Z" fill="#C55C2C"/>
<path d="M0.478379 324.806L0.47838 315.388C0.497453 315.387 0.516546 315.387 0.53565 315.387C3.13084 315.387 5.24457 317.501 5.24457 320.097C5.24457 322.693 3.13084 324.807 0.535649 324.807C0.516549 324.807 0.49746 324.806 0.478379 324.806Z" fill="#C55C2C"/>
<path fill-rule="evenodd" clip-rule="evenodd" d="M0.478379 325.723L0.529782 325.664L2.29709 327.678C2.39104 327.784 3.53597 329.105 4.86293 331.272C4.20532 328.547 4.00569 326.545 3.99395 326.392L3.74148 323.726L6.41887 323.826L6.46003 323.828C6.85098 323.85 9.433 323.995 12.7542 324.918C10.1531 323.368 8.43866 321.964 8.31535 321.859L6.25447 320.15L8.21554 318.329C8.33884 318.212 10.1942 316.521 13.1652 314.794C9.7069 315.769 6.96491 316.039 6.7829 316.057L4.11725 316.309L4.21707 313.631C4.22294 313.479 4.31101 311.459 4.96274 308.652C3.58295 310.866 2.41453 312.293 2.32058 312.404L0.611982 314.465L0.47838 314.321L0.47838 306.978C1.73222 305.076 3.34678 302.247 4.24642 299.209L4.24642 299.203C5.15063 296.173 3.76496 293.859 3.12498 293.002C2.22664 291.798 1.12281 291.17 0.523913 291.17C0.509009 291.17 0.49383 291.17 0.478381 291.17L0.478381 286.454C0.491603 286.454 0.504821 286.454 0.518039 286.454C2.76681 286.454 5.14476 287.846 6.88272 290.177C8.83205 292.784 9.59534 295.973 9.07278 299.103C11.0339 296.555 13.8228 294.904 16.9347 294.499C19.7001 294.141 22.2836 294.863 23.8571 296.437C25.4483 298.023 26.147 300.689 25.7301 303.566C25.2311 306.996 23.3287 309.932 20.4693 311.764C24.1449 310.854 27.8791 311.588 30.7444 313.796C32.9521 315.499 34.2673 317.813 34.2673 320.062C34.2673 322.311 32.8816 324.689 30.5506 326.427C28.4721 327.978 26.0355 328.782 23.546 328.782C22.5361 328.782 21.5262 328.647 20.5222 328.377C23.317 330.35 25.1313 333.275 25.5599 336.563C25.918 339.329 25.1958 341.913 23.6223 343.487C22.3364 344.773 20.346 345.477 18.109 345.477C17.5864 345.477 17.0404 345.442 16.4943 345.36C13.2767 344.896 10.4878 343.187 8.64416 340.609C9.28415 344.15 8.42104 347.668 6.23685 350.351C4.63395 352.321 2.52132 353.536 0.478378 353.693L0.478378 348.942C1.07721 348.769 1.88227 348.27 2.60241 347.386C3.26001 346.576 4.71614 344.326 3.93523 341.008C3.17781 337.79 1.68646 335.019 0.500424 333.181C0.493088 333.191 0.485741 333.202 0.478379 333.212L0.478379 325.723ZM29.5701 320.079C29.5701 319.48 29.0417 318.435 27.8791 317.537L27.885 317.542C27.0512 316.902 24.7672 315.511 21.4733 316.38C18.2792 317.219 15.549 318.787 13.7406 320.021C15.643 321.277 18.4847 322.904 21.5379 323.808C24.5676 324.707 26.881 323.321 27.7382 322.681C28.9418 321.782 29.5701 320.678 29.5701 320.079ZM17.5453 299.174C16.5061 299.309 13.905 299.943 12.1905 302.885C10.5289 305.739 9.7069 308.775 9.30176 310.924C11.5329 310.466 14.6918 309.609 17.4925 308.088C20.2755 306.585 20.9332 303.965 21.0858 302.908C21.2972 301.423 20.9743 300.207 20.5398 299.773C20.1933 299.426 19.389 299.121 18.3145 299.121C18.0737 299.121 17.8154 299.138 17.5453 299.174ZM20.9038 337.174C20.7687 336.134 20.1346 333.533 17.193 331.818C14.3395 330.156 11.3039 329.334 9.15498 328.929C9.61295 331.16 10.4702 334.32 11.9909 337.121C13.494 339.904 16.1127 340.562 17.1695 340.715C18.655 340.926 19.8704 340.603 20.3049 340.169C20.7277 339.746 21.0917 338.63 20.9038 337.174Z" fill="#C55C2C"/>
<path d="M0.478374 452.595L0.478374 443.177C0.497452 443.176 0.51654 443.176 0.535648 443.176C3.13084 443.176 5.24457 445.29 5.24457 447.886C5.24457 450.482 3.13084 452.596 0.535648 452.596C0.516547 452.596 0.497455 452.596 0.478374 452.595Z" fill="#C55C2C"/>
<path fill-rule="evenodd" clip-rule="evenodd" d="M0.478374 453.512L0.529777 453.453L2.29709 455.467C2.39104 455.573 3.53597 456.894 4.86293 459.061C4.20532 456.336 4.00569 454.334 3.99395 454.181L3.74147 451.515L6.41886 451.615L6.46003 451.617C6.85098 451.639 9.433 451.785 12.7542 452.707C10.1531 451.157 8.43865 449.753 8.31535 449.648L6.25447 447.939L8.21554 446.118C8.33884 446.001 10.1942 444.31 13.1652 442.583C9.70689 443.558 6.96492 443.828 6.7829 443.846L4.11725 444.098L4.21706 441.42C4.22293 441.268 4.31101 439.248 4.96274 436.441C3.58295 438.655 2.41452 440.082 2.32058 440.193L0.61198 442.254L0.478374 442.11L0.478375 434.768C1.73222 432.865 3.34678 430.036 4.24642 426.998L4.24642 426.992C5.15063 423.962 3.76496 421.648 3.12497 420.791C2.22664 419.587 1.1228 418.959 0.523907 418.959C0.509003 418.959 0.493825 418.959 0.478375 418.96L0.478375 414.243C0.491597 414.243 0.504819 414.243 0.518037 414.243C2.76681 414.243 5.14476 415.635 6.88271 417.966C8.83204 420.573 9.59534 423.762 9.07277 426.892C11.0338 424.344 13.8228 422.693 16.9347 422.288C19.7001 421.93 22.2836 422.652 23.8571 424.226C25.4483 425.812 26.147 428.478 25.7301 431.355C25.2311 434.785 23.3287 437.721 20.4693 439.553C24.1448 438.643 27.8791 439.377 30.7444 441.585C32.9521 443.288 34.2673 445.602 34.2673 447.851C34.2673 450.1 32.8816 452.478 30.5506 454.216C28.4721 455.767 26.0355 456.571 23.546 456.571C22.5361 456.571 21.5262 456.436 20.5221 456.166C23.317 458.139 25.1313 461.064 25.5599 464.352C25.918 467.118 25.1958 469.702 23.6223 471.276C22.3364 472.562 20.346 473.266 18.109 473.266C17.5864 473.266 17.0404 473.231 16.4943 473.149C13.2767 472.685 10.4878 470.976 8.64415 468.398C9.28414 471.939 8.42104 475.457 6.23685 478.141C4.63394 480.11 2.52131 481.326 0.478373 481.482L0.478373 476.731C1.07721 476.558 1.88227 476.059 2.60241 475.175C3.26001 474.365 4.71614 472.115 3.93523 468.798C3.17781 465.579 1.68646 462.808 0.500419 460.97C0.493083 460.98 0.485736 460.991 0.478373 461.001L0.478374 453.512ZM29.5701 447.868C29.5701 447.269 29.0417 446.224 27.8791 445.326L27.885 445.331C27.0512 444.691 24.7672 443.3 21.4733 444.169C18.2792 445.009 15.549 446.576 13.7406 447.81C15.643 449.066 18.4847 450.693 21.5379 451.597C24.5676 452.496 26.881 451.11 27.7382 450.47C28.9418 449.571 29.5701 448.467 29.5701 447.868ZM17.5453 426.963C16.5061 427.098 13.905 427.732 12.1905 430.674C10.5289 433.528 9.70689 436.564 9.30176 438.713C11.5329 438.255 14.6918 437.398 17.4925 435.877C20.2755 434.374 20.9331 431.755 21.0858 430.698C21.2972 429.212 20.9743 427.996 20.5398 427.562C20.1933 427.215 19.389 426.91 18.3145 426.91C18.0737 426.91 17.8154 426.927 17.5453 426.963ZM20.9038 464.963C20.7687 463.923 20.1346 461.322 17.193 459.607C14.3395 457.945 11.3039 457.123 9.15497 456.718C9.61294 458.95 10.4702 462.109 11.9909 464.91C13.494 467.694 16.1127 468.351 17.1695 468.504C18.655 468.715 19.8704 468.392 20.3049 467.958C20.7276 467.535 21.0917 466.419 20.9038 464.963Z" fill="#C55C2C"/>
<path fill-rule="evenodd" clip-rule="evenodd" d="M0.478367 609.271C2.52134 609.115 4.63402 607.9 6.23696 605.93C8.42115 603.246 9.28425 599.729 8.64426 596.187C10.4879 598.765 13.2769 600.474 16.4944 600.938C17.0405 601.02 17.5865 601.056 18.1091 601.056C20.3461 601.056 22.3365 600.351 23.6224 599.065C25.1959 597.491 25.9181 594.907 25.56 592.141C25.1314 588.853 23.3171 585.928 20.5223 583.955C21.5263 584.225 22.5362 584.36 23.5461 584.36C26.0356 584.36 28.4722 583.556 30.5507 582.006C32.8817 580.267 34.2674 577.889 34.2674 575.64C34.2674 573.391 32.9522 571.077 30.7445 569.374C27.8792 567.166 24.145 566.432 20.4694 567.342C23.3288 565.51 25.2312 562.574 25.7303 559.144C26.1471 556.267 25.4484 553.601 23.8573 552.015C22.2837 550.442 19.7002 549.719 16.9348 550.077C13.8229 550.483 11.034 552.133 9.07288 554.681C9.59545 551.551 8.83215 548.363 6.88282 545.755C5.14487 543.424 2.76692 542.032 0.518146 542.032C0.50489 542.032 0.49163 542.032 0.47837 542.032L0.47837 546.749C0.493857 546.748 0.509074 546.748 0.524016 546.748C1.12291 546.748 2.22674 547.376 3.12508 548.58C3.76507 549.437 5.15074 551.751 4.24653 554.781L4.24653 554.787C3.34686 557.825 1.73223 560.654 0.478369 562.557L0.478369 569.899L0.612085 570.044L2.32068 567.982C2.41463 567.871 3.58306 566.444 4.96285 564.23C4.31112 567.037 4.22304 569.057 4.21717 569.21L4.11736 571.888L6.78301 571.635C6.96502 571.617 9.707 571.347 13.1653 570.372C10.1943 572.099 8.33895 573.79 8.21565 573.908L6.25457 575.728L8.31546 577.437C8.43876 577.543 10.1532 578.946 12.7543 580.496C9.42967 579.573 6.84667 579.428 6.45986 579.407L6.41897 579.404L3.74158 579.304L3.99405 581.97C4.0058 582.123 4.20543 584.126 4.86303 586.85C3.53608 584.683 2.39115 583.362 2.2972 583.256L0.529886 581.242L0.478368 581.301L0.478368 588.79C0.485768 588.78 0.493154 588.769 0.500527 588.759C1.68657 590.597 3.17792 593.369 3.93534 596.587C4.71625 599.905 3.26012 602.154 2.60252 602.964C1.88233 603.849 1.07722 604.347 0.478367 604.521L0.478367 609.271ZM29.5702 575.658C29.5702 575.059 29.0418 574.013 27.8792 573.115L27.8851 573.121C27.0513 572.481 24.7673 571.089 21.4734 571.958C18.2794 572.798 15.5491 574.366 13.7407 575.599C15.6431 576.856 18.4849 578.482 21.538 579.387C24.5677 580.285 26.8811 578.899 27.7383 578.259C28.9419 577.361 29.5702 576.257 29.5702 575.658ZM17.5454 554.752C16.5062 554.887 13.9051 555.521 12.1906 558.463C10.529 561.317 9.707 564.353 9.30187 566.503C11.533 566.044 14.6919 565.187 17.4926 563.666C20.2757 562.163 20.9333 559.544 21.0859 558.487C21.2973 557.001 20.9744 555.785 20.5399 555.351C20.1935 555.004 19.3891 554.699 18.3146 554.699C18.0739 554.699 17.8155 554.717 17.5454 554.752ZM20.9039 592.752C20.7689 591.713 20.1347 589.111 17.1931 587.396C14.3396 585.735 11.304 584.912 9.15508 584.507C9.61305 586.739 10.4703 589.898 11.991 592.699C13.4941 595.483 16.1128 596.14 17.1696 596.293C18.6551 596.505 19.8705 596.182 20.305 595.747C20.7278 595.324 21.0918 594.208 20.9039 592.752Z" fill="#C55C2C"/>
<path d="M0.478368 580.384C0.497487 580.385 0.516618 580.385 0.535757 580.385C3.13095 580.385 5.24468 578.271 5.24468 575.675C5.24468 573.08 3.13095 570.966 0.535757 570.966C0.516611 570.966 0.497484 570.966 0.478369 570.966L0.478368 580.384Z" fill="#C55C2C"/>
<path fill-rule="evenodd" clip-rule="evenodd" d="M42.2055 447.886C42.2055 446.248 40.8727 444.909 39.2286 444.909C37.5846 444.909 36.2518 446.242 36.2518 447.886C36.2518 449.53 37.5846 450.863 39.2286 450.863C40.8727 450.863 42.2055 449.53 42.2055 447.886ZM37.5083 447.886C37.5083 446.935 38.2833 446.165 39.2286 446.165C40.174 446.165 40.949 446.941 40.949 447.886C40.949 448.831 40.174 449.607 39.2286 449.607C38.2833 449.607 37.5083 448.831 37.5083 447.886Z" fill="#C55C2C"/>
<path d="M28.431 420.444C28.431 421.43 27.6319 422.23 26.6461 422.23C25.6603 422.23 24.8612 421.43 24.8612 420.444C24.8612 419.458 25.6603 418.659 26.6461 418.659C27.6319 418.659 28.431 419.458 28.431 420.444Z" fill="#C55C2C"/>
<path d="M24.4443 474.312C23.6575 474.911 23.5048 476.026 24.1037 476.813C24.7026 477.6 25.8182 477.753 26.605 477.154C27.3918 476.555 27.5444 475.439 26.9455 474.652C26.3466 473.865 25.2311 473.713 24.4443 474.312Z" fill="#C55C2C"/>
<path fill-rule="evenodd" clip-rule="evenodd" d="M42.2053 64.5188C42.2053 62.8804 40.8725 61.5415 39.2285 61.5415C37.5845 61.5415 36.2516 62.8745 36.2516 64.5188C36.2516 66.1631 37.5845 67.4961 39.2285 67.4961C40.8725 67.4961 42.2053 66.1631 42.2053 64.5188ZM37.5081 64.5188C37.5081 63.5675 38.2832 62.7982 39.2285 62.7982C40.1738 62.7982 40.9488 63.5733 40.9488 64.5188C40.9488 65.4642 40.1738 66.2394 39.2285 66.2394C38.2832 66.2394 37.5081 65.4642 37.5081 64.5188Z" fill="#C55C2C"/>
<path d="M28.4308 37.0771C28.4308 38.0631 27.6317 38.8623 26.6459 38.8623C25.6601 38.8623 24.861 38.0631 24.861 37.0771C24.861 36.0912 25.6601 35.2919 26.6459 35.2919C27.6317 35.2919 28.4308 36.0912 28.4308 37.0771Z" fill="#C55C2C"/>
<path d="M24.4441 90.9445C23.6573 91.5435 23.5047 92.6593 24.1035 93.4462C24.7024 94.2331 25.818 94.3858 26.6048 93.7868C27.3916 93.1878 27.5442 92.072 26.9453 91.2851C26.3464 90.4982 25.2309 90.3456 24.4441 90.9445Z" fill="#C55C2C"/>
<path fill-rule="evenodd" clip-rule="evenodd" d="M42.2053 192.308C42.2053 190.669 40.8725 189.331 39.2285 189.331C37.5845 189.331 36.2516 190.664 36.2516 192.308C36.2516 193.952 37.5844 195.285 39.2285 195.285C40.8725 195.285 42.2053 193.952 42.2053 192.308ZM37.5081 192.308C37.5081 191.357 38.2832 190.587 39.2285 190.587C40.1738 190.587 40.9488 191.362 40.9488 192.308C40.9488 193.253 40.1738 194.028 39.2285 194.028C38.2832 194.028 37.5081 193.253 37.5081 192.308Z" fill="#C55C2C"/>
<path d="M28.4308 164.866C28.4308 165.852 27.6317 166.651 26.6459 166.651C25.6601 166.651 24.861 165.852 24.861 164.866C24.861 163.88 25.6601 163.081 26.6459 163.081C27.6317 163.081 28.4308 163.88 28.4308 164.866Z" fill="#C55C2C"/>
<path d="M24.4441 218.734C23.6573 219.333 23.5047 220.448 24.1035 221.235C24.7024 222.022 25.818 222.175 26.6048 221.576C27.3916 220.977 27.5442 219.861 26.9453 219.074C26.3464 218.287 25.2309 218.135 24.4441 218.734Z" fill="#C55C2C"/>
<path fill-rule="evenodd" clip-rule="evenodd" d="M42.2055 320.097C42.2055 318.459 40.8727 317.12 39.2287 317.12C37.5846 317.12 36.2518 318.453 36.2518 320.097C36.2518 321.741 37.5846 323.074 39.2287 323.074C40.8727 323.074 42.2055 321.741 42.2055 320.097ZM37.5083 320.097C37.5083 319.146 38.2833 318.376 39.2287 318.376C40.174 318.376 40.949 319.151 40.949 320.097C40.949 321.042 40.174 321.818 39.2287 321.818C38.2833 321.818 37.5083 321.042 37.5083 320.097Z" fill="#C55C2C"/>
<path d="M28.431 292.655C28.431 293.641 27.6319 294.44 26.6461 294.44C25.6603 294.44 24.8612 293.641 24.8612 292.655C24.8612 291.669 25.6603 290.87 26.6461 290.87C27.6319 290.87 28.431 291.669 28.431 292.655Z" fill="#C55C2C"/>
<path d="M24.4443 346.523C23.6575 347.122 23.5048 348.237 24.1037 349.024C24.7026 349.811 25.8182 349.964 26.605 349.365C27.3918 348.766 27.5444 347.65 26.9455 346.863C26.3466 346.076 25.2311 345.924 24.4443 346.523Z" fill="#C55C2C"/>
<path fill-rule="evenodd" clip-rule="evenodd" d="M42.2056 575.675C42.2056 574.037 40.8728 572.698 39.2288 572.698C37.5847 572.698 36.2519 574.031 36.2519 575.675C36.2519 577.319 37.5847 578.652 39.2288 578.652C40.8728 578.652 42.2056 577.319 42.2056 575.675ZM37.5084 575.675C37.5084 574.724 38.2835 573.955 39.2288 573.955C40.1741 573.955 40.9491 574.73 40.9491 575.675C40.9491 576.621 40.1741 577.396 39.2288 577.396C38.2835 577.396 37.5084 576.621 37.5084 575.675Z" fill="#C55C2C"/>
<path d="M28.4311 548.234C28.4311 549.219 27.632 550.019 26.6462 550.019C25.6604 550.019 24.8613 549.219 24.8613 548.234C24.8613 547.248 25.6604 546.448 26.6462 546.448C27.632 546.448 28.4311 547.248 28.4311 548.234Z" fill="#C55C2C"/>
<path d="M24.4444 602.101C23.6576 602.7 23.5049 603.816 24.1038 604.603C24.7027 605.39 25.8183 605.542 26.6051 604.943C27.3919 604.344 27.5445 603.228 26.9456 602.442C26.3467 601.655 25.2312 601.502 24.4444 602.101Z" fill="#C55C2C"/>
</g>
</svg>
