<svg width="51" height="640" viewBox="0 0 51 640" fill="none" xmlns="http://www.w3.org/2000/svg">
<g opacity="0.6">
<path d="M15.7267 82.2123L15.7267 100.006L31.339 100.006C32.8891 107.317 38.5903 113.142 45.7006 115.004L45.7006 128.311L50.3978 128.311L50.3978 115.632L50.4669 115.632L50.4669 110.934C42.9041 110.885 36.4206 104.971 35.6897 97.4276L35.4842 95.3077L20.4298 95.3077L20.4298 80.3566L20.4122 78.1486L18.3572 77.9019C10.8475 77.0034 5.1757 70.6319 5.16983 63.08C5.1757 55.4811 11.1118 48.9569 18.6742 48.217L20.7938 48.0115L20.7938 32.9547L35.7426 32.9547L37.9503 32.9429L38.1969 30.8817C38.9912 24.2303 44.0729 19.0297 50.4669 17.9144L50.4669 13.1629C50.4478 13.1655 50.4287 13.168 50.4095 13.1706L50.4095 0.521424L45.7124 0.521424L45.7124 14.4155C39.8526 16.7762 35.3492 21.8969 33.8931 28.2567L16.1025 28.2567L16.1025 43.8714C7.19549 45.7623 0.484394 53.8134 0.478522 63.08C0.490268 72.3055 6.91366 80.1922 15.7385 82.2123L15.7267 82.2123Z" fill="#C55C2C"/>
<path d="M50.4669 622.09L50.4669 626.788L50.3981 626.788L50.3981 639.467L45.7009 639.467L45.7009 626.16C38.5906 624.299 32.8894 618.473 31.3393 611.162L15.727 611.162L15.727 593.369L15.7388 593.369C6.91397 591.349 0.490576 583.462 0.478831 574.236C0.484702 564.97 7.1958 556.919 16.1028 555.028L16.1028 539.413L33.8934 539.413C35.3495 533.053 39.8529 527.933 45.7127 525.572L45.7127 511.678L45.7009 511.678L45.7009 498.371C38.5906 496.509 32.8894 490.684 31.3393 483.373L15.727 483.373L15.727 465.58L15.7388 465.58C6.91397 463.559 0.490576 455.673 0.478831 446.447C0.484702 437.181 7.1958 429.13 16.1028 427.239L16.1028 411.624L33.8934 411.624C35.3495 405.264 39.8529 400.144 45.7127 397.783L45.7127 383.889L45.7007 383.889L45.7007 370.582C38.5904 368.72 32.8892 362.895 31.3391 355.584L15.7268 355.584L15.7268 337.791L15.7386 337.791C6.91377 335.77 0.490381 327.884 0.478635 318.658C0.484507 309.392 7.1956 301.341 16.1026 299.45L16.1026 283.835L33.8932 283.835C35.3493 277.475 39.8527 272.354 45.7125 269.994L45.7125 256.1L45.7007 256.1L45.7007 242.793C38.5904 240.931 32.8892 235.106 31.3391 227.795L15.7268 227.795L15.7268 210.001L15.7386 210.001C6.91377 207.981 0.49038 200.095 0.478635 190.869C0.484506 181.603 7.1956 173.552 16.1026 171.661L16.1026 156.046L33.8932 156.046C35.3493 149.686 39.8527 144.565 45.7125 142.205L45.7125 128.311L50.4097 128.311L50.4097 140.96C50.4287 140.957 50.4478 140.955 50.4669 140.952L50.4669 145.704C44.073 146.819 38.9913 152.02 38.197 158.671L37.9504 160.732L35.7427 160.744L20.7939 160.744L20.7939 175.801L18.6743 176.006C11.1119 176.746 5.17581 183.27 5.16994 190.869C5.17581 198.421 10.8477 204.793 18.3573 205.691L20.4123 205.938L20.4299 208.146L20.4299 223.097L35.4844 223.097L35.6899 225.217C36.4207 232.76 42.9042 238.674 50.4669 238.723L50.4669 243.421L50.3979 243.421L50.3979 256.1L50.4097 256.1L50.4097 268.749C50.4287 268.746 50.4478 268.744 50.4669 268.741L50.4669 273.493C44.073 274.608 38.9913 279.809 38.197 286.46L37.9504 288.521L35.7427 288.533L20.7939 288.533L20.7939 303.59L18.6743 303.795C11.1119 304.535 5.17581 311.059 5.16994 318.658C5.17581 326.21 10.8477 332.582 18.3573 333.48L20.4123 333.727L20.4299 335.935L20.4299 350.886L35.4844 350.886L35.6899 353.006C36.4207 360.55 42.9042 366.463 50.4669 366.512L50.4669 371.21L50.3979 371.21L50.3979 383.889L50.4098 383.889L50.4098 396.538C50.4289 396.535 50.4479 396.533 50.4669 396.53L50.4669 401.282C44.073 402.397 38.9915 407.598 38.1972 414.249L37.9506 416.31L35.7429 416.322L20.7941 416.322L20.7941 431.379L18.6745 431.584C11.1121 432.324 5.17601 438.848 5.17014 446.447C5.17601 453.999 10.8479 460.371 18.3575 461.269L20.4125 461.516L20.4301 463.724L20.4301 478.675L35.4846 478.675L35.6901 480.795C36.4209 488.339 42.9042 494.252 50.4669 494.301L50.4669 498.999L50.3981 498.999L50.3981 511.678L50.4098 511.678L50.4098 524.327C50.4289 524.324 50.4479 524.322 50.4669 524.319L50.4669 529.071C44.073 530.186 38.9915 535.387 38.1972 542.038L37.9506 544.099L35.7429 544.111L20.7941 544.111L20.7941 559.168L18.6745 559.373C11.1121 560.113 5.17601 566.638 5.17014 574.236C5.17601 581.788 10.8479 588.16 18.3575 589.058L20.4125 589.305L20.4301 591.513L20.4301 606.464L35.4846 606.464L35.6901 608.584C36.4209 616.128 42.9042 622.041 50.4669 622.09Z" fill="#C55C2C"/>
<path d="M50.4669 570.76L50.4669 580.179C50.4479 580.179 50.4289 580.179 50.4098 580.179C47.8147 580.179 45.7009 578.065 45.7009 575.47C45.7009 572.874 47.8147 570.76 50.4098 570.76C50.4289 570.76 50.4479 570.76 50.4669 570.76Z" fill="#C55C2C"/>
<path fill-rule="evenodd" clip-rule="evenodd" d="M50.4669 569.844L50.4157 569.903L48.6484 567.888C48.5545 567.783 47.4095 566.461 46.0826 564.294C46.7402 567.019 46.9398 569.022 46.9515 569.174L47.204 571.84L44.5266 571.741L44.4855 571.738C44.098 571.717 41.5153 571.572 38.1913 570.648C40.7924 572.199 42.5068 573.602 42.6301 573.708L44.691 575.417L42.73 577.237C42.6067 577.355 40.7513 579.046 37.7803 580.772C41.2386 579.798 43.9806 579.527 44.1626 579.51L46.8282 579.257L46.7284 581.935C46.7226 582.088 46.6345 584.108 45.9828 586.915C47.3625 584.701 48.531 583.274 48.6249 583.162L50.3335 581.101L50.4669 581.245L50.4669 588.588C49.2131 590.491 47.5987 593.32 46.6991 596.358L46.6991 596.364C45.7949 599.394 47.1805 601.707 47.8205 602.565C48.7189 603.769 49.8227 604.397 50.4216 604.397C50.4364 604.397 50.4515 604.397 50.4669 604.396L50.4669 609.112C50.4538 609.112 50.4406 609.113 50.4275 609.113C48.1787 609.113 45.8007 607.721 44.0628 605.389C42.1135 602.782 41.3502 599.593 41.8727 596.463C39.9117 599.012 37.1227 600.662 34.0108 601.067C31.2454 601.426 28.6619 600.703 27.0884 599.129C25.4972 597.544 24.7985 594.878 25.2153 592C25.7144 588.571 27.6168 585.635 30.4762 583.803C26.8006 584.713 23.0664 583.979 20.2011 581.771C17.9934 580.068 16.6782 577.754 16.6782 575.505C16.6782 573.256 18.0639 570.877 20.3949 569.139C22.4734 567.589 24.91 566.784 27.3995 566.784C28.4094 566.784 29.4193 566.919 30.4233 567.19C27.6285 565.216 25.8142 562.292 25.3856 559.003C25.0275 556.238 25.7497 553.654 27.3232 552.08C28.6091 550.794 30.5995 550.089 32.8365 550.089C33.3591 550.089 33.9051 550.124 34.4512 550.207C37.6687 550.671 40.4577 552.379 42.3013 554.957C41.6613 551.416 42.5245 547.899 44.7086 545.215C46.3115 543.245 48.424 542.03 50.4669 541.873L50.4669 546.624C49.8681 546.798 49.0631 547.296 48.3431 548.181C47.6855 548.991 46.2294 551.24 47.0103 554.558C47.7677 557.776 49.259 560.548 50.4451 562.386C50.4523 562.376 50.4596 562.365 50.4669 562.355L50.4669 569.844ZM21.3754 575.487C21.3754 576.086 21.9038 577.131 23.0664 578.03L23.0605 578.024C23.8943 578.664 26.1783 580.056 29.4722 579.187C32.6663 578.347 35.3965 576.779 37.2049 575.546C35.3025 574.289 32.4607 572.663 29.4076 571.758C26.3779 570.86 24.0645 572.246 23.2073 572.886C22.0037 573.784 21.3754 574.888 21.3754 575.487ZM33.4002 596.393C34.4394 596.258 37.0405 595.624 38.755 592.682C40.4166 589.828 41.2386 586.792 41.6437 584.642C39.4126 585.1 36.2537 585.958 33.453 587.479C30.6699 588.982 30.0123 591.601 29.8597 592.658C29.6483 594.144 29.9712 595.359 30.4057 595.794C30.7522 596.14 31.5565 596.446 32.631 596.446C32.8718 596.446 33.1301 596.428 33.4002 596.393ZM30.0417 558.393C30.1767 559.432 30.8109 562.034 33.7525 563.748C36.606 565.41 39.6416 566.232 41.7905 566.638C41.3325 564.406 40.4753 561.247 38.9546 558.446C37.4515 555.662 34.8328 555.004 33.776 554.852C32.2905 554.64 31.0751 554.963 30.6406 555.398C30.2178 555.821 29.8538 556.936 30.0417 558.393Z" fill="#C55C2C"/>
<path d="M50.4669 442.971L50.4669 452.39C50.4479 452.39 50.4289 452.39 50.4098 452.39C47.8147 452.39 45.7009 450.276 45.7009 447.681C45.7009 445.085 47.8147 442.971 50.4098 442.971C50.4289 442.971 50.4479 442.971 50.4669 442.971Z" fill="#C55C2C"/>
<path fill-rule="evenodd" clip-rule="evenodd" d="M50.4669 442.055L50.4157 442.114L48.6484 440.099C48.5545 439.994 47.4095 438.672 46.0826 436.505C46.7402 439.23 46.9398 441.233 46.9515 441.385L47.204 444.051L44.5266 443.952L44.4855 443.949C44.0977 443.927 41.5151 443.783 38.1913 442.859C40.7924 444.41 42.5068 445.813 42.6301 445.919L44.691 447.628L42.73 449.448C42.6067 449.566 40.7513 451.257 37.7803 452.983C41.2386 452.008 43.9806 451.738 44.1626 451.721L46.8282 451.468L46.7284 454.146C46.7226 454.299 46.6345 456.319 45.9828 459.126C47.3625 456.912 48.531 455.485 48.6249 455.373L50.3335 453.312L50.4669 453.456L50.4669 460.799C49.2131 462.702 47.5987 465.531 46.6991 468.569L46.6991 468.575C45.7949 471.605 47.1805 473.918 47.8205 474.776C48.7189 475.98 49.8227 476.608 50.4216 476.608C50.4364 476.608 50.4515 476.608 50.4669 476.607L50.4669 481.323C50.4538 481.323 50.4406 481.323 50.4275 481.323C48.1787 481.323 45.8007 479.932 44.0628 477.6C42.1135 474.993 41.3502 471.804 41.8727 468.674C39.9116 471.223 37.1227 472.873 34.0108 473.278C31.2454 473.637 28.6619 472.914 27.0884 471.34C25.4972 469.755 24.7985 467.089 25.2153 464.211C25.7144 460.782 27.6168 457.846 30.4762 456.013C26.8006 456.924 23.0664 456.19 20.2011 453.982C17.9934 452.279 16.6782 449.965 16.6782 447.716C16.6782 445.467 18.0639 443.088 20.3949 441.35C22.4734 439.8 24.91 438.995 27.3995 438.995C28.4094 438.995 29.4193 439.13 30.4233 439.4C27.6285 437.427 25.8142 434.503 25.3856 431.214C25.0275 428.448 25.7497 425.865 27.3232 424.291C28.6091 423.005 30.5995 422.3 32.8365 422.3C33.3591 422.3 33.9051 422.335 34.4512 422.418C37.6687 422.881 40.4577 424.59 42.3013 427.168C41.6613 423.627 42.5245 420.11 44.7086 417.426C46.3115 415.456 48.424 414.241 50.4669 414.084L50.4669 418.835C49.8681 419.009 49.0631 419.507 48.3431 420.392C47.6855 421.202 46.2294 423.451 47.0103 426.769C47.7677 429.987 49.259 432.759 50.4451 434.597C50.4523 434.586 50.4596 434.576 50.4669 434.566L50.4669 442.055ZM21.3754 447.698C21.3754 448.297 21.9038 449.342 23.0664 450.241L23.0605 450.235C23.8943 450.875 26.1783 452.267 29.4722 451.398C32.6663 450.558 35.3965 448.99 37.2049 447.757C35.3025 446.5 32.4607 444.874 29.4076 443.969C26.3779 443.071 24.0645 444.457 23.2073 445.097C22.0037 445.995 21.3754 447.099 21.3754 447.698ZM33.4002 468.604C34.4394 468.469 37.0405 467.835 38.755 464.893C40.4166 462.039 41.2386 459.003 41.6437 456.853C39.4126 457.311 36.2537 458.169 33.453 459.69C30.67 461.193 30.0123 463.812 29.8597 464.869C29.6483 466.355 29.9712 467.57 30.4057 468.005C30.7521 468.351 31.5565 468.657 32.631 468.657C32.8718 468.657 33.1301 468.639 33.4002 468.604ZM30.0417 430.604C30.1767 431.643 30.8109 434.245 33.7525 435.959C36.606 437.621 39.6416 438.443 41.7905 438.848C41.3325 436.617 40.4753 433.458 38.9546 430.656C37.4515 427.873 34.8328 427.215 33.776 427.063C32.2905 426.851 31.0751 427.174 30.6406 427.609C30.2178 428.032 29.8538 429.147 30.0417 430.604Z" fill="#C55C2C"/>
<path d="M50.4669 315.182L50.4669 324.601C50.4478 324.601 50.4288 324.601 50.4097 324.601C47.8145 324.601 45.7007 322.487 45.7007 319.891C45.7007 317.296 47.8145 315.182 50.4097 315.182C50.4288 315.182 50.4478 315.182 50.4669 315.182Z" fill="#C55C2C"/>
<path fill-rule="evenodd" clip-rule="evenodd" d="M50.4669 314.266L50.4155 314.324L48.6482 312.31C48.5543 312.205 47.4093 310.883 46.0824 308.716C46.74 311.441 46.9396 313.444 46.9514 313.596L47.2038 316.262L44.5264 316.163L44.4853 316.16C44.0943 316.138 41.5123 315.993 38.1911 315.07C40.7922 316.621 42.5066 318.024 42.6299 318.13L44.6908 319.839L42.7298 321.659C42.6065 321.776 40.7511 323.468 37.7801 325.194C41.2384 324.219 43.9804 323.949 44.1624 323.932L46.8281 323.679L46.7282 326.357C46.7224 326.51 46.6343 328.53 45.9826 331.337C47.3624 329.123 48.5308 327.696 48.6247 327.584L50.3333 325.523L50.4669 325.667L50.4669 333.01C49.2131 334.912 47.5985 337.741 46.6989 340.78L46.6989 340.785C45.7947 343.816 47.1803 346.129 47.8203 346.987C48.7187 348.191 49.8225 348.819 50.4214 348.819C50.4363 348.819 50.4515 348.819 50.4669 348.818L50.4669 353.534C50.4537 353.534 50.4405 353.534 50.4273 353.534C48.1785 353.534 45.8005 352.143 44.0626 349.811C42.1133 347.204 41.35 344.015 41.8725 340.885C39.9114 343.434 37.1225 345.084 34.0106 345.489C31.2452 345.847 28.6617 345.125 27.0882 343.551C25.497 341.966 24.7983 339.3 25.2152 336.422C25.7142 332.993 27.6166 330.057 30.476 328.224C26.8005 329.135 23.0662 328.401 20.2009 326.193C17.9932 324.49 16.678 322.176 16.678 319.927C16.678 317.678 18.0637 315.299 20.3947 313.561C22.4732 312.011 24.9098 311.206 27.3993 311.206C28.4092 311.206 29.4191 311.341 30.4232 311.611C27.6283 309.638 25.814 306.714 25.3854 303.425C25.0273 300.659 25.7495 298.076 27.323 296.502C28.6089 295.216 30.5993 294.511 32.8363 294.511C33.3589 294.511 33.9049 294.546 34.451 294.628C37.6686 295.092 40.4575 296.801 42.3011 299.379C41.6612 295.838 42.5243 292.321 44.7085 289.637C46.3114 287.667 48.424 286.452 50.4669 286.295L50.4669 291.046C49.8681 291.219 49.063 291.718 48.3429 292.602C47.6853 293.413 46.2292 295.662 47.0101 298.98C47.7675 302.198 49.2588 304.97 50.4449 306.808C50.4522 306.797 50.4596 306.787 50.4669 306.776L50.4669 314.266ZM21.3752 319.909C21.3752 320.508 21.9036 321.553 23.0662 322.452L23.0603 322.446C23.8941 323.086 26.1781 324.478 29.472 323.609C32.6661 322.769 35.3963 321.201 37.2047 319.968C35.3023 318.711 32.4606 317.084 29.4074 316.18C26.3777 315.282 24.0643 316.668 23.2071 317.308C22.0035 318.206 21.3752 319.31 21.3752 319.909ZM33.4 340.815C34.4392 340.68 37.0403 340.046 38.7548 337.103C40.4164 334.249 41.2384 331.213 41.6435 329.064C39.4124 329.522 36.2535 330.38 33.4528 331.901C30.6698 333.404 30.0121 336.023 29.8595 337.08C29.6481 338.566 29.971 339.781 30.4055 340.216C30.752 340.562 31.5563 340.868 32.6308 340.868C32.8716 340.868 33.1299 340.85 33.4 340.815ZM30.0415 302.815C30.1766 303.854 30.8107 306.455 33.7523 308.17C36.6058 309.832 39.6414 310.654 41.7903 311.059C41.3324 308.828 40.4751 305.669 38.9544 302.867C37.4513 300.084 34.8326 299.426 33.7758 299.274C32.2903 299.062 31.0749 299.385 30.6404 299.82C30.2176 300.242 29.8536 301.358 30.0415 302.815Z" fill="#C55C2C"/>
<path d="M50.4669 187.393L50.4669 196.812C50.4478 196.812 50.4288 196.812 50.4097 196.812C47.8145 196.812 45.7007 194.698 45.7007 192.102C45.7007 189.507 47.8145 187.393 50.4097 187.393C50.4288 187.393 50.4478 187.393 50.4669 187.393Z" fill="#C55C2C"/>
<path fill-rule="evenodd" clip-rule="evenodd" d="M50.4669 186.477L50.4155 186.535L48.6482 184.521C48.5543 184.415 47.4093 183.094 46.0824 180.927C46.74 183.652 46.9396 185.655 46.9514 185.807L47.2038 188.473L44.5264 188.373L44.4853 188.371C44.0943 188.349 41.5123 188.204 38.1911 187.281C40.7922 188.832 42.5066 190.235 42.6299 190.341L44.6908 192.05L42.7298 193.87C42.6065 193.987 40.7511 195.679 37.7801 197.405C41.2384 196.43 43.9804 196.16 44.1624 196.143L46.8281 195.89L46.7282 198.568C46.7224 198.721 46.6343 200.741 45.9826 203.548C47.3624 201.334 48.5308 199.907 48.6247 199.795L50.3333 197.734L50.4669 197.878L50.4669 205.221C49.2131 207.123 47.5985 209.952 46.6989 212.991L46.6989 212.996C45.7947 216.027 47.1803 218.34 47.8203 219.198C48.7187 220.401 49.8225 221.03 50.4214 221.03C50.4363 221.03 50.4515 221.03 50.4669 221.029L50.4669 225.745C50.4537 225.745 50.4405 225.745 50.4273 225.745C48.1785 225.745 45.8005 224.354 44.0626 222.022C42.1133 219.415 41.35 216.226 41.8725 213.096C39.9115 215.645 37.1225 217.295 34.0106 217.7C31.2452 218.058 28.6617 217.336 27.0882 215.762C25.497 214.177 24.7983 211.511 25.2152 208.633C25.7142 205.204 27.6166 202.268 30.476 200.435C26.8005 201.346 23.0662 200.612 20.2009 198.404C17.9932 196.701 16.678 194.387 16.678 192.138C16.678 189.889 18.0637 187.51 20.3947 185.772C22.4732 184.222 24.9098 183.417 27.3993 183.417C28.4092 183.417 29.4191 183.552 30.4232 183.822C27.6283 181.849 25.814 178.925 25.3854 175.636C25.0273 172.87 25.7495 170.286 27.323 168.713C28.6089 167.427 30.5993 166.722 32.8363 166.722C33.3589 166.722 33.9049 166.757 34.451 166.839C37.6686 167.303 40.4575 169.012 42.3011 171.59C41.6612 168.049 42.5243 164.532 44.7084 161.848C46.3114 159.878 48.424 158.663 50.4669 158.506L50.4669 163.257C49.8681 163.43 49.063 163.929 48.3429 164.813C47.6853 165.624 46.2292 167.873 47.0101 171.191C47.7675 174.409 49.2588 177.181 50.4449 179.019C50.4522 179.008 50.4596 178.998 50.4669 178.987L50.4669 186.477ZM21.3752 192.12C21.3752 192.719 21.9036 193.764 23.0662 194.663L23.0603 194.657C23.8941 195.297 26.1781 196.689 29.472 195.82C32.6661 194.98 35.3963 193.412 37.2047 192.179C35.3023 190.922 32.4606 189.295 29.4074 188.391C26.3777 187.493 24.0643 188.878 23.2071 189.519C22.0035 190.417 21.3752 191.521 21.3752 192.12ZM33.4 213.026C34.4392 212.891 37.0403 212.256 38.7548 209.314C40.4164 206.46 41.2384 203.424 41.6435 201.275C39.4124 201.733 36.2535 202.591 33.4528 204.111C30.6698 205.615 30.0121 208.234 29.8595 209.291C29.6481 210.777 29.971 211.992 30.4055 212.427C30.752 212.773 31.5563 213.079 32.6308 213.079C32.8716 213.079 33.1299 213.061 33.4 213.026ZM30.0415 175.026C30.1766 176.065 30.8107 178.666 33.7523 180.381C36.6058 182.043 39.6414 182.865 41.7903 183.27C41.3324 181.039 40.4751 177.879 38.9544 175.078C37.4513 172.295 34.8326 171.637 33.7758 171.484C32.2903 171.273 31.0749 171.596 30.6404 172.031C30.2176 172.453 29.8536 173.569 30.0415 175.026Z" fill="#C55C2C"/>
<path fill-rule="evenodd" clip-rule="evenodd" d="M50.4669 30.7169C48.4239 30.8736 46.3113 32.0889 44.7083 34.0587C42.5241 36.7423 41.661 40.2599 42.301 43.801C40.4574 41.223 37.6684 39.5141 34.4509 39.0502C33.9048 38.968 33.3588 38.9327 32.8362 38.9327C30.5992 38.9327 28.6088 39.6375 27.3229 40.9235C25.7493 42.4973 25.0272 45.0812 25.3853 47.847C25.8139 51.1356 27.6282 54.06 30.423 56.0331C29.419 55.763 28.4091 55.6279 27.3992 55.6279C24.9097 55.6279 22.4731 56.4325 20.3946 57.9828C18.0636 59.721 16.6779 62.0993 16.6779 64.3484C16.6779 66.5976 17.9931 68.9113 20.2008 70.6143C23.0661 72.8223 26.8003 73.5563 30.4759 72.6461C27.6165 74.4783 25.7141 77.4145 25.215 80.844C24.7982 83.7214 25.4969 86.3875 27.088 87.9731C28.6616 89.5469 31.245 90.2692 34.0105 89.911C37.1224 89.5057 39.9113 87.8557 41.8724 85.307C41.3498 88.437 42.1131 91.6257 44.0625 94.233C45.8004 96.5644 48.1784 97.9561 50.4271 97.9561C50.4404 97.9561 50.4537 97.956 50.4669 97.956L50.4669 93.2396C50.4514 93.2403 50.4362 93.2406 50.4213 93.2406C49.8224 93.2406 48.7186 92.6123 47.8202 91.4084C47.1802 90.5511 45.7946 88.2373 46.6988 85.2072L46.6988 85.2013C47.5984 82.163 49.2131 79.3339 50.4669 77.4315L50.4669 70.0889L50.3332 69.9448L48.6246 72.006C48.5307 72.1176 47.3622 73.5446 45.9824 75.7585C46.6342 72.9515 46.7223 70.9315 46.7281 70.7787L46.8279 68.1009L44.1623 68.3535C43.9803 68.3711 41.2383 68.6412 37.78 69.616C40.751 67.8895 42.6063 66.1982 42.7296 66.0808L44.6907 64.2604L42.6298 62.5515C42.5065 62.4458 40.7921 61.0423 38.191 59.492C41.5156 60.4156 44.0986 60.5602 44.4854 60.5818L44.5263 60.5842L47.2037 60.6841L46.9512 58.018C46.9395 57.8653 46.7399 55.8629 46.0823 53.1381C47.4092 55.305 48.5541 56.6263 48.6481 56.732L50.4154 58.7462L50.4669 58.6873L50.4669 51.1979C50.4595 51.2085 50.4521 51.2191 50.4448 51.2296C49.2587 49.3915 47.7674 46.6198 47.01 43.4017C46.229 40.0837 47.6852 37.8346 48.3428 37.0242C49.063 36.1398 49.8681 35.6412 50.4669 35.4678L50.4669 30.7169ZM21.3751 64.3308C21.3751 64.9298 21.9035 65.9751 23.0661 66.8736L23.0602 66.8677C23.894 67.5078 26.178 68.8996 29.4719 68.0305C32.6659 67.1907 35.3962 65.6228 37.2046 64.3896C35.3022 63.1329 32.4604 61.5062 29.4073 60.6019C26.3776 59.7034 24.0642 61.0893 23.207 61.7294C22.0033 62.6279 21.3751 63.7318 21.3751 64.3308ZM33.3999 85.2366C34.4391 85.1015 37.0402 84.4673 38.7547 81.5252C40.4163 78.6712 41.2383 75.6352 41.6434 73.4859C39.4123 73.944 36.2534 74.8013 33.4527 76.3223C30.6696 77.8256 30.012 80.4447 29.8594 81.5017C29.648 82.9874 29.9709 84.203 30.4054 84.6376C30.7518 84.9841 31.5562 85.2894 32.6307 85.2894C32.8714 85.2894 33.1298 85.2718 33.3999 85.2366ZM30.0414 47.2363C30.1764 48.2758 30.8106 50.8772 33.7522 52.5919C36.6057 54.2538 39.6413 55.0759 41.7902 55.4811C41.3322 53.2496 40.475 50.0903 38.9543 47.2892C37.4512 44.5057 34.8325 43.848 33.7756 43.6953C32.2902 43.4838 31.0748 43.8068 30.6403 44.2414C30.2175 44.6642 29.8535 45.78 30.0414 47.2363Z" fill="#C55C2C"/>
<path d="M50.4669 59.6039C50.4478 59.6037 50.4287 59.6036 50.4095 59.6036C47.8143 59.6036 45.7006 61.7177 45.7006 64.3132C45.7006 66.9088 47.8143 69.0229 50.4095 69.0229C50.4287 69.0229 50.4478 69.0228 50.4669 69.0225L50.4669 59.6039Z" fill="#C55C2C"/>
<path fill-rule="evenodd" clip-rule="evenodd" d="M8.73981 192.102C8.73981 193.741 10.0726 195.08 11.7166 195.08C13.3607 195.08 14.6935 193.747 14.6935 192.102C14.6935 190.458 13.3607 189.125 11.7166 189.125C10.0726 189.125 8.73981 190.458 8.73981 192.102ZM13.437 192.102C13.437 193.054 12.662 193.823 11.7166 193.823C10.7713 193.823 9.99631 193.048 9.99631 192.102C9.99631 191.157 10.7713 190.382 11.7166 190.382C12.662 190.382 13.437 191.157 13.437 192.102Z" fill="#C55C2C"/>
<path d="M22.5143 219.544C22.5143 218.558 23.3134 217.759 24.2992 217.759C25.285 217.759 26.0841 218.558 26.0841 219.544C26.0841 220.53 25.285 221.329 24.2992 221.329C23.3134 221.329 22.5143 220.53 22.5143 219.544Z" fill="#C55C2C"/>
<path d="M26.501 165.677C27.2878 165.078 27.4405 163.962 26.8416 163.175C26.2427 162.388 25.1271 162.235 24.3403 162.834C23.5535 163.433 23.4009 164.549 23.9998 165.336C24.5987 166.123 25.7142 166.276 26.501 165.677Z" fill="#C55C2C"/>
<path fill-rule="evenodd" clip-rule="evenodd" d="M8.74001 575.47C8.74001 577.108 10.0728 578.447 11.7168 578.447C13.3609 578.447 14.6937 577.114 14.6937 575.47C14.6937 573.825 13.3609 572.492 11.7168 572.492C10.0728 572.492 8.74001 573.825 8.74001 575.47ZM13.4372 575.47C13.4372 576.421 12.6622 577.19 11.7168 577.19C10.7715 577.19 9.9965 576.415 9.9965 575.47C9.9965 574.524 10.7715 573.749 11.7168 573.749C12.6622 573.749 13.4372 574.524 13.4372 575.47Z" fill="#C55C2C"/>
<path d="M22.5145 602.911C22.5145 601.925 23.3136 601.126 24.2994 601.126C25.2852 601.126 26.0843 601.925 26.0843 602.911C26.0843 603.897 25.2852 604.696 24.2994 604.696C23.3136 604.696 22.5145 603.897 22.5145 602.911Z" fill="#C55C2C"/>
<path d="M26.5012 549.044C27.288 548.445 27.4407 547.329 26.8418 546.542C26.2429 545.755 25.1273 545.603 24.3405 546.202C23.5537 546.801 23.4011 547.916 24 548.703C24.5989 549.49 25.7144 549.643 26.5012 549.044Z" fill="#C55C2C"/>
<path fill-rule="evenodd" clip-rule="evenodd" d="M8.74001 447.681C8.74001 449.319 10.0728 450.658 11.7168 450.658C13.3609 450.658 14.6937 449.325 14.6937 447.681C14.6937 446.036 13.3609 444.703 11.7168 444.703C10.0728 444.703 8.74001 446.036 8.74001 447.681ZM13.4372 447.681C13.4372 448.632 12.6622 449.401 11.7168 449.401C10.7715 449.401 9.9965 448.626 9.9965 447.681C9.9965 446.735 10.7715 445.96 11.7168 445.96C12.6622 445.96 13.4372 446.735 13.4372 447.681Z" fill="#C55C2C"/>
<path d="M22.5145 475.122C22.5145 474.136 23.3136 473.337 24.2994 473.337C25.2852 473.337 26.0843 474.136 26.0843 475.122C26.0843 476.108 25.2852 476.907 24.2994 476.907C23.3136 476.907 22.5145 476.108 22.5145 475.122Z" fill="#C55C2C"/>
<path d="M26.5012 421.255C27.288 420.656 27.4407 419.54 26.8418 418.753C26.2429 417.966 25.1273 417.814 24.3405 418.413C23.5537 419.012 23.4011 420.127 24 420.914C24.5989 421.701 25.7144 421.854 26.5012 421.255Z" fill="#C55C2C"/>
<path fill-rule="evenodd" clip-rule="evenodd" d="M8.73981 319.891C8.73981 321.53 10.0726 322.869 11.7166 322.869C13.3607 322.869 14.6935 321.536 14.6935 319.891C14.6935 318.247 13.3607 316.914 11.7166 316.914C10.0726 316.914 8.73981 318.247 8.73981 319.891ZM13.437 319.891C13.437 320.843 12.662 321.612 11.7166 321.612C10.7713 321.612 9.99631 320.837 9.99631 319.891C9.99631 318.946 10.7713 318.171 11.7166 318.171C12.662 318.171 13.437 318.946 13.437 319.891Z" fill="#C55C2C"/>
<path d="M22.5143 347.333C22.5143 346.347 23.3134 345.548 24.2992 345.548C25.285 345.548 26.0841 346.347 26.0841 347.333C26.0841 348.319 25.285 349.118 24.2992 349.118C23.3134 349.118 22.5143 348.319 22.5143 347.333Z" fill="#C55C2C"/>
<path d="M26.501 293.466C27.2878 292.867 27.4405 291.751 26.8416 290.964C26.2427 290.177 25.1271 290.025 24.3403 290.624C23.5535 291.222 23.4009 292.338 23.9998 293.125C24.5987 293.912 25.7142 294.065 26.501 293.466Z" fill="#C55C2C"/>
<path fill-rule="evenodd" clip-rule="evenodd" d="M8.7397 64.3132C8.7397 65.9516 10.0725 67.2905 11.7165 67.2905C13.3605 67.2905 14.6934 65.9575 14.6934 64.3132C14.6934 62.6689 13.3605 61.3359 11.7165 61.3359C10.0725 61.3359 8.7397 62.6689 8.7397 64.3132ZM13.4369 64.3132C13.4369 65.2646 12.6618 66.0338 11.7165 66.0338C10.7712 66.0338 9.99619 65.2587 9.99619 64.3132C9.99619 63.3678 10.7712 62.5926 11.7165 62.5926C12.6618 62.5926 13.4369 63.3678 13.4369 64.3132Z" fill="#C55C2C"/>
<path d="M22.5142 91.7549C22.5142 90.7689 23.3133 89.9697 24.2991 89.9697C25.2849 89.9697 26.084 90.7689 26.084 91.7549C26.084 92.7408 25.2849 93.5401 24.2991 93.5401C23.3133 93.5401 22.5142 92.7408 22.5142 91.7549Z" fill="#C55C2C"/>
<path d="M26.5009 37.8875C27.2877 37.2885 27.4403 36.1727 26.8415 35.3858C26.2426 34.5989 25.127 34.4462 24.3402 35.0452C23.5534 35.6442 23.4008 36.7599 23.9997 37.5469C24.5986 38.3338 25.7141 38.4865 26.5009 37.8875Z" fill="#C55C2C"/>
</g>
</svg>
