<svg width="29" height="30" viewBox="0 0 29 30" fill="none" xmlns="http://www.w3.org/2000/svg">
<g clip-path="url(#clip0_50_2818)">
<path d="M29 15C29 6.71572 22.5081 0 14.5 0C6.49187 0 0 6.71572 0 15C0 22.4868 5.30241 28.6925 12.2344 29.8178V19.3359H8.55273V15H12.2344V11.6953C12.2344 7.93594 14.3992 5.85938 17.7112 5.85938C19.2972 5.85938 20.957 6.15234 20.957 6.15234V9.84375H19.1287C17.3275 9.84375 16.7656 11.0001 16.7656 12.1875V15H20.7871L20.1442 19.3359H16.7656V29.8178C23.6976 28.6925 29 22.4868 29 15Z" fill="#C55C2C"/>
</g>
<defs>
<clipPath id="clip0_50_2818">
<rect width="29" height="30" fill="white"/>
</clipPath>
</defs>
</svg>
