<svg width="31" height="30" viewBox="0 0 31 30" fill="none" xmlns="http://www.w3.org/2000/svg">
<g clip-path="url(#clip0_82_2257)">
<path d="M15.5 2.70117C19.6414 2.70117 20.1318 2.71875 21.7605 2.78906C23.2742 2.85352 24.0916 3.09961 24.6365 3.30469C25.357 3.57422 25.8777 3.90234 26.4166 4.42383C26.9615 4.95117 27.2945 5.44922 27.573 6.14648C27.785 6.67383 28.0393 7.4707 28.1059 8.92969C28.1785 10.5117 28.1967 10.9863 28.1967 14.9883C28.1967 18.9961 28.1785 19.4707 28.1059 21.0469C28.0393 22.5117 27.785 23.3027 27.573 23.8301C27.2945 24.5273 26.9555 25.0313 26.4166 25.5527C25.8717 26.0801 25.357 26.4023 24.6365 26.6719C24.0916 26.877 23.2682 27.123 21.7605 27.1875C20.1258 27.2578 19.6354 27.2754 15.5 27.2754C11.3586 27.2754 10.8682 27.2578 9.23945 27.1875C7.72578 27.123 6.9084 26.877 6.36348 26.6719C5.64297 26.4023 5.12227 26.0742 4.5834 25.5527C4.03848 25.0254 3.70547 24.5273 3.42695 23.8301C3.21504 23.3027 2.96074 22.5059 2.89414 21.0469C2.82148 19.4648 2.80332 18.9902 2.80332 14.9883C2.80332 10.9805 2.82148 10.5059 2.89414 8.92969C2.96074 7.46484 3.21504 6.67383 3.42695 6.14648C3.70547 5.44922 4.04453 4.94531 4.5834 4.42383C5.12832 3.89648 5.64297 3.57422 6.36348 3.30469C6.9084 3.09961 7.73184 2.85352 9.23945 2.78906C10.8682 2.71875 11.3586 2.70117 15.5 2.70117ZM15.5 0C11.292 0 10.7652 0.0175781 9.1123 0.0878906C7.46543 0.158203 6.3332 0.416016 5.35234 0.785156C4.3291 1.17187 3.46328 1.68164 2.60352 2.51953C1.7377 3.35156 1.21094 4.18945 0.811328 5.17383C0.429883 6.12891 0.163477 7.21875 0.0908203 8.8125C0.0181641 10.418 0 10.9277 0 15C0 19.0723 0.0181641 19.582 0.0908203 21.1816C0.163477 22.7754 0.429883 23.8711 0.811328 24.8203C1.21094 25.8105 1.7377 26.6484 2.60352 27.4805C3.46328 28.3125 4.3291 28.8281 5.34629 29.209C6.3332 29.5781 7.45937 29.8359 9.10625 29.9062C10.7592 29.9766 11.2859 29.9941 15.4939 29.9941C19.702 29.9941 20.2287 29.9766 21.8816 29.9062C23.5285 29.8359 24.6607 29.5781 25.6416 29.209C26.6588 28.8281 27.5246 28.3125 28.3844 27.4805C29.2441 26.6484 29.777 25.8105 30.1705 24.8262C30.552 23.8711 30.8184 22.7813 30.891 21.1875C30.9637 19.5879 30.9818 19.0781 30.9818 15.0059C30.9818 10.9336 30.9637 10.4238 30.891 8.82422C30.8184 7.23047 30.552 6.13477 30.1705 5.18555C29.7891 4.18945 29.2623 3.35156 28.3965 2.51953C27.5367 1.6875 26.6709 1.17188 25.6537 0.791016C24.6668 0.421875 23.5406 0.164062 21.8938 0.09375C20.2348 0.0175781 19.708 0 15.5 0Z" fill="#FFF8BD"/>
<path d="M15.5 7.29492C11.1043 7.29492 7.53809 10.7461 7.53809 15C7.53809 19.2539 11.1043 22.7051 15.5 22.7051C19.8957 22.7051 23.4619 19.2539 23.4619 15C23.4619 10.7461 19.8957 7.29492 15.5 7.29492ZM15.5 19.998C12.6482 19.998 10.3354 17.7598 10.3354 15C10.3354 12.2402 12.6482 10.002 15.5 10.002C18.3518 10.002 20.6646 12.2402 20.6646 15C20.6646 17.7598 18.3518 19.998 15.5 19.998Z" fill="#FFF8BD"/>
<path d="M25.6355 6.99018C25.6355 7.98627 24.8 8.78901 23.7768 8.78901C22.7475 8.78901 21.918 7.98041 21.918 6.99018C21.918 5.99408 22.7535 5.19135 23.7768 5.19135C24.8 5.19135 25.6355 5.99994 25.6355 6.99018Z" fill="#FFF8BD"/>
</g>
<defs>
<clipPath id="clip0_82_2257">
<rect width="31" height="30" fill="white"/>
</clipPath>
</defs>
</svg>
