<?xml version="1.0" encoding="utf-8"?>
<!-- Generator: Adobe Illustrator 28.0.0, SVG Export Plug-In . SVG Version: 6.00 Build 0)  -->
<svg version="1.1" id="Layer_1" xmlns="http://www.w3.org/2000/svg" xmlns:xlink="http://www.w3.org/1999/xlink" x="0px" y="0px"
	 viewBox="0 0 50.4 638.9" style="enable-background:new 0 0 50.4 638.9;" xml:space="preserve">
<style type="text/css">
	.st0{opacity:0.6;}
	.st1{fill:#C55C2C;}
	.st2{fill-rule:evenodd;clip-rule:evenodd;fill:#C55C2C;}
</style>
<g class="st0">
	<path class="st1" d="M34.6,557.3v-17.8H19c-1.6-7.3-7.3-13.1-14.4-15v-13.3H0v12.7h-0.1l0,4.7c7.6,0,14,6,14.8,13.5l0.2,2.1h15.1
		v15l0,2.2l2.1,0.2c7.5,0.9,13.2,7.3,13.2,14.8c0,7.6-5.9,14.1-13.5,14.9l-2.1,0.2v15.1H14.6l-2.2,0l-0.2,2.1
		c-0.8,6.7-5.9,11.9-12.3,13v4.8c0,0,0,0,0.1,0v12.6h4.7v-13.9c5.9-2.4,10.4-7.5,11.8-13.8h17.8v-15.6c8.9-1.9,15.6-9.9,15.6-19.2
		C49.9,567.2,43.5,559.3,34.6,557.3L34.6,557.3z"/>
	<path class="st1" d="M-0.1,17.4v-4.7H0L0,0h4.7v13.3c7.1,1.9,12.8,7.7,14.4,15h15.6v17.8h0c8.8,2,15.2,9.9,15.3,19.1
		c0,9.3-6.7,17.3-15.6,19.2v15.6H16.5c-1.5,6.4-6,11.5-11.8,13.8v13.9h0v13.3c7.1,1.9,12.8,7.7,14.4,15h15.6v17.8h0
		c8.8,2,15.2,9.9,15.3,19.1c0,9.3-6.7,17.3-15.6,19.2v15.6H16.5c-1.5,6.4-6,11.5-11.8,13.8v13.9h0v13.3c7.1,1.9,12.8,7.7,14.4,15
		h15.6v17.8h0c8.8,2,15.2,9.9,15.3,19.1c0,9.3-6.7,17.3-15.6,19.2v15.6H16.5c-1.5,6.4-6,11.5-11.8,13.8v13.9h0v13.3
		c7.1,1.9,12.8,7.7,14.4,15h15.6l0,17.8h0c8.8,2,15.2,9.9,15.3,19.1c0,9.3-6.7,17.3-15.6,19.2v15.6H16.5c-1.5,6.4-6,11.5-11.8,13.8
		v13.9H0l0-12.6c0,0,0,0-0.1,0v-4.8c6.4-1.1,11.5-6.3,12.3-13l0.2-2.1l2.2,0h14.9v-15.1l2.1-0.2c7.6-0.7,13.5-7.3,13.5-14.9
		c0-7.6-5.7-13.9-13.2-14.8l-2.1-0.2l0-2.2v-15H14.9l-0.2-2.1c-0.7-7.5-7.2-13.5-14.8-13.5V396H0v-12.7h0v-12.6c0,0,0,0-0.1,0l0-4.8
		c6.4-1.1,11.5-6.3,12.3-13l0.2-2.1l2.2,0h14.9v-15.1l2.1-0.2c7.6-0.7,13.5-7.3,13.5-14.9c0-7.6-5.7-13.9-13.2-14.8l-2.1-0.2l0-2.2
		v-15H14.9l-0.2-2.1C13.9,278.9,7.5,273-0.1,273v-4.7H0l0-12.7h0v-12.6c0,0,0,0-0.1,0v-4.8c6.4-1.1,11.5-6.3,12.3-13l0.2-2.1l2.2,0
		h14.9v-15.1l2.1-0.2c7.6-0.7,13.5-7.3,13.5-14.9c0-7.6-5.7-13.9-13.2-14.8L30,178l0-2.2v-15H14.9l-0.2-2.1
		c-0.7-7.5-7.2-13.5-14.8-13.5v-4.7H0l0-12.7h0v-12.7c0,0,0,0-0.1,0v-4.8c6.4-1.1,11.5-6.3,12.3-13l0.2-2.1l2.2,0h14.9V80.3l2.1-0.2
		c7.6-0.7,13.5-7.3,13.5-14.9c0-7.6-5.7-13.9-13.2-14.8L30,50.2l0-2.2V33H14.9l-0.2-2.1C13.9,23.3,7.5,17.4-0.1,17.4z"/>
	<path class="st1" d="M-0.1,68.7v-9.4c0,0,0,0,0.1,0c2.6,0,4.7,2.1,4.7,4.7S2.6,68.7-0.1,68.7C-0.1,68.7-0.1,68.7-0.1,68.7z"/>
	<path class="st2" d="M-0.1,69.6L-0.1,69.6l1.8,2C1.8,71.7,3,73,4.3,75.2c-0.7-2.7-0.9-4.7-0.9-4.9l-0.3-2.7l2.7,0.1l0,0
		c0.4,0,3,0.2,6.3,1.1c-2.6-1.6-4.3-3-4.4-3.1l-2.1-1.7l2-1.8c0.1-0.1,2-1.8,4.9-3.5c-3.5,1-6.2,1.2-6.4,1.3l-2.7,0.3l0.1-2.7
		c0-0.2,0.1-2.2,0.7-5c-1.4,2.2-2.5,3.6-2.6,3.8L0,58.4l-0.1-0.1v-7.3c1.3-1.9,2.9-4.7,3.8-7.8v0c0.9-3-0.5-5.3-1.1-6.2
		c-0.9-1.2-2-1.8-2.6-1.8c0,0,0,0,0,0v-4.7c0,0,0,0,0,0c2.2,0,4.6,1.4,6.4,3.7C8.3,36.7,9,39.9,8.5,43c2-2.5,4.8-4.2,7.9-4.6
		c2.8-0.4,5.3,0.4,6.9,1.9c1.6,1.6,2.3,4.3,1.9,7.1c-0.5,3.4-2.4,6.4-5.3,8.2c3.7-0.9,7.4-0.2,10.3,2c2.2,1.7,3.5,4,3.5,6.3
		c0,2.2-1.4,4.6-3.7,6.4c-2.1,1.6-4.5,2.4-7,2.4c-1,0-2-0.1-3-0.4c2.8,2,4.6,4.9,5,8.2c0.4,2.8-0.4,5.3-1.9,6.9
		c-1.3,1.3-3.3,2-5.5,2c-0.5,0-1.1,0-1.6-0.1c-3.2-0.5-6-2.2-7.9-4.8c0.6,3.5-0.2,7.1-2.4,9.7c-1.6,2-3.7,3.2-5.8,3.3v-4.8
		c0.6-0.2,1.4-0.7,2.1-1.6c0.7-0.8,2.1-3.1,1.3-6.4c-0.8-3.2-2.2-6-3.4-7.8c0,0,0,0,0,0L-0.1,69.6z M29,64c0-0.6-0.5-1.6-1.7-2.5
		l0,0c-0.8-0.6-3.1-2-6.4-1.2c-3.2,0.8-5.9,2.4-7.7,3.6c1.9,1.3,4.7,2.9,7.8,3.8c3,0.9,5.3-0.5,6.2-1.1C28.4,65.7,29,64.6,29,64z
		 M17,43.1c-1,0.1-3.6,0.8-5.4,3.7c-1.7,2.9-2.5,5.9-2.9,8c2.2-0.5,5.4-1.3,8.2-2.8c2.8-1.5,3.4-4.1,3.6-5.2
		c0.2-1.5-0.1-2.7-0.5-3.1c-0.3-0.3-1.2-0.7-2.2-0.7C17.5,43,17.2,43,17,43.1z M20.3,81.1c-0.1-1-0.8-3.6-3.7-5.4
		c-2.9-1.7-5.9-2.5-8-2.9c0.5,2.2,1.3,5.4,2.8,8.2c1.5,2.8,4.1,3.4,5.2,3.6c1.5,0.2,2.7-0.1,3.1-0.5C20.2,83.6,20.5,82.5,20.3,81.1z
		"/>
	<path class="st1" d="M-0.1,196.5v-9.4c0,0,0,0,0.1,0c2.6,0,4.7,2.1,4.7,4.7C4.7,194.4,2.6,196.5-0.1,196.5
		C-0.1,196.5-0.1,196.5-0.1,196.5z"/>
	<path class="st2" d="M-0.1,197.4L-0.1,197.4l1.8,2c0.1,0.1,1.2,1.4,2.6,3.6c-0.7-2.7-0.9-4.7-0.9-4.9l-0.3-2.7l2.7,0.1l0,0
		c0.4,0,3,0.2,6.3,1.1c-2.6-1.6-4.3-3-4.4-3.1l-2.1-1.7l2-1.8c0.1-0.1,2-1.8,4.9-3.5c-3.5,1-6.2,1.2-6.4,1.3L3.5,188l0.1-2.7
		c0-0.2,0.1-2.2,0.7-5c-1.4,2.2-2.5,3.6-2.6,3.8L0,186.2l-0.1-0.1l0-7.3c1.3-1.9,2.9-4.7,3.8-7.8v0c0.9-3-0.5-5.3-1.1-6.2
		c-0.9-1.2-2-1.8-2.6-1.8c0,0,0,0,0,0l0-4.7c0,0,0,0,0,0c2.2,0,4.6,1.4,6.4,3.7c1.9,2.6,2.7,5.8,2.2,8.9c2-2.5,4.8-4.2,7.9-4.6
		c2.8-0.4,5.3,0.4,6.9,1.9c1.6,1.6,2.3,4.3,1.9,7.1c-0.5,3.4-2.4,6.4-5.3,8.2c3.7-0.9,7.4-0.2,10.3,2c2.2,1.7,3.5,4,3.5,6.3
		c0,2.2-1.4,4.6-3.7,6.4c-2.1,1.6-4.5,2.4-7,2.4c-1,0-2-0.1-3-0.4c2.8,2,4.6,4.9,5,8.2c0.4,2.8-0.4,5.3-1.9,6.9
		c-1.3,1.3-3.3,2-5.5,2c-0.5,0-1.1,0-1.6-0.1c-3.2-0.5-6-2.2-7.9-4.8c0.6,3.5-0.2,7.1-2.4,9.7c-1.6,2-3.7,3.2-5.8,3.3v-4.8
		c0.6-0.2,1.4-0.7,2.1-1.6c0.7-0.8,2.1-3.1,1.3-6.4c-0.8-3.2-2.2-6-3.4-7.8c0,0,0,0,0,0V197.4z M29,191.8c0-0.6-0.5-1.6-1.7-2.5l0,0
		c-0.8-0.6-3.1-2-6.4-1.2c-3.2,0.8-5.9,2.4-7.7,3.6c1.9,1.3,4.7,2.9,7.8,3.8c3,0.9,5.3-0.5,6.2-1.1C28.4,193.5,29,192.4,29,191.8z
		 M17,170.9c-1,0.1-3.6,0.8-5.4,3.7c-1.7,2.9-2.5,5.9-2.9,8c2.2-0.5,5.4-1.3,8.2-2.8c2.8-1.5,3.4-4.1,3.6-5.2
		c0.2-1.5-0.1-2.7-0.5-3.1c-0.3-0.3-1.2-0.7-2.2-0.7C17.5,170.8,17.2,170.8,17,170.9z M20.3,208.9c-0.1-1-0.8-3.6-3.7-5.4
		c-2.9-1.7-5.9-2.5-8-2.9c0.5,2.2,1.3,5.4,2.8,8.2c1.5,2.8,4.1,3.4,5.2,3.6c1.5,0.2,2.7-0.1,3.1-0.5
		C20.2,211.4,20.5,210.3,20.3,208.9z"/>
	<path class="st1" d="M-0.1,324.3l0-9.4c0,0,0,0,0.1,0c2.6,0,4.7,2.1,4.7,4.7C4.7,322.2,2.6,324.3-0.1,324.3
		C-0.1,324.3-0.1,324.3-0.1,324.3z"/>
	<path class="st2" d="M-0.1,325.2L-0.1,325.2l1.8,2c0.1,0.1,1.2,1.4,2.6,3.6c-0.7-2.7-0.9-4.7-0.9-4.9l-0.3-2.7l2.7,0.1l0,0
		c0.4,0,3,0.2,6.3,1.1c-2.6-1.5-4.3-3-4.4-3.1l-2.1-1.7l2-1.8c0.1-0.1,2-1.8,4.9-3.5c-3.5,1-6.2,1.2-6.4,1.3l-2.7,0.3l0.1-2.7
		c0-0.2,0.1-2.2,0.7-5c-1.4,2.2-2.5,3.6-2.6,3.8L0,313.9l-0.1-0.1v-7.3c1.3-1.9,2.9-4.7,3.8-7.8v0c0.9-3-0.5-5.3-1.1-6.2
		c-0.9-1.2-2-1.8-2.6-1.8c0,0,0,0,0,0v-4.7c0,0,0,0,0,0c2.2,0,4.6,1.4,6.4,3.7c1.9,2.6,2.7,5.8,2.2,8.9c2-2.5,4.8-4.2,7.9-4.6
		c2.8-0.4,5.3,0.4,6.9,1.9c1.6,1.6,2.3,4.3,1.9,7.1c-0.5,3.4-2.4,6.4-5.3,8.2c3.7-0.9,7.4-0.2,10.3,2c2.2,1.7,3.5,4,3.5,6.3
		c0,2.2-1.4,4.6-3.7,6.4c-2.1,1.6-4.5,2.4-7,2.4c-1,0-2-0.1-3-0.4c2.8,2,4.6,4.9,5,8.2c0.4,2.8-0.4,5.4-1.9,6.9
		c-1.3,1.3-3.3,2-5.5,2c-0.5,0-1.1,0-1.6-0.1c-3.2-0.5-6-2.2-7.9-4.8c0.6,3.5-0.2,7.1-2.4,9.7c-1.6,2-3.7,3.2-5.8,3.3v-4.8
		c0.6-0.2,1.4-0.7,2.1-1.6c0.7-0.8,2.1-3.1,1.3-6.4c-0.8-3.2-2.2-6-3.4-7.8c0,0,0,0,0,0V325.2z M29,319.6c0-0.6-0.5-1.6-1.7-2.5l0,0
		c-0.8-0.6-3.1-2-6.4-1.2c-3.2,0.8-5.9,2.4-7.7,3.6c1.9,1.3,4.7,2.9,7.8,3.8c3,0.9,5.3-0.5,6.2-1.1C28.4,321.3,29,320.2,29,319.6z
		 M17,298.7c-1,0.1-3.6,0.8-5.4,3.7c-1.7,2.9-2.5,5.9-2.9,8c2.2-0.5,5.4-1.3,8.2-2.8c2.8-1.5,3.4-4.1,3.6-5.2
		c0.2-1.5-0.1-2.7-0.5-3.1c-0.3-0.3-1.2-0.7-2.2-0.7C17.5,298.6,17.2,298.6,17,298.7z M20.3,336.7c-0.1-1-0.8-3.6-3.7-5.4
		c-2.9-1.7-5.9-2.5-8-2.9c0.5,2.2,1.3,5.4,2.8,8.2c1.5,2.8,4.1,3.4,5.2,3.6c1.5,0.2,2.7-0.1,3.1-0.5
		C20.2,339.2,20.5,338.1,20.3,336.7z"/>
	<path class="st1" d="M-0.1,452.1v-9.4c0,0,0,0,0.1,0c2.6,0,4.7,2.1,4.7,4.7C4.7,450,2.6,452.1-0.1,452.1
		C-0.1,452.1-0.1,452.1-0.1,452.1z"/>
	<path class="st2" d="M-0.1,453L-0.1,453l1.8,2c0.1,0.1,1.2,1.4,2.6,3.6c-0.7-2.7-0.9-4.7-0.9-4.9L3.2,451l2.7,0.1l0,0
		c0.4,0,3,0.2,6.3,1.1c-2.6-1.5-4.3-3-4.4-3.1l-2.1-1.7l2-1.8c0.1-0.1,2-1.8,4.9-3.5c-3.5,1-6.2,1.2-6.4,1.3l-2.7,0.3l0.1-2.7
		c0-0.2,0.1-2.2,0.7-5c-1.4,2.2-2.5,3.6-2.6,3.8L0,441.7l-0.1-0.1l0-7.3c1.3-1.9,2.9-4.7,3.8-7.8v0c0.9-3-0.5-5.3-1.1-6.2
		c-0.9-1.2-2-1.8-2.6-1.8c0,0,0,0,0,0v-4.7c0,0,0,0,0,0c2.2,0,4.6,1.4,6.4,3.7c1.9,2.6,2.7,5.8,2.2,8.9c2-2.5,4.8-4.2,7.9-4.6
		c2.8-0.4,5.3,0.4,6.9,1.9c1.6,1.6,2.3,4.3,1.9,7.1c-0.5,3.4-2.4,6.4-5.3,8.2c3.7-0.9,7.4-0.2,10.3,2c2.2,1.7,3.5,4,3.5,6.3
		c0,2.2-1.4,4.6-3.7,6.4c-2.1,1.6-4.5,2.4-7,2.4c-1,0-2-0.1-3-0.4c2.8,2,4.6,4.9,5,8.2c0.4,2.8-0.4,5.4-1.9,6.9
		c-1.3,1.3-3.3,2-5.5,2c-0.5,0-1.1,0-1.6-0.1c-3.2-0.5-6-2.2-7.9-4.8c0.6,3.5-0.2,7.1-2.4,9.7c-1.6,2-3.7,3.2-5.8,3.3v-4.8
		c0.6-0.2,1.4-0.7,2.1-1.6c0.7-0.8,2.1-3.1,1.3-6.4c-0.8-3.2-2.2-6-3.4-7.8c0,0,0,0,0,0L-0.1,453z M29,447.3c0-0.6-0.5-1.6-1.7-2.5
		l0,0c-0.8-0.6-3.1-2-6.4-1.2c-3.2,0.8-5.9,2.4-7.7,3.6c1.9,1.3,4.7,2.9,7.8,3.8c3,0.9,5.3-0.5,6.2-1.1C28.4,449,29,447.9,29,447.3z
		 M17,426.4c-1,0.1-3.6,0.8-5.4,3.7c-1.7,2.9-2.5,5.9-2.9,8c2.2-0.5,5.4-1.3,8.2-2.8c2.8-1.5,3.4-4.1,3.6-5.2
		c0.2-1.5-0.1-2.7-0.5-3.1c-0.3-0.3-1.2-0.7-2.2-0.7C17.5,426.4,17.2,426.4,17,426.4z M20.3,464.4c-0.1-1-0.8-3.6-3.7-5.4
		c-2.9-1.7-5.9-2.5-8-2.9c0.5,2.2,1.3,5.4,2.8,8.2c1.5,2.8,4.1,3.4,5.2,3.6c1.5,0.2,2.7-0.1,3.1-0.5C20.2,467,20.5,465.9,20.3,464.4
		z"/>
	<path class="st2" d="M-0.1,608.7c2-0.2,4.2-1.4,5.8-3.3c2.2-2.7,3-6.2,2.4-9.7c1.8,2.6,4.6,4.3,7.9,4.8c0.5,0.1,1.1,0.1,1.6,0.1
		c2.2,0,4.2-0.7,5.5-2c1.6-1.6,2.3-4.2,1.9-6.9c-0.4-3.3-2.2-6.2-5-8.2c1,0.3,2,0.4,3,0.4c2.5,0,4.9-0.8,7-2.4
		c2.3-1.7,3.7-4.1,3.7-6.4c0-2.2-1.3-4.6-3.5-6.3c-2.9-2.2-6.6-2.9-10.3-2c2.9-1.8,4.8-4.8,5.3-8.2c0.4-2.9-0.3-5.5-1.9-7.1
		c-1.6-1.6-4.2-2.3-6.9-1.9c-3.1,0.4-5.9,2.1-7.9,4.6c0.5-3.1-0.2-6.3-2.2-8.9c-1.7-2.3-4.1-3.7-6.4-3.7c0,0,0,0,0,0v4.7
		c0,0,0,0,0,0c0.6,0,1.7,0.6,2.6,1.8c0.6,0.9,2,3.2,1.1,6.2v0c-0.9,3-2.5,5.9-3.8,7.8v7.3l0.1,0.1l1.7-2.1c0.1-0.1,1.3-1.5,2.6-3.8
		c-0.7,2.8-0.7,4.8-0.7,5l-0.1,2.7l2.7-0.3c0.2,0,2.9-0.3,6.4-1.3c-3,1.7-4.8,3.4-4.9,3.5l-2,1.8l2.1,1.7c0.1,0.1,1.8,1.5,4.4,3.1
		c-3.3-0.9-5.9-1.1-6.3-1.1l0,0l-2.7-0.1l0.3,2.7c0,0.2,0.2,2.2,0.9,4.9c-1.3-2.2-2.5-3.5-2.6-3.6l-1.8-2l-0.1,0.1v7.5c0,0,0,0,0,0
		c1.2,1.8,2.7,4.6,3.4,7.8c0.8,3.3-0.7,5.6-1.3,6.4c-0.7,0.9-1.5,1.4-2.1,1.6V608.7z M29,575.1c0-0.6-0.5-1.6-1.7-2.5l0,0
		c-0.8-0.6-3.1-2-6.4-1.2c-3.2,0.8-5.9,2.4-7.7,3.6c1.9,1.3,4.7,2.9,7.8,3.8c3,0.9,5.3-0.5,6.2-1.1C28.4,576.8,29,575.7,29,575.1z
		 M17,554.2c-1,0.1-3.6,0.8-5.4,3.7c-1.7,2.9-2.5,5.9-2.9,8c2.2-0.5,5.4-1.3,8.2-2.8c2.8-1.5,3.4-4.1,3.6-5.2
		c0.2-1.5-0.1-2.7-0.5-3.1c-0.3-0.3-1.2-0.7-2.2-0.7C17.5,554.2,17.2,554.2,17,554.2z M20.3,592.2c-0.1-1-0.8-3.6-3.7-5.4
		c-2.9-1.7-5.9-2.5-8-2.9c0.5,2.2,1.3,5.4,2.8,8.2c1.5,2.8,4.1,3.4,5.2,3.6c1.5,0.2,2.7-0.1,3.1-0.5
		C20.2,594.8,20.5,593.7,20.3,592.2z"/>
	<path class="st1" d="M-0.1,579.9C-0.1,579.9-0.1,579.9-0.1,579.9c2.7,0,4.8-2.1,4.8-4.7c0-2.6-2.1-4.7-4.7-4.7c0,0,0,0-0.1,0
		L-0.1,579.9z"/>
	<path class="st2" d="M41.6,447.4c0-1.6-1.3-3-3-3c-1.6,0-3,1.3-3,3c0,1.6,1.3,3,3,3C40.3,450.3,41.6,449,41.6,447.4z M36.9,447.4
		c0-1,0.8-1.7,1.7-1.7c0.9,0,1.7,0.8,1.7,1.7c0,0.9-0.8,1.7-1.7,1.7C37.7,449.1,36.9,448.3,36.9,447.4z"/>
	<path class="st1" d="M27.9,419.9c0,1-0.8,1.8-1.8,1.8c-1,0-1.8-0.8-1.8-1.8s0.8-1.8,1.8-1.8C27.1,418.1,27.9,418.9,27.9,419.9z"/>
	<path class="st1" d="M23.9,473.8c-0.8,0.6-0.9,1.7-0.3,2.5c0.6,0.8,1.7,0.9,2.5,0.3s0.9-1.7,0.3-2.5
		C25.8,473.3,24.7,473.2,23.9,473.8z"/>
	<path class="st2" d="M41.6,64c0-1.6-1.3-3-3-3s-3,1.3-3,3s1.3,3,3,3S41.6,65.6,41.6,64z M36.9,64c0-1,0.8-1.7,1.7-1.7
		s1.7,0.8,1.7,1.7c0,0.9-0.8,1.7-1.7,1.7S36.9,64.9,36.9,64z"/>
	<path class="st1" d="M27.9,36.6c0,1-0.8,1.8-1.8,1.8s-1.8-0.8-1.8-1.8c0-1,0.8-1.8,1.8-1.8S27.9,35.6,27.9,36.6z"/>
	<path class="st1" d="M23.9,90.4c-0.8,0.6-0.9,1.7-0.3,2.5c0.6,0.8,1.7,0.9,2.5,0.3c0.8-0.6,0.9-1.7,0.3-2.5
		C25.8,90,24.7,89.8,23.9,90.4z"/>
	<path class="st2" d="M41.6,191.8c0-1.6-1.3-3-3-3s-3,1.3-3,3s1.3,3,3,3C40.3,194.8,41.6,193.4,41.6,191.8z M36.9,191.8
		c0-1,0.8-1.7,1.7-1.7s1.7,0.8,1.7,1.7c0,0.9-0.8,1.7-1.7,1.7S36.9,192.7,36.9,191.8z"/>
	<path class="st1" d="M27.9,164.3c0,1-0.8,1.8-1.8,1.8s-1.8-0.8-1.8-1.8c0-1,0.8-1.8,1.8-1.8S27.9,163.4,27.9,164.3z"/>
	<path class="st1" d="M23.9,218.2c-0.8,0.6-0.9,1.7-0.3,2.5c0.6,0.8,1.7,0.9,2.5,0.3c0.8-0.6,0.9-1.7,0.3-2.5
		C25.8,217.8,24.7,217.6,23.9,218.2z"/>
	<path class="st2" d="M41.6,319.6c0-1.6-1.3-3-3-3c-1.6,0-3,1.3-3,3c0,1.6,1.3,3,3,3C40.3,322.6,41.6,321.2,41.6,319.6z M36.9,319.6
		c0-1,0.8-1.7,1.7-1.7c0.9,0,1.7,0.8,1.7,1.7c0,0.9-0.8,1.7-1.7,1.7C37.7,321.3,36.9,320.5,36.9,319.6z"/>
	<path class="st1" d="M27.9,292.1c0,1-0.8,1.8-1.8,1.8c-1,0-1.8-0.8-1.8-1.8s0.8-1.8,1.8-1.8C27.1,290.3,27.9,291.1,27.9,292.1z"/>
	<path class="st1" d="M23.9,346c-0.8,0.6-0.9,1.7-0.3,2.5c0.6,0.8,1.7,0.9,2.5,0.3s0.9-1.7,0.3-2.5C25.8,345.6,24.7,345.4,23.9,346z
		"/>
	<path class="st2" d="M41.6,575.2c0-1.6-1.3-3-3-3c-1.6,0-3,1.3-3,3s1.3,3,3,3C40.3,578.1,41.6,576.8,41.6,575.2z M36.9,575.2
		c0-1,0.8-1.7,1.7-1.7c0.9,0,1.7,0.8,1.7,1.7c0,0.9-0.8,1.7-1.7,1.7C37.7,576.9,36.9,576.1,36.9,575.2z"/>
	<path class="st1" d="M27.9,547.7c0,1-0.8,1.8-1.8,1.8s-1.8-0.8-1.8-1.8c0-1,0.8-1.8,1.8-1.8S27.9,546.7,27.9,547.7z"/>
	<path class="st1" d="M23.9,601.6c-0.8,0.6-0.9,1.7-0.3,2.5c0.6,0.8,1.7,0.9,2.5,0.3c0.8-0.6,0.9-1.7,0.3-2.5
		C25.8,601.1,24.7,601,23.9,601.6z"/>
</g>
</svg>
