<svg width="390" height="50" viewBox="0 0 390 50" fill="none" xmlns="http://www.w3.org/2000/svg">
<g opacity="0.6">
<path d="M557.255 15.2598H539.461V30.8721C532.15 32.4221 526.325 38.1233 524.463 45.2337H511.156V49.9309H523.835V50H528.533C528.582 42.4372 534.496 35.9537 542.039 35.2228L544.159 35.0173V19.9629H559.11L561.318 19.9453L561.565 17.8902C562.464 10.3806 568.835 4.70877 576.387 4.7029C583.986 4.70877 590.51 10.6448 591.25 18.2073L591.455 20.3269H606.512V35.2757L606.524 37.4833L608.585 37.7299C615.237 38.5243 620.437 43.606 621.553 50H626.304C626.301 49.9809 626.299 49.9617 626.296 49.9426H638.945V45.2454H625.051C622.691 39.3857 617.57 34.8823 611.21 33.4262V15.6356H595.596C593.705 6.72856 585.654 0.0174676 576.387 0.0115967C567.161 0.023342 559.275 6.44673 557.255 15.2716V15.2598Z" fill="#C55C2C"/>
<path d="M17.3767 50H12.6785V49.9312H0V45.234H13.3068C15.1684 38.1236 20.9938 32.4224 28.3049 30.8724V15.2601L46.0983 15.2601V15.2719C48.1184 6.44705 56.005 0.0236567 65.2305 0.0119113C74.4972 0.0177823 82.5482 6.72888 84.4391 15.6359H100.054V33.4265C106.414 34.8826 111.534 39.386 113.895 45.2457H127.789L127.789 45.234H141.096C142.957 38.1236 148.783 32.4224 156.094 30.8724V15.2601L173.887 15.2601V15.2719C175.907 6.44704 183.794 0.0236546 193.02 0.0119093C202.286 0.0177802 210.337 6.72887 212.228 15.6359H227.843V33.4265C234.203 34.8826 239.323 39.386 241.684 45.2457H255.578L255.578 45.2338H268.885C270.746 38.1235 276.572 32.4222 283.883 30.8722V15.2599H301.676V15.2717C303.697 6.44685 311.583 0.023458 320.809 0.0117127C330.075 0.0175836 338.126 6.72868 340.017 15.6357H355.632V33.4263C361.992 34.8824 367.112 39.3858 369.473 45.2455H383.367L383.367 45.2338H396.674C398.536 38.1234 404.361 32.4222 411.672 30.8722V15.2599H429.465V15.2717C431.486 6.44685 439.372 0.023456 448.598 0.0117107C457.864 0.0175816 465.915 6.72868 467.806 15.6357H483.421V33.4263C489.781 34.8824 494.901 39.3858 497.262 45.2455H511.156V49.9427H498.507C498.51 49.9618 498.512 49.9809 498.515 50H493.763C492.648 43.606 487.447 38.5244 480.796 37.7301L478.735 37.4835L478.723 35.2758V20.327H463.666L463.461 18.2074C462.721 10.645 456.197 4.70889 448.598 4.70302C441.046 4.70889 434.674 10.3807 433.776 17.8904L433.529 19.9454L431.321 19.963H416.37V35.0174L414.25 35.2229C406.706 35.9538 400.793 42.4372 400.744 50H396.046V49.931H383.367L383.367 49.9427H370.718C370.721 49.9618 370.723 49.9809 370.726 50H365.974C364.859 43.606 359.658 38.5244 353.007 37.7301L350.946 37.4835L350.934 35.2758V20.327H335.877L335.672 18.2074C334.932 10.645 328.408 4.70889 320.809 4.70302C313.257 4.70889 306.885 10.3807 305.987 17.8904L305.74 19.9454L303.532 19.963H288.581V35.0174L286.461 35.2229C278.917 35.9538 273.004 42.4372 272.955 50H268.257V49.931H255.578L255.578 49.9429H242.929C242.932 49.9619 242.934 49.981 242.937 50H238.185C237.07 43.6061 231.869 38.5246 225.218 37.7303L223.157 37.4837L223.145 35.276V20.3272H208.088L207.883 18.2076C207.143 10.6451 200.618 4.70909 193.02 4.70322C185.468 4.70909 179.096 10.3809 178.198 17.8905L177.951 19.9456L175.743 19.9632H160.792V35.0176L158.672 35.2231C151.128 35.954 145.215 42.4373 145.166 50H140.468V49.9312L127.789 49.9312L127.789 49.9429H115.14C115.143 49.9619 115.145 49.981 115.148 50H110.396C109.281 43.6061 104.08 38.5246 97.4288 37.7303L95.3676 37.4837L95.3559 35.276V20.3272H80.2991L80.0935 18.2076C79.3536 10.6452 72.8294 4.70909 65.2305 4.70322C57.6786 4.70909 51.3071 10.3809 50.4086 17.8906L50.162 19.9456L47.9539 19.9632H33.0028V35.0176L30.8829 35.2231C23.3393 35.954 17.4262 42.4373 17.3767 50Z" fill="#C55C2C"/>
<path d="M68.7066 50H59.288C59.2878 49.981 59.2877 49.962 59.2877 49.9429C59.2877 47.3477 61.4017 45.234 63.9973 45.234C66.5929 45.234 68.707 47.3477 68.707 49.9429C68.707 49.962 68.7069 49.981 68.7066 50Z" fill="#C55C2C"/>
<path fill-rule="evenodd" clip-rule="evenodd" d="M69.6229 50L69.5643 49.9488L71.5786 48.1815C71.6843 48.0875 73.0056 46.9426 75.1725 45.6157C72.4477 46.2733 70.4452 46.4729 70.2925 46.4846L67.6264 46.7371L67.7263 44.0597L67.7287 44.0186C67.7504 43.6311 67.8951 41.0484 68.8185 37.7244C67.2682 40.3255 65.8647 42.0399 65.759 42.1632L64.0502 44.2241L62.2297 42.263C62.1123 42.1397 60.421 40.2844 58.6945 37.3134C59.6694 40.7717 59.9395 43.5137 59.9571 43.6957L60.2096 46.3613L57.5318 46.2615C57.3791 46.2556 55.359 46.1676 52.552 45.5158C54.7659 46.8956 56.1929 48.0641 56.3045 48.158L58.3657 49.8666L58.2219 50H50.8786C48.9761 48.7462 46.1473 47.1318 43.1092 46.2322H43.1033C40.0732 45.3279 37.7595 46.7136 36.9021 47.3536C35.6983 48.2519 35.0699 49.3558 35.0699 49.9547C35.0699 49.9695 35.0702 49.9846 35.0709 50H30.3545C30.3544 49.9868 30.3544 49.9737 30.3544 49.9605C30.3544 47.7118 31.7461 45.3338 34.0775 43.5959C36.6848 41.6465 39.8735 40.8832 43.0035 41.4058C40.4549 39.4447 38.8048 36.6558 38.3996 33.5439C38.0413 30.7784 38.7637 28.195 40.3375 26.6214C41.923 25.0303 44.5891 24.3316 47.4665 24.7484C50.896 25.2475 53.8322 27.1499 55.6644 30.0093C54.7542 26.3337 55.4882 22.5995 57.6962 19.7342C59.3992 17.5265 61.713 16.2113 63.9621 16.2113C66.2112 16.2113 68.5895 17.597 70.3278 19.9279C71.8781 22.0064 72.6826 24.4431 72.6826 26.9326C72.6826 27.9425 72.5475 28.9524 72.2774 29.9564C74.2505 27.1616 77.175 25.3473 80.4635 24.9187C83.2294 24.5605 85.8132 25.2827 87.387 26.8563C88.6731 28.1421 89.3778 30.1326 89.3778 32.3696C89.3778 32.8922 89.3425 33.4382 89.2603 33.9843C88.7964 37.2018 87.0875 39.9908 84.5096 41.8344C88.0506 41.1944 91.5682 42.0575 94.2519 44.2417C96.2215 45.8446 97.4368 47.9571 97.5936 50H92.8426C92.6692 49.4012 92.1706 48.5962 91.2863 47.8762C90.4759 47.2186 88.2268 45.7624 84.9089 46.5433C81.6908 47.3008 78.9191 48.7921 77.081 49.9782C77.0914 49.9854 77.1018 49.9927 77.1122 50H69.6229ZM63.9797 20.9085C63.3807 20.9085 62.3354 21.4369 61.437 22.5995L61.4428 22.5936C60.8027 23.4273 59.411 25.7114 60.2801 29.0052C61.1198 32.1993 62.6878 34.9296 63.921 36.738C65.1777 34.8356 66.8043 31.9938 67.7087 28.9407C68.6071 25.911 67.2213 23.5976 66.5812 22.7404C65.6827 21.5367 64.5787 20.9085 63.9797 20.9085ZM43.074 32.9333C43.209 33.9725 43.8433 36.5736 46.7853 38.288C49.6393 39.9497 52.6753 40.7717 54.8246 41.1768C54.3666 38.9457 53.5092 35.7868 51.9883 32.9861C50.4849 30.203 47.8659 29.5454 46.8088 29.3928C45.3231 29.1814 44.1075 29.5043 43.673 29.9388C43.3265 30.2852 43.0211 31.0896 43.0211 32.1641C43.0211 32.4048 43.0388 32.6632 43.074 32.9333ZM81.0742 29.5748C80.0348 29.7098 77.4333 30.3439 75.7186 33.2856C74.0567 36.1391 73.2346 39.1746 72.8294 41.3236C75.0609 40.8656 78.2202 40.0084 81.0214 38.4877C83.8049 36.9846 84.4626 34.3659 84.6153 33.309C84.8267 31.8236 84.5037 30.6082 84.0691 30.1737C83.6463 29.7509 82.5306 29.3869 81.0742 29.5748Z" fill="#C55C2C"/>
<path d="M196.496 50H187.077C187.077 49.981 187.077 49.962 187.077 49.9429C187.077 47.3477 189.191 45.234 191.786 45.234C194.382 45.234 196.496 47.3477 196.496 49.9429C196.496 49.962 196.496 49.981 196.496 50Z" fill="#C55C2C"/>
<path fill-rule="evenodd" clip-rule="evenodd" d="M197.412 50L197.353 49.9488L199.368 48.1815C199.473 48.0875 200.795 46.9426 202.962 45.6156C200.237 46.2733 198.234 46.4729 198.082 46.4846L195.416 46.7371L195.515 44.0597L195.518 44.0185C195.539 43.6307 195.684 41.0482 196.608 37.7244C195.057 40.3255 193.654 42.0399 193.548 42.1632L191.839 44.2241L190.019 42.263C189.901 42.1397 188.21 40.2843 186.484 37.3134C187.458 40.7717 187.729 43.5137 187.746 43.6957L187.999 46.3613L185.321 46.2615C185.168 46.2556 183.148 46.1676 180.341 45.5158C182.555 46.8956 183.982 48.0641 184.094 48.158L186.155 49.8666L186.011 50H178.668C176.765 48.7462 173.936 47.1317 170.898 46.2322H170.892C167.862 45.3279 165.549 46.7136 164.691 47.3536C163.487 48.2519 162.859 49.3558 162.859 49.9547C162.859 49.9695 162.859 49.9846 162.86 50H158.144C158.143 49.9868 158.143 49.9737 158.143 49.9605C158.143 47.7118 159.535 45.3338 161.867 43.5959C164.474 41.6465 167.663 40.8832 170.793 41.4058C168.244 39.4447 166.594 36.6558 166.189 33.5439C165.83 30.7784 166.553 28.195 168.127 26.6214C169.712 25.0303 172.378 24.3316 175.256 24.7484C178.685 25.2475 181.621 27.1499 183.453 30.0093C182.543 26.3337 183.277 22.5995 185.485 19.7342C187.188 17.5265 189.502 16.2113 191.751 16.2113C194 16.2113 196.379 17.597 198.117 19.9279C199.667 22.0064 200.472 24.4431 200.472 26.9326C200.472 27.9425 200.337 28.9524 200.066 29.9564C202.04 27.1616 204.964 25.3473 208.253 24.9187C211.018 24.5605 213.602 25.2827 215.176 26.8563C216.462 28.1421 217.167 30.1326 217.167 32.3696C217.167 32.8922 217.132 33.4382 217.049 33.9843C216.585 37.2018 214.877 39.9908 212.299 41.8344C215.84 41.1944 219.357 42.0575 222.041 44.2417C224.011 45.8446 225.226 47.9571 225.383 50H220.632C220.458 49.4012 219.96 48.5962 219.075 47.8762C218.265 47.2186 216.016 45.7624 212.698 46.5433C209.48 47.3008 206.708 48.7921 204.87 49.9782C204.88 49.9854 204.891 49.9927 204.901 50H197.412ZM191.769 20.9085C191.17 20.9085 190.124 21.4369 189.226 22.5995L189.232 22.5936C188.592 23.4273 187.2 25.7113 188.069 29.0052C188.909 32.1993 190.477 34.9296 191.71 36.738C192.967 34.8356 194.593 31.9938 195.498 28.9407C196.396 25.911 195.01 23.5976 194.37 22.7404C193.472 21.5367 192.368 20.9085 191.769 20.9085ZM170.863 32.9333C170.998 33.9725 171.632 36.5736 174.574 38.288C177.428 39.9497 180.464 40.7717 182.614 41.1768C182.156 38.9457 181.298 35.7868 179.777 32.9861C178.274 30.203 175.655 29.5454 174.598 29.3928C173.112 29.1814 171.897 29.5043 171.462 29.9388C171.116 30.2852 170.81 31.0896 170.81 32.1641C170.81 32.4048 170.828 32.6632 170.863 32.9333ZM208.863 29.5748C207.824 29.7098 205.222 30.3439 203.508 33.2856C201.846 36.1391 201.024 39.1746 200.618 41.3236C202.85 40.8656 206.009 40.0084 208.81 38.4877C211.594 36.9846 212.252 34.3659 212.404 33.309C212.616 31.8236 212.293 30.6082 211.858 30.1737C211.435 29.7509 210.32 29.3869 208.863 29.5748Z" fill="#C55C2C"/>
<path d="M324.285 50H314.866C314.866 49.9809 314.866 49.9618 314.866 49.9427C314.866 47.3475 316.98 45.2338 319.575 45.2338C322.171 45.2338 324.285 47.3475 324.285 49.9427C324.285 49.9618 324.285 49.9809 324.285 50Z" fill="#C55C2C"/>
<path fill-rule="evenodd" clip-rule="evenodd" d="M325.201 50L325.142 49.9486L327.157 48.1813C327.262 48.0873 328.584 46.9424 330.751 45.6155C328.026 46.2731 326.023 46.4727 325.871 46.4844L323.205 46.7369L323.304 44.0595L323.307 44.0183C323.329 43.6274 323.474 41.0454 324.397 37.7242C322.846 40.3253 321.443 42.0397 321.337 42.163L319.628 44.2239L317.808 42.2628C317.69 42.1395 315.999 40.2842 314.273 37.3132C315.247 40.7715 315.518 43.5135 315.535 43.6955L315.788 46.3611L313.11 46.2613C312.957 46.2554 310.937 46.1674 308.13 45.5156C310.344 46.8954 311.771 48.0639 311.883 48.1578L313.944 49.8664L313.8 50H306.457C304.555 48.7462 301.726 47.1316 298.687 46.232H298.681C295.651 45.3278 293.338 46.7134 292.48 47.3534C291.276 48.2517 290.648 49.3556 290.648 49.9545C290.648 49.9694 290.648 49.9846 290.649 50H285.933C285.933 49.9868 285.933 49.9736 285.933 49.9603C285.933 47.7116 287.324 45.3336 289.656 43.5957C292.263 41.6463 295.452 40.883 298.582 41.4056C296.033 39.4445 294.383 36.6556 293.978 33.5437C293.619 30.7782 294.342 28.1948 295.916 26.6212C297.501 25.0301 300.167 24.3314 303.045 24.7482C306.474 25.2473 309.41 27.1497 311.243 30.0091C310.332 26.3335 311.066 22.5993 313.274 19.734C314.977 17.5263 317.291 16.2111 319.54 16.2111C321.789 16.2111 324.168 17.5968 325.906 19.9278C327.456 22.0063 328.261 24.4429 328.261 26.9324C328.261 27.9423 328.126 28.9522 327.855 29.9562C329.829 27.1614 332.753 25.3471 336.042 24.9185C338.808 24.5603 341.391 25.2825 342.965 26.8561C344.251 28.1419 344.956 30.1324 344.956 32.3694C344.956 32.892 344.921 33.438 344.838 33.9841C344.375 37.2016 342.666 39.9906 340.088 41.8342C343.629 41.1942 347.146 42.0573 349.83 44.2415C351.8 45.8444 353.015 47.9571 353.172 50H348.421C348.247 49.4012 347.749 48.5961 346.864 47.876C346.054 47.2184 343.805 45.7622 340.487 46.5431C337.269 47.3006 334.497 48.7919 332.659 49.978C332.67 49.9853 332.68 49.9926 332.691 50H325.201ZM319.558 20.9083C318.959 20.9083 317.914 21.4367 317.015 22.5993L317.021 22.5934C316.381 23.4271 314.989 25.7112 315.858 29.0051C316.698 32.1991 318.266 34.9294 319.499 36.7378C320.756 34.8354 322.382 31.9936 323.287 28.9405C324.185 25.9108 322.799 23.5974 322.159 22.7402C321.261 21.5365 320.157 20.9083 319.558 20.9083ZM298.652 32.9331C298.787 33.9723 299.421 36.5734 302.363 38.2878C305.217 39.9495 308.253 40.7715 310.403 41.1766C309.945 38.9455 309.087 35.7866 307.566 32.9859C306.063 30.2028 303.444 29.5452 302.387 29.3926C300.901 29.1812 299.686 29.5041 299.251 29.9386C298.905 30.285 298.599 31.0894 298.599 32.1639C298.599 32.4046 298.617 32.663 298.652 32.9331ZM336.652 29.5746C335.613 29.7096 333.011 30.3437 331.297 33.2854C329.635 36.1389 328.813 39.1744 328.408 41.3234C330.639 40.8654 333.798 40.0082 336.599 38.4875C339.383 36.9844 340.041 34.3657 340.193 33.3088C340.405 31.8234 340.082 30.608 339.647 30.1735C339.224 29.7507 338.109 29.3867 336.652 29.5746Z" fill="#C55C2C"/>
<path d="M452.074 50H442.655C442.655 49.9809 442.655 49.9618 442.655 49.9427C442.655 47.3475 444.769 45.2338 447.365 45.2338C449.96 45.2338 452.074 47.3475 452.074 49.9427C452.074 49.9618 452.074 49.9809 452.074 50Z" fill="#C55C2C"/>
<path fill-rule="evenodd" clip-rule="evenodd" d="M452.99 50L452.932 49.9486L454.946 48.1813C455.051 48.0873 456.373 46.9424 458.54 45.6154C455.815 46.2731 453.812 46.4727 453.66 46.4844L450.994 46.7369L451.093 44.0595L451.096 44.0183C451.118 43.6274 451.263 41.0454 452.186 37.7242C450.635 40.3253 449.232 42.0397 449.126 42.163L447.417 44.2239L445.597 42.2628C445.479 42.1395 443.788 40.2841 442.062 37.3132C443.037 40.7715 443.307 43.5135 443.324 43.6955L443.577 46.3611L440.899 46.2613C440.746 46.2554 438.726 46.1674 435.919 45.5156C438.133 46.8954 439.56 48.0639 439.672 48.1578L441.733 49.8664L441.589 50H434.246C432.344 48.7462 429.515 47.1316 426.476 46.232H426.471C423.44 45.3277 421.127 46.7134 420.269 47.3534C419.065 48.2517 418.437 49.3556 418.437 49.9545C418.437 49.9694 418.437 49.9846 418.438 50H413.722C413.722 49.9868 413.722 49.9736 413.722 49.9603C413.722 47.7116 415.113 45.3336 417.445 43.5957C420.052 41.6463 423.241 40.883 426.371 41.4056C423.822 39.4445 422.172 36.6556 421.767 33.5437C421.409 30.7782 422.131 28.1948 423.705 26.6212C425.29 25.0301 427.956 24.3314 430.834 24.7482C434.263 25.2473 437.199 27.1497 439.032 30.0091C438.121 26.3335 438.855 22.5993 441.063 19.734C442.766 17.5263 445.08 16.2111 447.329 16.2111C449.578 16.2111 451.957 17.5968 453.695 19.9277C455.245 22.0062 456.05 24.4429 456.05 26.9324C456.05 27.9423 455.915 28.9522 455.645 29.9562C457.618 27.1614 460.542 25.3471 463.831 24.9185C466.597 24.5603 469.18 25.2825 470.754 26.8561C472.04 28.1419 472.745 30.1324 472.745 32.3694C472.745 32.892 472.71 33.438 472.628 33.9841C472.164 37.2016 470.455 39.9906 467.877 41.8342C471.418 41.1942 474.935 42.0573 477.619 44.2415C479.589 45.8444 480.804 47.9571 480.961 50H476.21C476.036 49.4012 475.538 48.5961 474.654 47.876C473.843 47.2184 471.594 45.7622 468.276 46.5431C465.058 47.3006 462.286 48.7919 460.448 49.978C460.459 49.9853 460.469 49.9926 460.48 50H452.99ZM447.347 20.9083C446.748 20.9083 445.703 21.4367 444.804 22.5993L444.81 22.5934C444.17 23.4271 442.778 25.7112 443.647 29.005C444.487 32.1991 446.055 34.9294 447.288 36.7378C448.545 34.8354 450.172 31.9936 451.076 28.9405C451.974 25.9108 450.588 23.5974 449.948 22.7402C449.05 21.5365 447.946 20.9083 447.347 20.9083ZM426.441 32.9331C426.576 33.9723 427.21 36.5734 430.153 38.2878C433.007 39.9495 436.043 40.7715 438.192 41.1766C437.734 38.9454 436.876 35.7866 435.355 32.9859C433.852 30.2028 431.233 29.5452 430.176 29.3926C428.69 29.1812 427.475 29.5041 427.04 29.9386C426.694 30.285 426.388 31.0894 426.388 32.1639C426.388 32.4046 426.406 32.663 426.441 32.9331ZM464.441 29.5746C463.402 29.7096 460.801 30.3437 459.086 33.2854C457.424 36.1389 456.602 39.1744 456.197 41.3234C458.428 40.8654 461.587 40.0082 464.389 38.4875C467.172 36.9844 467.83 34.3657 467.982 33.3088C468.194 31.8234 467.871 30.608 467.436 30.1735C467.014 29.7507 465.898 29.3867 464.441 29.5746Z" fill="#C55C2C"/>
<path fill-rule="evenodd" clip-rule="evenodd" d="M608.75 50C608.593 47.957 607.378 45.8443 605.408 44.2414C602.725 42.0572 599.207 41.1941 595.666 41.8341C598.244 39.9905 599.953 37.2015 600.417 33.9839C600.499 33.4379 600.534 32.8918 600.534 32.3693C600.534 30.1323 599.829 28.1418 598.543 26.856C596.97 25.2824 594.386 24.5602 591.62 24.9184C588.331 25.347 585.407 27.1613 583.434 29.9561C583.704 28.9521 583.839 27.9422 583.839 26.9323C583.839 24.4428 583.034 22.0061 581.484 19.9276C579.746 17.5967 577.368 16.211 575.118 16.211C572.869 16.211 570.556 17.5262 568.853 19.7339C566.645 22.5992 565.911 26.3334 566.821 30.009C564.989 27.1495 562.052 25.2472 558.623 24.7481C555.745 24.3312 553.079 25.0299 551.494 26.6211C549.92 28.1947 549.198 30.7781 549.556 33.5436C549.961 36.6555 551.611 39.4444 554.16 41.4055C551.03 40.8829 547.841 41.6462 545.234 43.5955C542.903 45.3335 541.511 47.7114 541.511 49.9602C541.511 49.9735 541.511 49.9867 541.511 50H546.227C546.227 49.9845 546.226 49.9693 546.226 49.9544C546.226 49.3555 546.855 48.2516 548.058 47.3533C548.916 46.7133 551.23 45.3276 554.26 46.2318H554.266C557.304 47.1315 560.133 48.7461 562.035 50H569.378L569.522 49.8663L567.461 48.1577C567.349 48.0637 565.922 46.8953 563.708 45.5155C566.515 46.1673 568.535 46.2553 568.688 46.2612L571.366 46.361L571.113 43.6954C571.096 43.5133 570.826 40.7714 569.851 37.3131C571.577 40.284 573.269 42.1394 573.386 42.2627L575.207 44.2238L576.915 42.1629C577.021 42.0396 578.425 40.3251 579.975 37.7241C579.051 41.0487 578.907 43.6317 578.885 44.0185L578.883 44.0594L578.783 46.7368L581.449 46.4843C581.602 46.4726 583.604 46.2729 586.329 45.6153C584.162 46.9423 582.841 48.0872 582.735 48.1812L580.721 49.9485L580.78 50H588.269C588.258 49.9926 588.248 49.9852 588.237 49.9778C590.075 48.7918 592.847 47.3004 596.065 46.543C599.383 45.7621 601.632 47.2182 602.443 47.8759C603.327 48.596 603.826 49.4011 603.999 50H608.75ZM575.136 20.9082C574.537 20.9082 573.492 21.4366 572.593 22.5992L572.599 22.5933C571.959 23.427 570.567 25.711 571.436 29.0049C572.276 32.199 573.844 34.9293 575.077 36.7377C576.334 34.8353 577.961 31.9935 578.865 28.9403C579.764 25.9107 578.378 23.5973 577.738 22.7401C576.839 21.5364 575.735 20.9082 575.136 20.9082ZM554.23 32.9329C554.365 33.9722 555 36.5733 557.942 38.2877C560.796 39.9494 563.832 40.7714 565.981 41.1765C565.523 38.9453 564.666 35.7865 563.145 32.9858C561.641 30.2027 559.022 29.5451 557.965 29.3925C556.479 29.1811 555.264 29.504 554.829 29.9385C554.483 30.2849 554.178 31.0893 554.178 32.1638C554.178 32.4045 554.195 32.6629 554.23 32.9329ZM592.231 29.5745C591.191 29.7095 588.59 30.3436 586.875 33.2852C585.213 36.1388 584.391 39.1743 583.986 41.3233C586.217 40.8653 589.377 40.0081 592.178 38.4874C594.961 36.9843 595.619 34.3656 595.772 33.3087C595.983 31.8232 595.66 30.6078 595.226 30.1734C594.803 29.7506 593.687 29.3866 592.231 29.5745Z" fill="#C55C2C"/>
<path d="M579.863 50C579.863 49.9809 579.863 49.9618 579.863 49.9426C579.863 47.3474 577.749 45.2337 575.154 45.2337C572.558 45.2337 570.444 47.3474 570.444 49.9426C570.444 49.9618 570.444 49.9809 570.444 50H579.863Z" fill="#C55C2C"/>
<path fill-rule="evenodd" clip-rule="evenodd" d="M447.365 8.27289C445.726 8.27289 444.387 9.60571 444.387 11.2497C444.387 12.8937 445.72 14.2266 447.365 14.2266C449.009 14.2266 450.342 12.8937 450.342 11.2497C450.342 9.60571 449.009 8.27289 447.365 8.27289ZM447.365 12.9701C446.413 12.9701 445.644 12.195 445.644 11.2497C445.644 10.3044 446.419 9.52938 447.365 9.52938C448.31 9.52938 449.085 10.3044 449.085 11.2497C449.085 12.195 448.31 12.9701 447.365 12.9701Z" fill="#C55C2C"/>
<path d="M419.923 22.0474C420.909 22.0474 421.708 22.8465 421.708 23.8323C421.708 24.8181 420.909 25.6172 419.923 25.6172C418.937 25.6172 418.138 24.8181 418.138 23.8323C418.138 22.8465 418.937 22.0474 419.923 22.0474Z" fill="#C55C2C"/>
<path d="M473.79 26.0341C474.389 26.8209 475.505 26.9735 476.292 26.3746C477.079 25.7758 477.231 24.6602 476.632 23.8734C476.034 23.0866 474.918 22.934 474.131 23.5328C473.344 24.1317 473.191 25.2473 473.79 26.0341Z" fill="#C55C2C"/>
<path fill-rule="evenodd" clip-rule="evenodd" d="M63.9973 8.27309C62.3589 8.27309 61.02 9.60591 61.02 11.2499C61.02 12.8939 62.353 14.2268 63.9973 14.2268C65.6416 14.2268 66.9746 12.8939 66.9746 11.2499C66.9746 9.60591 65.6416 8.27309 63.9973 8.27309ZM63.9973 12.9703C63.046 12.9703 62.2767 12.1952 62.2767 11.2499C62.2767 10.3046 63.0519 9.52958 63.9973 9.52958C64.9428 9.52958 65.7179 10.3046 65.7179 11.2499C65.7179 12.1952 64.9428 12.9703 63.9973 12.9703Z" fill="#C55C2C"/>
<path d="M36.5556 22.0476C37.5416 22.0476 38.3408 22.8467 38.3408 23.8325C38.3408 24.8183 37.5416 25.6174 36.5556 25.6174C35.5697 25.6174 34.7704 24.8183 34.7704 23.8325C34.7704 22.8467 35.5697 22.0476 36.5556 22.0476Z" fill="#C55C2C"/>
<path d="M90.4231 26.0343C91.022 26.8211 92.1378 26.9737 92.9247 26.3748C93.7116 25.776 93.8643 24.6604 93.2653 23.8736C92.6663 23.0868 91.5506 22.9342 90.7637 23.5331C89.9768 24.1319 89.8241 25.2475 90.4231 26.0343Z" fill="#C55C2C"/>
<path fill-rule="evenodd" clip-rule="evenodd" d="M191.786 8.27309C190.148 8.27309 188.809 9.60591 188.809 11.2499C188.809 12.8939 190.142 14.2268 191.786 14.2268C193.431 14.2268 194.764 12.8939 194.764 11.2499C194.764 9.60591 193.431 8.27309 191.786 8.27309ZM191.786 12.9703C190.835 12.9703 190.066 12.1952 190.066 11.2499C190.066 10.3046 190.841 9.52958 191.786 9.52958C192.732 9.52958 193.507 10.3046 193.507 11.2499C193.507 12.1952 192.732 12.9703 191.786 12.9703Z" fill="#C55C2C"/>
<path d="M164.345 22.0476C165.331 22.0476 166.13 22.8467 166.13 23.8325C166.13 24.8183 165.331 25.6174 164.345 25.6174C163.359 25.6174 162.559 24.8183 162.559 23.8325C162.559 22.8467 163.359 22.0476 164.345 22.0476Z" fill="#C55C2C"/>
<path d="M218.212 26.0343C218.811 26.8211 219.927 26.9737 220.714 26.3748C221.501 25.776 221.653 24.6604 221.054 23.8736C220.455 23.0868 219.34 22.9342 218.553 23.533C217.766 24.1319 217.613 25.2475 218.212 26.0343Z" fill="#C55C2C"/>
<path fill-rule="evenodd" clip-rule="evenodd" d="M319.575 8.27289C317.937 8.27289 316.598 9.60571 316.598 11.2497C316.598 12.8937 317.931 14.2266 319.575 14.2266C321.22 14.2266 322.553 12.8937 322.553 11.2497C322.553 9.60571 321.22 8.27289 319.575 8.27289ZM319.575 12.9701C318.624 12.9701 317.855 12.195 317.855 11.2497C317.855 10.3044 318.63 9.52938 319.575 9.52938C320.521 9.52938 321.296 10.3044 321.296 11.2497C321.296 12.195 320.521 12.9701 319.575 12.9701Z" fill="#C55C2C"/>
<path d="M292.134 22.0474C293.12 22.0474 293.919 22.8465 293.919 23.8323C293.919 24.8181 293.12 25.6172 292.134 25.6172C291.148 25.6172 290.349 24.8181 290.349 23.8323C290.349 22.8465 291.148 22.0474 292.134 22.0474Z" fill="#C55C2C"/>
<path d="M346.001 26.0341C346.6 26.8209 347.716 26.9735 348.503 26.3746C349.29 25.7758 349.442 24.6602 348.843 23.8734C348.244 23.0866 347.129 22.934 346.342 23.5329C345.555 24.1317 345.402 25.2473 346.001 26.0341Z" fill="#C55C2C"/>
<path fill-rule="evenodd" clip-rule="evenodd" d="M575.154 8.27277C573.515 8.27277 572.176 9.6056 572.176 11.2496C572.176 12.8936 573.509 14.2264 575.154 14.2264C576.798 14.2264 578.131 12.8936 578.131 11.2496C578.131 9.6056 576.798 8.27277 575.154 8.27277ZM575.154 12.97C574.202 12.97 573.433 12.1949 573.433 11.2496C573.433 10.3043 574.208 9.52927 575.154 9.52927C576.099 9.52927 576.874 10.3043 576.874 11.2496C576.874 12.1949 576.099 12.97 575.154 12.97Z" fill="#C55C2C"/>
<path d="M547.712 22.0472C548.698 22.0472 549.497 22.8464 549.497 23.8322C549.497 24.818 548.698 25.6171 547.712 25.6171C546.726 25.6171 545.927 24.818 545.927 23.8322C545.927 22.8464 546.726 22.0472 547.712 22.0472Z" fill="#C55C2C"/>
<path d="M601.579 26.034C602.178 26.8208 603.294 26.9734 604.081 26.3745C604.868 25.7756 605.021 24.6601 604.422 23.8733C603.823 23.0865 602.707 22.9338 601.92 23.5327C601.133 24.1316 600.98 25.2472 601.579 26.034Z" fill="#C55C2C"/>
</g>
</svg>
