<?xml version="1.0" encoding="utf-8"?>
<!-- Generator: Adobe Illustrator 27.9.0, SVG Export Plug-In . SVG Version: 6.00 Build 0)  -->
<svg version="1.1" id="Layer_1" xmlns="http://www.w3.org/2000/svg" xmlns:xlink="http://www.w3.org/1999/xlink" x="0px" y="0px"
	 viewBox="0 0 390 50" style="enable-background:new 0 0 390 50;" xml:space="preserve">
<style type="text/css">
	.st0{opacity:0.6;}
	.st1{fill:#C55C2C;}
	.st2{fill-rule:evenodd;clip-rule:evenodd;fill:#C55C2C;}
</style>
<g class="st0">
	<path class="st1" d="M81.7,34.8h17.8V19.1c7.3-1.5,13.1-7.3,15-14.4h13.3V0.1h-12.7V0h-4.7c0,7.6-6,14-13.5,14.8L94.8,15V30h-15
		l-2.2,0l-0.2,2.1c-0.9,7.5-7.3,13.2-14.8,13.2c-7.6,0-14.1-5.9-14.9-13.5l-0.2-2.1H32.4V14.7l0-2.2l-2.1-0.2
		c-6.7-0.8-11.9-5.9-13-12.3h-4.8c0,0,0,0,0,0.1H0v4.7h13.9c2.4,5.9,7.5,10.4,13.8,11.8v17.8h15.6C45.2,43.3,53.3,50,62.6,50
		C71.8,50,79.7,43.6,81.7,34.8L81.7,34.8z"/>
	<path class="st1" d="M621.6,0h4.7v0.1h12.7v4.7h-13.3c-1.9,7.1-7.7,12.8-15,14.4v15.6h-17.8v0c-2,8.8-9.9,15.2-19.1,15.3
		c-9.3,0-17.3-6.7-19.2-15.6h-15.6V16.6c-6.4-1.5-11.5-6-13.8-11.8h-13.9v0h-13.3c-1.9,7.1-7.7,12.8-15,14.4v15.6h-17.8v0
		c-2,8.8-9.9,15.2-19.1,15.3c-9.3,0-17.3-6.7-19.2-15.6h-15.6V16.6c-6.4-1.5-11.5-6-13.8-11.8h-13.9v0h-13.3
		c-1.9,7.1-7.7,12.8-15,14.4v15.6h-17.8v0c-2,8.8-9.9,15.2-19.1,15.3c-9.3,0-17.3-6.7-19.2-15.6h-15.6V16.6
		c-6.4-1.5-11.5-6-13.8-11.8h-13.9v0h-13.3c-1.9,7.1-7.7,12.8-15,14.4v15.6h-17.8v0c-2,8.8-9.9,15.2-19.1,15.3
		c-9.3,0-17.3-6.7-19.2-15.6h-15.6V16.6c-6.4-1.5-11.5-6-13.8-11.8h-13.9V0.1h12.6c0,0,0,0,0-0.1h4.8c1.1,6.4,6.3,11.5,13,12.3
		l2.1,0.2l0,2.2v14.9h15.1l0.2,2.1c0.7,7.6,7.3,13.5,14.9,13.5c7.6,0,13.9-5.7,14.8-13.2l0.2-2.1l2.2,0h15V15l2.1-0.2
		c7.5-0.7,13.5-7.2,13.5-14.8h4.7v0.1h12.7v0h12.6c0,0,0,0,0-0.1h4.8c1.1,6.4,6.3,11.5,13,12.3l2.1,0.2l0,2.2v14.9h15.1l0.2,2.1
		c0.7,7.6,7.3,13.5,14.9,13.5c7.6,0,13.9-5.7,14.8-13.2l0.2-2.1l2.2,0h15V15l2.1-0.2C360,14.1,365.9,7.6,366,0h4.7v0.1h12.7v0H396
		c0,0,0,0,0-0.1h4.8c1.1,6.4,6.3,11.5,13,12.3l2.1,0.2l0,2.2v14.9h15.1l0.2,2.1c0.7,7.6,7.3,13.5,14.9,13.5
		c7.6,0,13.9-5.7,14.8-13.2l0.2-2.1l2.2,0h15V15l2.1-0.2c7.5-0.7,13.5-7.2,13.5-14.8h4.7v0.1h12.7v0h12.6c0,0,0,0,0-0.1h4.8
		c1.1,6.4,6.3,11.5,13,12.3l2.1,0.2l0,2.2v14.9h15.1l0.2,2.1c0.7,7.6,7.3,13.5,14.9,13.5c7.6,0,13.9-5.7,14.8-13.2l0.2-2.1l2.2,0h15
		V15l2.1-0.2C615.6,14.1,621.5,7.6,621.6,0z"/>
	<path class="st1" d="M570.2,0h9.4c0,0,0,0,0,0.1c0,2.6-2.1,4.7-4.7,4.7C572.4,4.8,570.2,2.7,570.2,0C570.2,0,570.2,0,570.2,0z"/>
	<path class="st2" d="M569.3,0L569.3,0l-2,1.8c-0.1,0.1-1.4,1.2-3.6,2.6c2.7-0.7,4.7-0.9,4.9-0.9l2.7-0.3L571.2,6l0,0
		c0,0.4-0.2,3-1.1,6.3c1.6-2.6,3-4.3,3.1-4.4l1.7-2.1l1.8,2c0.1,0.1,1.8,2,3.5,4.9c-1-3.5-1.2-6.2-1.3-6.4l-0.3-2.7l2.7,0.1
		c0.2,0,2.2,0.1,5,0.7c-2.2-1.4-3.6-2.5-3.8-2.6l-2.1-1.7l0.1-0.1h7.3c1.9,1.3,4.7,2.9,7.8,3.8h0c3,0.9,5.3-0.5,6.2-1.1
		c1.2-0.9,1.8-2,1.8-2.6c0,0,0,0,0,0h4.7c0,0,0,0,0,0c0,2.2-1.4,4.6-3.7,6.4c-2.6,1.9-5.8,2.7-8.9,2.2c2.5,2,4.2,4.8,4.6,7.9
		c0.4,2.8-0.4,5.3-1.9,6.9c-1.6,1.6-4.3,2.3-7.1,1.9c-3.4-0.5-6.4-2.4-8.2-5.3c0.9,3.7,0.2,7.4-2,10.3c-1.7,2.2-4,3.5-6.3,3.5
		s-4.6-1.4-6.4-3.7c-1.6-2.1-2.4-4.5-2.4-7c0-1,0.1-2,0.4-3c-2,2.8-4.9,4.6-8.2,5c-2.8,0.4-5.3-0.4-6.9-1.9c-1.3-1.3-2-3.3-2-5.5
		c0-0.5,0-1.1,0.1-1.6c0.5-3.2,2.2-6,4.8-7.9c-3.5,0.6-7.1-0.2-9.7-2.4c-2-1.6-3.2-3.7-3.3-5.8h4.8c0.2,0.6,0.7,1.4,1.6,2.1
		c0.8,0.7,3.1,2.1,6.4,1.3c3.2-0.8,6-2.2,7.8-3.4c0,0,0,0,0,0H569.3z M575,29.1c0.6,0,1.6-0.5,2.5-1.7l0,0c0.6-0.8,2-3.1,1.2-6.4
		c-0.8-3.2-2.4-5.9-3.6-7.7c-1.3,1.9-2.9,4.7-3.8,7.8c-0.9,3,0.5,5.3,1.1,6.2C573.3,28.5,574.4,29.1,575,29.1z M595.9,17.1
		c-0.1-1-0.8-3.6-3.7-5.4c-2.9-1.7-5.9-2.5-8-2.9c0.5,2.2,1.3,5.4,2.8,8.2c1.5,2.8,4.1,3.4,5.2,3.6c1.5,0.2,2.7-0.1,3.1-0.5
		c0.3-0.3,0.7-1.2,0.7-2.2C595.9,17.6,595.9,17.3,595.9,17.1z M557.9,20.4c1-0.1,3.6-0.8,5.4-3.7c1.7-2.9,2.5-5.9,2.9-8
		c-2.2,0.5-5.4,1.3-8.2,2.8c-2.8,1.5-3.4,4.1-3.6,5.2c-0.2,1.5,0.1,2.7,0.5,3.1C555.3,20.3,556.4,20.6,557.9,20.4z"/>
	<path class="st1" d="M442.4,0h9.4c0,0,0,0,0,0.1c0,2.6-2.1,4.7-4.7,4.7C444.6,4.8,442.4,2.7,442.4,0C442.4,0,442.4,0,442.4,0z"/>
	<path class="st2" d="M441.5,0L441.5,0l-2,1.8c-0.1,0.1-1.4,1.2-3.6,2.6c2.7-0.7,4.7-0.9,4.9-0.9l2.7-0.3L443.4,6l0,0
		c0,0.4-0.2,3-1.1,6.3c1.6-2.6,3-4.3,3.1-4.4l1.7-2.1l1.8,2c0.1,0.1,1.8,2,3.5,4.9c-1-3.5-1.2-6.2-1.3-6.4l-0.3-2.7l2.7,0.1
		c0.2,0,2.2,0.1,5,0.7c-2.2-1.4-3.6-2.5-3.8-2.6l-2.1-1.7l0.1-0.1h7.3c1.9,1.3,4.7,2.9,7.8,3.8h0c3,0.9,5.3-0.5,6.2-1.1
		c1.2-0.9,1.8-2,1.8-2.6c0,0,0,0,0,0h4.7c0,0,0,0,0,0c0,2.2-1.4,4.6-3.7,6.4c-2.6,1.9-5.8,2.7-8.9,2.2c2.5,2,4.2,4.8,4.6,7.9
		c0.4,2.8-0.4,5.3-1.9,6.9c-1.6,1.6-4.3,2.3-7.1,1.9c-3.4-0.5-6.4-2.4-8.2-5.3c0.9,3.7,0.2,7.4-2,10.3c-1.7,2.2-4,3.5-6.3,3.5
		s-4.6-1.4-6.4-3.7c-1.5-2.1-2.4-4.5-2.4-7c0-1,0.1-2,0.4-3c-2,2.8-4.9,4.6-8.2,5c-2.8,0.4-5.3-0.4-6.9-1.9c-1.3-1.3-2-3.3-2-5.5
		c0-0.5,0-1.1,0.1-1.6c0.5-3.2,2.2-6,4.8-7.9c-3.5,0.6-7.1-0.2-9.7-2.4c-2-1.6-3.2-3.7-3.3-5.8h4.8c0.2,0.6,0.7,1.4,1.6,2.1
		c0.8,0.7,3.1,2.1,6.4,1.3c3.2-0.8,6-2.2,7.8-3.4c0,0,0,0,0,0H441.5z M447.2,29.1c0.6,0,1.6-0.5,2.5-1.7l0,0c0.6-0.8,2-3.1,1.2-6.4
		c-0.8-3.2-2.4-5.9-3.6-7.7c-1.3,1.9-2.9,4.7-3.8,7.8c-0.9,3,0.5,5.3,1.1,6.2C445.5,28.5,446.6,29.1,447.2,29.1z M468.1,17.1
		c-0.1-1-0.8-3.6-3.7-5.4c-2.9-1.7-5.9-2.5-8-2.9c0.5,2.2,1.3,5.4,2.8,8.2c1.5,2.8,4.1,3.4,5.2,3.6c1.5,0.2,2.7-0.1,3.1-0.5
		c0.3-0.3,0.7-1.2,0.7-2.2C468.1,17.6,468.1,17.3,468.1,17.1z M430.1,20.4c1-0.1,3.6-0.8,5.4-3.7c1.7-2.9,2.5-5.9,2.9-8
		c-2.2,0.5-5.4,1.3-8.2,2.8c-2.8,1.5-3.4,4.1-3.6,5.2c-0.2,1.5,0.1,2.7,0.5,3.1C427.5,20.3,428.6,20.6,430.1,20.4z"/>
	<path class="st1" d="M314.7,0h9.4c0,0,0,0,0,0.1c0,2.6-2.1,4.7-4.7,4.7C316.8,4.8,314.7,2.7,314.7,0C314.7,0,314.7,0,314.7,0z"/>
	<path class="st2" d="M313.7,0L313.7,0l-2,1.8c-0.1,0.1-1.4,1.2-3.6,2.6c2.7-0.7,4.7-0.9,4.9-0.9l2.7-0.3L315.6,6l0,0
		c0,0.4-0.2,3-1.1,6.3c1.6-2.6,3-4.3,3.1-4.4l1.7-2.1l1.8,2c0.1,0.1,1.8,2,3.5,4.9c-1-3.5-1.2-6.2-1.3-6.4l-0.3-2.7l2.7,0.1
		c0.2,0,2.2,0.1,5,0.7c-2.2-1.4-3.6-2.5-3.8-2.6L325,0.1l0.1-0.1h7.3c1.9,1.3,4.7,2.9,7.8,3.8h0c3,0.9,5.3-0.5,6.2-1.1
		c1.2-0.9,1.8-2,1.8-2.6c0,0,0,0,0,0h4.7c0,0,0,0,0,0c0,2.2-1.4,4.6-3.7,6.4c-2.6,1.9-5.8,2.7-8.9,2.2c2.5,2,4.2,4.8,4.6,7.9
		c0.4,2.8-0.4,5.3-1.9,6.9c-1.6,1.6-4.3,2.3-7.1,1.9c-3.4-0.5-6.4-2.4-8.2-5.3c0.9,3.7,0.2,7.4-2,10.3c-1.7,2.2-4,3.5-6.3,3.5
		c-2.2,0-4.6-1.4-6.4-3.7c-1.5-2.1-2.4-4.5-2.4-7c0-1,0.1-2,0.4-3c-2,2.8-4.9,4.6-8.2,5c-2.8,0.4-5.3-0.4-6.9-1.9
		c-1.3-1.3-2-3.3-2-5.5c0-0.5,0-1.1,0.1-1.6c0.5-3.2,2.2-6,4.8-7.9c-3.5,0.6-7.1-0.2-9.7-2.4c-2-1.6-3.2-3.7-3.3-5.8h4.8
		c0.2,0.6,0.7,1.4,1.6,2.1c0.8,0.7,3.1,2.1,6.4,1.3c3.2-0.8,6-2.2,7.8-3.4c0,0,0,0,0,0H313.7z M319.4,29.1c0.6,0,1.6-0.5,2.5-1.7
		l0,0c0.6-0.8,2-3.1,1.2-6.4c-0.8-3.2-2.4-5.9-3.6-7.7c-1.3,1.9-2.9,4.7-3.8,7.8c-0.9,3,0.5,5.3,1.1,6.2
		C317.7,28.5,318.8,29.1,319.4,29.1z M340.3,17.1c-0.1-1-0.8-3.6-3.7-5.4c-2.9-1.7-5.9-2.5-8-2.9c0.5,2.2,1.3,5.4,2.8,8.2
		c1.5,2.8,4.1,3.4,5.2,3.6c1.5,0.2,2.7-0.1,3.1-0.5c0.3-0.3,0.7-1.2,0.7-2.2C340.3,17.6,340.3,17.3,340.3,17.1z M302.3,20.4
		c1-0.1,3.6-0.8,5.4-3.7c1.7-2.9,2.5-5.9,2.9-8c-2.2,0.5-5.4,1.3-8.2,2.8c-2.8,1.5-3.4,4.1-3.6,5.2c-0.2,1.5,0.1,2.7,0.5,3.1
		C299.7,20.3,300.8,20.6,302.3,20.4z"/>
	<path class="st1" d="M186.9,0h9.4c0,0,0,0,0,0.1c0,2.6-2.1,4.7-4.7,4.7C189,4.8,186.9,2.7,186.9,0C186.9,0,186.9,0,186.9,0z"/>
	<path class="st2" d="M186,0L186,0l-2,1.8c-0.1,0.1-1.4,1.2-3.6,2.6c2.7-0.7,4.7-0.9,4.9-0.9l2.7-0.3L187.9,6l0,0
		c0,0.4-0.2,3-1.1,6.3c1.6-2.6,3-4.3,3.1-4.4l1.7-2.1l1.8,2c0.1,0.1,1.8,2,3.5,4.9c-1-3.5-1.2-6.2-1.3-6.4l-0.3-2.7l2.7,0.1
		c0.2,0,2.2,0.1,5,0.7c-2.2-1.4-3.6-2.5-3.8-2.6l-2.1-1.7l0.1-0.1h7.3c1.9,1.3,4.7,2.9,7.8,3.8h0c3,0.9,5.3-0.5,6.2-1.1
		c1.2-0.9,1.8-2,1.8-2.6c0,0,0,0,0,0h4.7c0,0,0,0,0,0c0,2.2-1.4,4.6-3.7,6.4c-2.6,1.9-5.8,2.7-8.9,2.2c2.5,2,4.2,4.8,4.6,7.9
		c0.4,2.8-0.4,5.3-1.9,6.9c-1.6,1.6-4.3,2.3-7.1,1.9c-3.4-0.5-6.4-2.4-8.2-5.3c0.9,3.7,0.2,7.4-2,10.3c-1.7,2.2-4,3.5-6.3,3.5
		c-2.2,0-4.6-1.4-6.4-3.7c-1.5-2.1-2.4-4.5-2.4-7c0-1,0.1-2,0.4-3c-2,2.8-4.9,4.6-8.2,5c-2.8,0.4-5.3-0.4-6.9-1.9
		c-1.3-1.3-2-3.3-2-5.5c0-0.5,0-1.1,0.1-1.6c0.5-3.2,2.2-6,4.8-7.9c-3.5,0.6-7.1-0.2-9.7-2.4c-2-1.6-3.2-3.7-3.3-5.8h4.8
		c0.2,0.6,0.7,1.4,1.6,2.1c0.8,0.7,3.1,2.1,6.4,1.3c3.2-0.8,6-2.2,7.8-3.4c0,0,0,0,0,0H186z M191.6,29.1c0.6,0,1.6-0.5,2.5-1.7l0,0
		c0.6-0.8,2-3.1,1.2-6.4c-0.8-3.2-2.4-5.9-3.6-7.7c-1.3,1.9-2.9,4.7-3.8,7.8c-0.9,3,0.5,5.3,1.1,6.2C189.9,28.5,191,29.1,191.6,29.1
		z M212.5,17.1c-0.1-1-0.8-3.6-3.7-5.4c-2.9-1.7-5.9-2.5-8-2.9c0.5,2.2,1.3,5.4,2.8,8.2c1.5,2.8,4.1,3.4,5.2,3.6
		c1.5,0.2,2.7-0.1,3.1-0.5c0.3-0.3,0.7-1.2,0.7-2.2C212.6,17.6,212.5,17.3,212.5,17.1z M174.5,20.4c1-0.1,3.6-0.8,5.4-3.7
		c1.7-2.9,2.5-5.9,2.9-8c-2.2,0.5-5.4,1.3-8.2,2.8c-2.8,1.5-3.4,4.1-3.6,5.2c-0.2,1.5,0.1,2.7,0.5,3.1
		C171.9,20.3,173,20.6,174.5,20.4z"/>
	<path class="st2" d="M30.2,0c0.2,2,1.4,4.2,3.3,5.8c2.7,2.2,6.2,3,9.7,2.4C40.7,10,39,12.8,38.5,16c-0.1,0.5-0.1,1.1-0.1,1.6
		c0,2.2,0.7,4.2,2,5.5c1.6,1.6,4.2,2.3,6.9,1.9c3.3-0.4,6.2-2.2,8.2-5c-0.3,1-0.4,2-0.4,3c0,2.5,0.8,4.9,2.4,7
		c1.7,2.3,4.1,3.7,6.4,3.7c2.2,0,4.6-1.3,6.3-3.5c2.2-2.9,2.9-6.6,2-10.3c1.8,2.9,4.8,4.8,8.2,5.3c2.9,0.4,5.5-0.3,7.1-1.9
		c1.6-1.6,2.3-4.2,1.9-6.9c-0.4-3.1-2.1-5.9-4.6-7.9c3.1,0.5,6.3-0.2,8.9-2.2c2.3-1.7,3.7-4.1,3.7-6.4c0,0,0,0,0,0h-4.7c0,0,0,0,0,0
		c0,0.6-0.6,1.7-1.8,2.6c-0.9,0.6-3.2,2-6.2,1.1h0c-3-0.9-5.9-2.5-7.8-3.8h-7.3l-0.1,0.1l2.1,1.7c0.1,0.1,1.5,1.3,3.8,2.6
		c-2.8-0.7-4.8-0.7-5-0.7l-2.7-0.1l0.3,2.7c0,0.2,0.3,2.9,1.3,6.4c-1.7-3-3.4-4.8-3.5-4.9l-1.8-2L62,7.8C61.9,8,60.5,9.7,59,12.3
		C59.9,9,60,6.4,60.1,6l0,0l0.1-2.7l-2.7,0.3c-0.2,0-2.2,0.2-4.9,0.9c2.2-1.3,3.5-2.5,3.6-2.6l2-1.8L58.2,0h-7.5c0,0,0,0,0,0
		c-1.8,1.2-4.6,2.7-7.8,3.4c-3.3,0.8-5.6-0.7-6.4-1.3c-0.9-0.7-1.4-1.5-1.6-2.1H30.2z M63.8,29.1c0.6,0,1.6-0.5,2.5-1.7l0,0
		c0.6-0.8,2-3.1,1.2-6.4c-0.8-3.2-2.4-5.9-3.6-7.7c-1.3,1.9-2.9,4.7-3.8,7.8c-0.9,3,0.5,5.3,1.1,6.2C62.1,28.5,63.2,29.1,63.8,29.1z
		 M84.7,17.1c-0.1-1-0.8-3.6-3.7-5.4c-2.9-1.7-5.9-2.5-8-2.9c0.5,2.2,1.3,5.4,2.8,8.2c1.5,2.8,4.1,3.4,5.2,3.6
		c1.5,0.2,2.7-0.1,3.1-0.5c0.3-0.3,0.7-1.2,0.7-2.2C84.8,17.6,84.8,17.3,84.7,17.1z M46.7,20.4c1-0.1,3.6-0.8,5.4-3.7
		c1.7-2.9,2.5-5.9,2.9-8c-2.2,0.5-5.4,1.3-8.2,2.8c-2.8,1.5-3.4,4.1-3.6,5.2c-0.2,1.5,0.1,2.7,0.5,3.1
		C44.1,20.3,45.3,20.6,46.7,20.4z"/>
	<path class="st1" d="M59.1,0C59.1,0,59.1,0,59.1,0c0,2.7,2.1,4.8,4.7,4.8c2.6,0,4.7-2.1,4.7-4.7c0,0,0,0,0-0.1H59.1z"/>
	<path class="st2" d="M191.6,41.7c1.6,0,3-1.3,3-3c0-1.6-1.3-3-3-3c-1.6,0-3,1.3-3,3C188.6,40.4,189.9,41.7,191.6,41.7z M191.6,37
		c1,0,1.7,0.8,1.7,1.7c0,0.9-0.8,1.7-1.7,1.7c-0.9,0-1.7-0.8-1.7-1.7C189.9,37.8,190.6,37,191.6,37z"/>
	<path class="st1" d="M219,28c-1,0-1.8-0.8-1.8-1.8s0.8-1.8,1.8-1.8s1.8,0.8,1.8,1.8S220,28,219,28z"/>
	<path class="st1" d="M165.2,24c-0.6-0.8-1.7-0.9-2.5-0.3c-0.8,0.6-0.9,1.7-0.3,2.5c0.6,0.8,1.7,0.9,2.5,0.3
		C165.6,25.9,165.8,24.8,165.2,24z"/>
	<path class="st2" d="M574.9,41.7c1.6,0,3-1.3,3-3c0-1.6-1.3-3-3-3s-3,1.3-3,3C572,40.4,573.3,41.7,574.9,41.7z M574.9,37
		c1,0,1.7,0.8,1.7,1.7c0,0.9-0.8,1.7-1.7,1.7c-0.9,0-1.7-0.8-1.7-1.7C573.2,37.8,574,37,574.9,37z"/>
	<path class="st1" d="M602.4,28c-1,0-1.8-0.8-1.8-1.8s0.8-1.8,1.8-1.8c1,0,1.8,0.8,1.8,1.8S603.4,28,602.4,28z"/>
	<path class="st1" d="M548.5,24c-0.6-0.8-1.7-0.9-2.5-0.3c-0.8,0.6-0.9,1.7-0.3,2.5s1.7,0.9,2.5,0.3C549,25.9,549.1,24.8,548.5,24z"
		/>
	<path class="st2" d="M447.2,41.7c1.6,0,3-1.3,3-3c0-1.6-1.3-3-3-3c-1.6,0-3,1.3-3,3C444.2,40.4,445.5,41.7,447.2,41.7z M447.2,37
		c1,0,1.7,0.8,1.7,1.7c0,0.9-0.8,1.7-1.7,1.7c-0.9,0-1.7-0.8-1.7-1.7C445.4,37.8,446.2,37,447.2,37z"/>
	<path class="st1" d="M474.6,28c-1,0-1.8-0.8-1.8-1.8s0.8-1.8,1.8-1.8s1.8,0.8,1.8,1.8S475.6,28,474.6,28z"/>
	<path class="st1" d="M420.7,24c-0.6-0.8-1.7-0.9-2.5-0.3c-0.8,0.6-0.9,1.7-0.3,2.5s1.7,0.9,2.5,0.3C421.2,25.9,421.3,24.8,420.7,24
		z"/>
	<path class="st2" d="M319.4,41.7c1.6,0,3-1.3,3-3c0-1.6-1.3-3-3-3c-1.6,0-3,1.3-3,3C316.4,40.4,317.7,41.7,319.4,41.7z M319.4,37
		c1,0,1.7,0.8,1.7,1.7c0,0.9-0.8,1.7-1.7,1.7c-0.9,0-1.7-0.8-1.7-1.7C317.6,37.8,318.4,37,319.4,37z"/>
	<path class="st1" d="M346.8,28c-1,0-1.8-0.8-1.8-1.8s0.8-1.8,1.8-1.8s1.8,0.8,1.8,1.8S347.8,28,346.8,28z"/>
	<path class="st1" d="M292.9,24c-0.6-0.8-1.7-0.9-2.5-0.3c-0.8,0.6-0.9,1.7-0.3,2.5s1.7,0.9,2.5,0.3C293.4,25.9,293.5,24.8,292.9,24
		z"/>
	<path class="st2" d="M63.8,41.7c1.6,0,3-1.3,3-3s-1.3-3-3-3c-1.6,0-3,1.3-3,3S62.1,41.7,63.8,41.7z M63.8,37c1,0,1.7,0.8,1.7,1.7
		s-0.8,1.7-1.7,1.7c-0.9,0-1.7-0.8-1.7-1.7S62.8,37,63.8,37z"/>
	<path class="st1" d="M91.2,28c-1,0-1.8-0.8-1.8-1.8c0-1,0.8-1.8,1.8-1.8c1,0,1.8,0.8,1.8,1.8C93,27.2,92.2,28,91.2,28z"/>
	<path class="st1" d="M37.4,24c-0.6-0.8-1.7-0.9-2.5-0.3s-0.9,1.7-0.3,2.5s1.7,0.9,2.5,0.3S38,24.8,37.4,24z"/>
</g>
</svg>
