<?xml version="1.0" encoding="utf-8"?>
<!-- Generator: Adobe Illustrator 27.9.0, SVG Export Plug-In . SVG Version: 6.00 Build 0)  -->
<svg version="1.1" id="Layer_1" xmlns="http://www.w3.org/2000/svg" xmlns:xlink="http://www.w3.org/1999/xlink" x="0px" y="0px"
	 viewBox="0 0 390 50" style="enable-background:new 0 0 390 50;" xml:space="preserve">
<style type="text/css">
	.st0{opacity:0.6;}
	.st1{fill:#C55C2C;}
	.st2{fill-rule:evenodd;clip-rule:evenodd;fill:#C55C2C;}
</style>
<g class="st0">
	<path class="st1" d="M557.3,15.3h-17.8v15.6c-7.3,1.5-13.1,7.3-15,14.4h-13.3v4.7h12.7V50h4.7c0-7.6,6-14,13.5-14.8l2.1-0.2V20h15
		l2.2,0l0.2-2.1c0.9-7.5,7.3-13.2,14.8-13.2c7.6,0,14.1,5.9,14.9,13.5l0.2,2.1h15.1v14.9l0,2.2l2.1,0.2c6.7,0.8,11.9,5.9,13,12.3
		h4.8c0,0,0,0,0-0.1h12.6v-4.7h-13.9c-2.4-5.9-7.5-10.4-13.8-11.8V15.6h-15.6C593.7,6.7,585.7,0,576.4,0
		C567.2,0,559.3,6.4,557.3,15.3L557.3,15.3z"/>
	<path class="st1" d="M17.4,50h-4.7v-0.1H0v-4.7h13.3c1.9-7.1,7.7-12.8,15-14.4V15.3h17.8v0C48.1,6.4,56,0,65.2,0
		c9.3,0,17.3,6.7,19.2,15.6h15.6v17.8c6.4,1.5,11.5,6,13.8,11.8h13.9v0h13.3c1.9-7.1,7.7-12.8,15-14.4V15.3h17.8v0
		C175.9,6.4,183.8,0,193,0c9.3,0,17.3,6.7,19.2,15.6h15.6v17.8c6.4,1.5,11.5,6,13.8,11.8h13.9v0h13.3c1.9-7.1,7.7-12.8,15-14.4V15.3
		h17.8v0c2-8.8,9.9-15.2,19.1-15.3c9.3,0,17.3,6.7,19.2,15.6h15.6v17.8c6.4,1.5,11.5,6,13.8,11.8h13.9v0h13.3
		c1.9-7.1,7.7-12.8,15-14.4V15.3h17.8v0c2-8.8,9.9-15.2,19.1-15.3c9.3,0,17.3,6.7,19.2,15.6h15.6v17.8c6.4,1.5,11.5,6,13.8,11.8
		h13.9v4.7h-12.6c0,0,0,0,0,0.1h-4.8c-1.1-6.4-6.3-11.5-13-12.3l-2.1-0.2l0-2.2V20.3h-15.1l-0.2-2.1c-0.7-7.6-7.3-13.5-14.9-13.5
		c-7.6,0-13.9,5.7-14.8,13.2l-0.2,2.1l-2.2,0h-15V35l-2.1,0.2c-7.5,0.7-13.5,7.2-13.5,14.8H396v-0.1h-12.7v0h-12.6c0,0,0,0,0,0.1
		H366c-1.1-6.4-6.3-11.5-13-12.3l-2.1-0.2l0-2.2V20.3h-15.1l-0.2-2.1c-0.7-7.6-7.3-13.5-14.9-13.5c-7.6,0-13.9,5.7-14.8,13.2
		l-0.2,2.1l-2.2,0h-15V35l-2.1,0.2C278.9,36,273,42.4,273,50h-4.7v-0.1h-12.7v0h-12.6c0,0,0,0,0,0.1h-4.8c-1.1-6.4-6.3-11.5-13-12.3
		l-2.1-0.2l0-2.2V20.3h-15.1l-0.2-2.1c-0.7-7.6-7.3-13.5-14.9-13.5c-7.6,0-13.9,5.7-14.8,13.2l-0.2,2.1l-2.2,0h-15V35l-2.1,0.2
		c-7.5,0.7-13.5,7.2-13.5,14.8h-4.7v-0.1h-12.7v0h-12.6c0,0,0,0,0,0.1h-4.8c-1.1-6.4-6.3-11.5-13-12.3l-2.1-0.2l0-2.2V20.3H80.3
		l-0.2-2.1c-0.7-7.6-7.3-13.5-14.9-13.5c-7.6,0-13.9,5.7-14.8,13.2l-0.2,2.1L48,20H33V35l-2.1,0.2C23.3,36,17.4,42.4,17.4,50z"/>
	<path class="st1" d="M68.7,50h-9.4c0,0,0,0,0-0.1c0-2.6,2.1-4.7,4.7-4.7C66.6,45.2,68.7,47.3,68.7,50C68.7,50,68.7,50,68.7,50z"/>
	<path class="st2" d="M69.6,50L69.6,50l2-1.8c0.1-0.1,1.4-1.2,3.6-2.6c-2.7,0.7-4.7,0.9-4.9,0.9l-2.7,0.3l0.1-2.7l0,0
		c0-0.4,0.2-3,1.1-6.3c-1.6,2.6-3,4.3-3.1,4.4l-1.7,2.1l-1.8-2c-0.1-0.1-1.8-2-3.5-4.9c1,3.5,1.2,6.2,1.3,6.4l0.3,2.7l-2.7-0.1
		c-0.2,0-2.2-0.1-5-0.7c2.2,1.4,3.6,2.5,3.8,2.6l2.1,1.7L58.2,50h-7.3c-1.9-1.3-4.7-2.9-7.8-3.8h0c-3-0.9-5.3,0.5-6.2,1.1
		c-1.2,0.9-1.8,2-1.8,2.6c0,0,0,0,0,0h-4.7c0,0,0,0,0,0c0-2.2,1.4-4.6,3.7-6.4c2.6-1.9,5.8-2.7,8.9-2.2c-2.5-2-4.2-4.8-4.6-7.9
		c-0.4-2.8,0.4-5.3,1.9-6.9c1.6-1.6,4.3-2.3,7.1-1.9c3.4,0.5,6.4,2.4,8.2,5.3c-0.9-3.7-0.2-7.4,2-10.3c1.7-2.2,4-3.5,6.3-3.5
		c2.2,0,4.6,1.4,6.4,3.7c1.6,2.1,2.4,4.5,2.4,7c0,1-0.1,2-0.4,3c2-2.8,4.9-4.6,8.2-5c2.8-0.4,5.3,0.4,6.9,1.9c1.3,1.3,2,3.3,2,5.5
		c0,0.5,0,1.1-0.1,1.6c-0.5,3.2-2.2,6-4.8,7.9c3.5-0.6,7.1,0.2,9.7,2.4c2,1.6,3.2,3.7,3.3,5.8h-4.8c-0.2-0.6-0.7-1.4-1.6-2.1
		c-0.8-0.7-3.1-2.1-6.4-1.3c-3.2,0.8-6,2.2-7.8,3.4c0,0,0,0,0,0H69.6z M64,20.9c-0.6,0-1.6,0.5-2.5,1.7l0,0c-0.6,0.8-2,3.1-1.2,6.4
		c0.8,3.2,2.4,5.9,3.6,7.7c1.3-1.9,2.9-4.7,3.8-7.8c0.9-3-0.5-5.3-1.1-6.2C65.7,21.5,64.6,20.9,64,20.9z M43.1,32.9
		c0.1,1,0.8,3.6,3.7,5.4c2.9,1.7,5.9,2.5,8,2.9c-0.5-2.2-1.3-5.4-2.8-8.2c-1.5-2.8-4.1-3.4-5.2-3.6c-1.5-0.2-2.7,0.1-3.1,0.5
		c-0.3,0.3-0.7,1.2-0.7,2.2C43,32.4,43,32.7,43.1,32.9z M81.1,29.6c-1,0.1-3.6,0.8-5.4,3.7c-1.7,2.9-2.5,5.9-2.9,8
		c2.2-0.5,5.4-1.3,8.2-2.8c2.8-1.5,3.4-4.1,3.6-5.2c0.2-1.5-0.1-2.7-0.5-3.1C83.6,29.8,82.5,29.4,81.1,29.6z"/>
	<path class="st1" d="M196.5,50h-9.4c0,0,0,0,0-0.1c0-2.6,2.1-4.7,4.7-4.7C194.4,45.2,196.5,47.3,196.5,50
		C196.5,50,196.5,50,196.5,50z"/>
	<path class="st2" d="M197.4,50L197.4,50l2-1.8c0.1-0.1,1.4-1.2,3.6-2.6c-2.7,0.7-4.7,0.9-4.9,0.9l-2.7,0.3l0.1-2.7l0,0
		c0-0.4,0.2-3,1.1-6.3c-1.6,2.6-3,4.3-3.1,4.4l-1.7,2.1l-1.8-2c-0.1-0.1-1.8-2-3.5-4.9c1,3.5,1.2,6.2,1.3,6.4l0.3,2.7l-2.7-0.1
		c-0.2,0-2.2-0.1-5-0.7c2.2,1.4,3.6,2.5,3.8,2.6l2.1,1.7L186,50h-7.3c-1.9-1.3-4.7-2.9-7.8-3.8h0c-3-0.9-5.3,0.5-6.2,1.1
		c-1.2,0.9-1.8,2-1.8,2.6c0,0,0,0,0,0h-4.7c0,0,0,0,0,0c0-2.2,1.4-4.6,3.7-6.4c2.6-1.9,5.8-2.7,8.9-2.2c-2.5-2-4.2-4.8-4.6-7.9
		c-0.4-2.8,0.4-5.3,1.9-6.9c1.6-1.6,4.3-2.3,7.1-1.9c3.4,0.5,6.4,2.4,8.2,5.3c-0.9-3.7-0.2-7.4,2-10.3c1.7-2.2,4-3.5,6.3-3.5
		c2.2,0,4.6,1.4,6.4,3.7c1.6,2.1,2.4,4.5,2.4,7c0,1-0.1,2-0.4,3c2-2.8,4.9-4.6,8.2-5c2.8-0.4,5.3,0.4,6.9,1.9c1.3,1.3,2,3.3,2,5.5
		c0,0.5,0,1.1-0.1,1.6c-0.5,3.2-2.2,6-4.8,7.9c3.5-0.6,7.1,0.2,9.7,2.4c2,1.6,3.2,3.7,3.3,5.8h-4.8c-0.2-0.6-0.7-1.4-1.6-2.1
		c-0.8-0.7-3.1-2.1-6.4-1.3c-3.2,0.8-6,2.2-7.8,3.4c0,0,0,0,0,0H197.4z M191.8,20.9c-0.6,0-1.6,0.5-2.5,1.7l0,0
		c-0.6,0.8-2,3.1-1.2,6.4c0.8,3.2,2.4,5.9,3.6,7.7c1.3-1.9,2.9-4.7,3.8-7.8c0.9-3-0.5-5.3-1.1-6.2C193.5,21.5,192.4,20.9,191.8,20.9
		z M170.9,32.9c0.1,1,0.8,3.6,3.7,5.4c2.9,1.7,5.9,2.5,8,2.9c-0.5-2.2-1.3-5.4-2.8-8.2c-1.5-2.8-4.1-3.4-5.2-3.6
		c-1.5-0.2-2.7,0.1-3.1,0.5c-0.3,0.3-0.7,1.2-0.7,2.2C170.8,32.4,170.8,32.7,170.9,32.9z M208.9,29.6c-1,0.1-3.6,0.8-5.4,3.7
		c-1.7,2.9-2.5,5.9-2.9,8c2.2-0.5,5.4-1.3,8.2-2.8c2.8-1.5,3.4-4.1,3.6-5.2c0.2-1.5-0.1-2.7-0.5-3.1
		C211.4,29.8,210.3,29.4,208.9,29.6z"/>
	<path class="st1" d="M324.3,50h-9.4c0,0,0,0,0-0.1c0-2.6,2.1-4.7,4.7-4.7C322.2,45.2,324.3,47.3,324.3,50
		C324.3,50,324.3,50,324.3,50z"/>
	<path class="st2" d="M325.2,50L325.2,50l2-1.8c0.1-0.1,1.4-1.2,3.6-2.6c-2.7,0.7-4.7,0.9-4.9,0.9l-2.7,0.3l0.1-2.7l0,0
		c0-0.4,0.2-3,1.1-6.3c-1.6,2.6-3,4.3-3.1,4.4l-1.7,2.1l-1.8-2c-0.1-0.1-1.8-2-3.5-4.9c1,3.5,1.2,6.2,1.3,6.4l0.3,2.7l-2.7-0.1
		c-0.2,0-2.2-0.1-5-0.7c2.2,1.4,3.6,2.5,3.8,2.6l2.1,1.7l-0.1,0.1h-7.3c-1.9-1.3-4.7-2.9-7.8-3.8h0c-3-0.9-5.3,0.5-6.2,1.1
		c-1.2,0.9-1.8,2-1.8,2.6c0,0,0,0,0,0h-4.7c0,0,0,0,0,0c0-2.2,1.4-4.6,3.7-6.4c2.6-1.9,5.8-2.7,8.9-2.2c-2.5-2-4.2-4.8-4.6-7.9
		c-0.4-2.8,0.4-5.3,1.9-6.9c1.6-1.6,4.3-2.3,7.1-1.9c3.4,0.5,6.4,2.4,8.2,5.3c-0.9-3.7-0.2-7.4,2-10.3c1.7-2.2,4-3.5,6.3-3.5
		c2.2,0,4.6,1.4,6.4,3.7c1.5,2.1,2.4,4.5,2.4,7c0,1-0.1,2-0.4,3c2-2.8,4.9-4.6,8.2-5c2.8-0.4,5.3,0.4,6.9,1.9c1.3,1.3,2,3.3,2,5.5
		c0,0.5,0,1.1-0.1,1.6c-0.5,3.2-2.2,6-4.8,7.9c3.5-0.6,7.1,0.2,9.7,2.4c2,1.6,3.2,3.7,3.3,5.8h-4.8c-0.2-0.6-0.7-1.4-1.6-2.1
		c-0.8-0.7-3.1-2.1-6.4-1.3c-3.2,0.8-6,2.2-7.8,3.4c0,0,0,0,0,0H325.2z M319.6,20.9c-0.6,0-1.6,0.5-2.5,1.7l0,0
		c-0.6,0.8-2,3.1-1.2,6.4c0.8,3.2,2.4,5.9,3.6,7.7c1.3-1.9,2.9-4.7,3.8-7.8c0.9-3-0.5-5.3-1.1-6.2C321.3,21.5,320.2,20.9,319.6,20.9
		z M298.7,32.9c0.1,1,0.8,3.6,3.7,5.4c2.9,1.7,5.9,2.5,8,2.9c-0.5-2.2-1.3-5.4-2.8-8.2c-1.5-2.8-4.1-3.4-5.2-3.6
		c-1.5-0.2-2.7,0.1-3.1,0.5c-0.3,0.3-0.7,1.2-0.7,2.2C298.6,32.4,298.6,32.7,298.7,32.9z M336.7,29.6c-1,0.1-3.6,0.8-5.4,3.7
		c-1.7,2.9-2.5,5.9-2.9,8c2.2-0.5,5.4-1.3,8.2-2.8c2.8-1.5,3.4-4.1,3.6-5.2c0.2-1.5-0.1-2.7-0.5-3.1
		C339.2,29.8,338.1,29.4,336.7,29.6z"/>
	<path class="st1" d="M452.1,50h-9.4c0,0,0,0,0-0.1c0-2.6,2.1-4.7,4.7-4.7C450,45.2,452.1,47.3,452.1,50C452.1,50,452.1,50,452.1,50
		z"/>
	<path class="st2" d="M453,50L453,50l2-1.8c0.1-0.1,1.4-1.2,3.6-2.6c-2.7,0.7-4.7,0.9-4.9,0.9l-2.7,0.3l0.1-2.7l0,0
		c0-0.4,0.2-3,1.1-6.3c-1.6,2.6-3,4.3-3.1,4.4l-1.7,2.1l-1.8-2c-0.1-0.1-1.8-2-3.5-4.9c1,3.5,1.2,6.2,1.3,6.4l0.3,2.7l-2.7-0.1
		c-0.2,0-2.2-0.1-5-0.7c2.2,1.4,3.6,2.5,3.8,2.6l2.1,1.7l-0.1,0.1h-7.3c-1.9-1.3-4.7-2.9-7.8-3.8h0c-3-0.9-5.3,0.5-6.2,1.1
		c-1.2,0.9-1.8,2-1.8,2.6c0,0,0,0,0,0h-4.7c0,0,0,0,0,0c0-2.2,1.4-4.6,3.7-6.4c2.6-1.9,5.8-2.7,8.9-2.2c-2.5-2-4.2-4.8-4.6-7.9
		c-0.4-2.8,0.4-5.3,1.9-6.9c1.6-1.6,4.3-2.3,7.1-1.9c3.4,0.5,6.4,2.4,8.2,5.3c-0.9-3.7-0.2-7.4,2-10.3c1.7-2.2,4-3.5,6.3-3.5
		c2.2,0,4.6,1.4,6.4,3.7c1.5,2.1,2.4,4.5,2.4,7c0,1-0.1,2-0.4,3c2-2.8,4.9-4.6,8.2-5c2.8-0.4,5.3,0.4,6.9,1.9c1.3,1.3,2,3.3,2,5.5
		c0,0.5,0,1.1-0.1,1.6c-0.5,3.2-2.2,6-4.8,7.9c3.5-0.6,7.1,0.2,9.7,2.4c2,1.6,3.2,3.7,3.3,5.8h-4.8c-0.2-0.6-0.7-1.4-1.6-2.1
		c-0.8-0.7-3.1-2.1-6.4-1.3c-3.2,0.8-6,2.2-7.8,3.4c0,0,0,0,0,0H453z M447.3,20.9c-0.6,0-1.6,0.5-2.5,1.7l0,0
		c-0.6,0.8-2,3.1-1.2,6.4c0.8,3.2,2.4,5.9,3.6,7.7c1.3-1.9,2.9-4.7,3.8-7.8c0.9-3-0.5-5.3-1.1-6.2C449,21.5,447.9,20.9,447.3,20.9z
		 M426.4,32.9c0.1,1,0.8,3.6,3.7,5.4c2.9,1.7,5.9,2.5,8,2.9c-0.5-2.2-1.3-5.4-2.8-8.2c-1.5-2.8-4.1-3.4-5.2-3.6
		c-1.5-0.2-2.7,0.1-3.1,0.5c-0.3,0.3-0.7,1.2-0.7,2.2C426.4,32.4,426.4,32.7,426.4,32.9z M464.4,29.6c-1,0.1-3.6,0.8-5.4,3.7
		c-1.7,2.9-2.5,5.9-2.9,8c2.2-0.5,5.4-1.3,8.2-2.8c2.8-1.5,3.4-4.1,3.6-5.2c0.2-1.5-0.1-2.7-0.5-3.1C467,29.8,465.9,29.4,464.4,29.6
		z"/>
	<path class="st2" d="M608.8,50c-0.2-2-1.4-4.2-3.3-5.8c-2.7-2.2-6.2-3-9.7-2.4c2.6-1.8,4.3-4.6,4.8-7.9c0.1-0.5,0.1-1.1,0.1-1.6
		c0-2.2-0.7-4.2-2-5.5c-1.6-1.6-4.2-2.3-6.9-1.9c-3.3,0.4-6.2,2.2-8.2,5c0.3-1,0.4-2,0.4-3c0-2.5-0.8-4.9-2.4-7
		c-1.7-2.3-4.1-3.7-6.4-3.7c-2.2,0-4.6,1.3-6.3,3.5c-2.2,2.9-2.9,6.6-2,10.3c-1.8-2.9-4.8-4.8-8.2-5.3c-2.9-0.4-5.5,0.3-7.1,1.9
		c-1.6,1.6-2.3,4.2-1.9,6.9c0.4,3.1,2.1,5.9,4.6,7.9c-3.1-0.5-6.3,0.2-8.9,2.2c-2.3,1.7-3.7,4.1-3.7,6.4c0,0,0,0,0,0h4.7
		c0,0,0,0,0,0c0-0.6,0.6-1.7,1.8-2.6c0.9-0.6,3.2-2,6.2-1.1h0c3,0.9,5.9,2.5,7.8,3.8h7.3l0.1-0.1l-2.1-1.7c-0.1-0.1-1.5-1.3-3.8-2.6
		c2.8,0.7,4.8,0.7,5,0.7l2.7,0.1l-0.3-2.7c0-0.2-0.3-2.9-1.3-6.4c1.7,3,3.4,4.8,3.5,4.9l1.8,2l1.7-2.1c0.1-0.1,1.5-1.8,3.1-4.4
		c-0.9,3.3-1.1,5.9-1.1,6.3l0,0l-0.1,2.7l2.7-0.3c0.2,0,2.2-0.2,4.9-0.9c-2.2,1.3-3.5,2.5-3.6,2.6l-2,1.8l0.1,0.1h7.5c0,0,0,0,0,0
		c1.8-1.2,4.6-2.7,7.8-3.4c3.3-0.8,5.6,0.7,6.4,1.3c0.9,0.7,1.4,1.5,1.6,2.1H608.8z M575.1,20.9c-0.6,0-1.6,0.5-2.5,1.7l0,0
		c-0.6,0.8-2,3.1-1.2,6.4c0.8,3.2,2.4,5.9,3.6,7.7c1.3-1.9,2.9-4.7,3.8-7.8c0.9-3-0.5-5.3-1.1-6.2C576.8,21.5,575.7,20.9,575.1,20.9
		z M554.2,32.9c0.1,1,0.8,3.6,3.7,5.4c2.9,1.7,5.9,2.5,8,2.9c-0.5-2.2-1.3-5.4-2.8-8.2c-1.5-2.8-4.1-3.4-5.2-3.6
		c-1.5-0.2-2.7,0.1-3.1,0.5c-0.3,0.3-0.7,1.2-0.7,2.2C554.2,32.4,554.2,32.7,554.2,32.9z M592.2,29.6c-1,0.1-3.6,0.8-5.4,3.7
		c-1.7,2.9-2.5,5.9-2.9,8c2.2-0.5,5.4-1.3,8.2-2.8c2.8-1.5,3.4-4.1,3.6-5.2c0.2-1.5-0.1-2.7-0.5-3.1
		C594.8,29.8,593.7,29.4,592.2,29.6z"/>
	<path class="st1" d="M579.9,50C579.9,50,579.9,50,579.9,50c0-2.7-2.1-4.8-4.7-4.8c-2.6,0-4.7,2.1-4.7,4.7c0,0,0,0,0,0.1H579.9z"/>
	<path class="st2" d="M447.4,8.3c-1.6,0-3,1.3-3,3c0,1.6,1.3,3,3,3c1.6,0,3-1.3,3-3C450.3,9.6,449,8.3,447.4,8.3z M447.4,13
		c-1,0-1.7-0.8-1.7-1.7c0-0.9,0.8-1.7,1.7-1.7c0.9,0,1.7,0.8,1.7,1.7C449.1,12.2,448.3,13,447.4,13z"/>
	<path class="st1" d="M419.9,22c1,0,1.8,0.8,1.8,1.8s-0.8,1.8-1.8,1.8s-1.8-0.8-1.8-1.8S418.9,22,419.9,22z"/>
	<path class="st1" d="M473.8,26c0.6,0.8,1.7,0.9,2.5,0.3c0.8-0.6,0.9-1.7,0.3-2.5c-0.6-0.8-1.7-0.9-2.5-0.3
		C473.3,24.1,473.2,25.2,473.8,26z"/>
	<path class="st2" d="M64,8.3c-1.6,0-3,1.3-3,3c0,1.6,1.3,3,3,3c1.6,0,3-1.3,3-3C67,9.6,65.6,8.3,64,8.3z M64,13
		c-1,0-1.7-0.8-1.7-1.7s0.8-1.7,1.7-1.7c0.9,0,1.7,0.8,1.7,1.7S64.9,13,64,13z"/>
	<path class="st1" d="M36.6,22c1,0,1.8,0.8,1.8,1.8s-0.8,1.8-1.8,1.8c-1,0-1.8-0.8-1.8-1.8S35.6,22,36.6,22z"/>
	<path class="st1" d="M90.4,26c0.6,0.8,1.7,0.9,2.5,0.3c0.8-0.6,0.9-1.7,0.3-2.5c-0.6-0.8-1.7-0.9-2.5-0.3
		C90,24.1,89.8,25.2,90.4,26z"/>
	<path class="st2" d="M191.8,8.3c-1.6,0-3,1.3-3,3c0,1.6,1.3,3,3,3c1.6,0,3-1.3,3-3C194.8,9.6,193.4,8.3,191.8,8.3z M191.8,13
		c-1,0-1.7-0.8-1.7-1.7s0.8-1.7,1.7-1.7c0.9,0,1.7,0.8,1.7,1.7S192.7,13,191.8,13z"/>
	<path class="st1" d="M164.3,22c1,0,1.8,0.8,1.8,1.8s-0.8,1.8-1.8,1.8c-1,0-1.8-0.8-1.8-1.8S163.4,22,164.3,22z"/>
	<path class="st1" d="M218.2,26c0.6,0.8,1.7,0.9,2.5,0.3c0.8-0.6,0.9-1.7,0.3-2.5s-1.7-0.9-2.5-0.3C217.8,24.1,217.6,25.2,218.2,26z
		"/>
	<path class="st2" d="M319.6,8.3c-1.6,0-3,1.3-3,3c0,1.6,1.3,3,3,3c1.6,0,3-1.3,3-3C322.6,9.6,321.2,8.3,319.6,8.3z M319.6,13
		c-1,0-1.7-0.8-1.7-1.7c0-0.9,0.8-1.7,1.7-1.7c0.9,0,1.7,0.8,1.7,1.7C321.3,12.2,320.5,13,319.6,13z"/>
	<path class="st1" d="M292.1,22c1,0,1.8,0.8,1.8,1.8s-0.8,1.8-1.8,1.8s-1.8-0.8-1.8-1.8S291.1,22,292.1,22z"/>
	<path class="st1" d="M346,26c0.6,0.8,1.7,0.9,2.5,0.3c0.8-0.6,0.9-1.7,0.3-2.5s-1.7-0.9-2.5-0.3C345.6,24.1,345.4,25.2,346,26z"/>
	<path class="st2" d="M575.2,8.3c-1.6,0-3,1.3-3,3s1.3,3,3,3c1.6,0,3-1.3,3-3S576.8,8.3,575.2,8.3z M575.2,13c-1,0-1.7-0.8-1.7-1.7
		c0-0.9,0.8-1.7,1.7-1.7c0.9,0,1.7,0.8,1.7,1.7C576.9,12.2,576.1,13,575.2,13z"/>
	<path class="st1" d="M547.7,22c1,0,1.8,0.8,1.8,1.8c0,1-0.8,1.8-1.8,1.8c-1,0-1.8-0.8-1.8-1.8C545.9,22.8,546.7,22,547.7,22z"/>
	<path class="st1" d="M601.6,26c0.6,0.8,1.7,0.9,2.5,0.3s0.9-1.7,0.3-2.5s-1.7-0.9-2.5-0.3S601,25.2,601.6,26z"/>
</g>
</svg>
