<?xml version="1.0" encoding="utf-8"?>
<!-- Generator: Adobe Illustrator 28.0.0, SVG Export Plug-In . SVG Version: 6.00 Build 0)  -->
<svg version="1.1" id="Layer_1" xmlns="http://www.w3.org/2000/svg" xmlns:xlink="http://www.w3.org/1999/xlink" x="0px" y="0px"
	 viewBox="0 0 50.4 638.9" style="enable-background:new 0 0 50.4 638.9;" xml:space="preserve">
<style type="text/css">
	.st0{opacity:0.6;}
	.st1{fill:#FFF8BD;}
	.st2{fill-rule:evenodd;clip-rule:evenodd;fill:#FFF8BD;}
</style>
<g class="st0">
	<path class="st1" d="M15.7,81.7v17.8h15.6c1.6,7.3,7.3,13.1,14.4,15v13.3h4.7v-12.7h0.1v-4.7c-7.6,0-14-6-14.8-13.5l-0.2-2.1H20.4
		v-15l0-2.2l-2.1-0.2c-7.5-0.9-13.2-7.3-13.2-14.8c0-7.6,5.9-14.1,13.5-14.9l2.1-0.2V32.4h14.9l2.2,0l0.2-2.1
		c0.8-6.7,5.9-11.9,12.3-13v-4.8c0,0,0,0-0.1,0V0h-4.7v13.9c-5.9,2.4-10.4,7.5-11.8,13.8H16.1v15.6C7.2,45.2,0.5,53.3,0.5,62.6
		C0.5,71.8,6.9,79.7,15.7,81.7L15.7,81.7z"/>
	<path class="st1" d="M50.5,621.6v4.7h-0.1v12.7h-4.7v-13.3c-7.1-1.9-12.8-7.7-14.4-15H15.7v-17.8h0c-8.8-2-15.2-9.9-15.3-19.1
		c0-9.3,6.7-17.3,15.6-19.2v-15.6h17.8c1.5-6.4,6-11.5,11.8-13.8v-13.9h0v-13.3c-7.1-1.9-12.8-7.7-14.4-15H15.7v-17.8h0
		c-8.8-2-15.2-9.9-15.3-19.1c0-9.3,6.7-17.3,15.6-19.2v-15.6h17.8c1.5-6.4,6-11.5,11.8-13.8v-13.9h0v-13.3
		c-7.1-1.9-12.8-7.7-14.4-15H15.7v-17.8h0c-8.8-2-15.2-9.9-15.3-19.1c0-9.3,6.7-17.3,15.6-19.2v-15.6h17.8c1.5-6.4,6-11.5,11.8-13.8
		v-13.9h0v-13.3c-7.1-1.9-12.8-7.7-14.4-15H15.7v-17.8h0c-8.8-2-15.2-9.9-15.3-19.1c0-9.3,6.7-17.3,15.6-19.2v-15.6h17.8
		c1.5-6.4,6-11.5,11.8-13.8v-13.9h4.7v12.6c0,0,0,0,0.1,0v4.8c-6.4,1.1-11.5,6.3-12.3,13l-0.2,2.1l-2.2,0H20.8v15.1l-2.1,0.2
		c-7.6,0.7-13.5,7.3-13.5,14.9c0,7.6,5.7,13.9,13.2,14.8l2.1,0.2l0,2.2v15h15.1l0.2,2.1c0.7,7.5,7.2,13.5,14.8,13.5v4.7h-0.1v12.7h0
		v12.6c0,0,0,0,0.1,0v4.8c-6.4,1.1-11.5,6.3-12.3,13L38,288l-2.2,0H20.8v15.1l-2.1,0.2c-7.6,0.7-13.5,7.3-13.5,14.9
		c0,7.6,5.7,13.9,13.2,14.8l2.1,0.2l0,2.2v15h15.1l0.2,2.1c0.7,7.5,7.2,13.5,14.8,13.5v4.7h-0.1v12.7h0V396c0,0,0,0,0.1,0v4.8
		c-6.4,1.1-11.5,6.3-12.3,13l-0.2,2.1l-2.2,0H20.8v15.1l-2.1,0.2c-7.6,0.7-13.5,7.3-13.5,14.9c0,7.6,5.7,13.9,13.2,14.8l2.1,0.2
		l0,2.2v15h15.1l0.2,2.1c0.7,7.5,7.2,13.5,14.8,13.5v4.7h-0.1v12.7h0v12.6c0,0,0,0,0.1,0v4.8c-6.4,1.1-11.5,6.3-12.3,13l-0.2,2.1
		l-2.2,0H20.8v15.1l-2.1,0.2c-7.6,0.7-13.5,7.3-13.5,14.9c0,7.6,5.7,13.9,13.2,14.8l2.1,0.2l0,2.2v15h15.1l0.2,2.1
		C36.4,615.6,42.9,621.5,50.5,621.6z"/>
	<path class="st1" d="M50.5,570.2v9.4c0,0,0,0-0.1,0c-2.6,0-4.7-2.1-4.7-4.7C45.7,572.4,47.8,570.2,50.5,570.2
		C50.4,570.2,50.4,570.2,50.5,570.2z"/>
	<path class="st2" d="M50.5,569.3L50.5,569.3l-1.8-2c-0.1-0.1-1.2-1.4-2.6-3.6c0.7,2.7,0.9,4.7,0.9,4.9l0.3,2.7l-2.7-0.1l0,0
		c-0.4,0-3-0.2-6.3-1.1c2.6,1.6,4.3,3,4.4,3.1l2.1,1.7l-2,1.8c-0.1,0.1-2,1.8-4.9,3.5c3.5-1,6.2-1.2,6.4-1.3l2.7-0.3l-0.1,2.7
		c0,0.2-0.1,2.2-0.7,5c1.4-2.2,2.5-3.6,2.6-3.8l1.7-2.1l0.1,0.1v7.3c-1.3,1.9-2.9,4.7-3.8,7.8v0c-0.9,3,0.5,5.3,1.1,6.2
		c0.9,1.2,2,1.8,2.6,1.8c0,0,0,0,0,0v4.7c0,0,0,0,0,0c-2.2,0-4.6-1.4-6.4-3.7c-1.9-2.6-2.7-5.8-2.2-8.9c-2,2.5-4.8,4.2-7.9,4.6
		c-2.8,0.4-5.3-0.4-6.9-1.9c-1.6-1.6-2.3-4.3-1.9-7.1c0.5-3.4,2.4-6.4,5.3-8.2c-3.7,0.9-7.4,0.2-10.3-2c-2.2-1.7-3.5-4-3.5-6.3
		s1.4-4.6,3.7-6.4c2.1-1.5,4.5-2.4,7-2.4c1,0,2,0.1,3,0.4c-2.8-2-4.6-4.9-5-8.2c-0.4-2.8,0.4-5.3,1.9-6.9c1.3-1.3,3.3-2,5.5-2
		c0.5,0,1.1,0,1.6,0.1c3.2,0.5,6,2.2,7.9,4.8c-0.6-3.5,0.2-7.1,2.4-9.7c1.6-2,3.7-3.2,5.8-3.3v4.8c-0.6,0.2-1.4,0.7-2.1,1.6
		c-0.7,0.8-2.1,3.1-1.3,6.4c0.8,3.2,2.2,6,3.4,7.8c0,0,0,0,0,0V569.3z M21.4,575c0,0.6,0.5,1.6,1.7,2.5l0,0c0.8,0.6,3.1,2,6.4,1.2
		c3.2-0.8,5.9-2.4,7.7-3.6c-1.9-1.3-4.7-2.9-7.8-3.8c-3-0.9-5.3,0.5-6.2,1.1C22,573.3,21.4,574.4,21.4,575z M33.4,595.9
		c1-0.1,3.6-0.8,5.4-3.7c1.7-2.9,2.5-5.9,2.9-8c-2.2,0.5-5.4,1.3-8.2,2.8c-2.8,1.5-3.4,4.1-3.6,5.2c-0.2,1.5,0.1,2.7,0.5,3.1
		c0.3,0.3,1.2,0.7,2.2,0.7C32.9,595.9,33.1,595.9,33.4,595.9z M30,557.9c0.1,1,0.8,3.6,3.7,5.4c2.9,1.7,5.9,2.5,8,2.9
		c-0.5-2.2-1.3-5.4-2.8-8.2c-1.5-2.8-4.1-3.4-5.2-3.6c-1.5-0.2-2.7,0.1-3.1,0.5C30.2,555.3,29.9,556.4,30,557.9z"/>
	<path class="st1" d="M50.5,442.4v9.4c0,0,0,0-0.1,0c-2.6,0-4.7-2.1-4.7-4.7C45.7,444.6,47.8,442.4,50.5,442.4
		C50.4,442.4,50.4,442.4,50.5,442.4z"/>
	<path class="st2" d="M50.5,441.5L50.5,441.5l-1.8-2c-0.1-0.1-1.2-1.4-2.6-3.6c0.7,2.7,0.9,4.7,0.9,4.9l0.3,2.7l-2.7-0.1l0,0
		c-0.4,0-3-0.2-6.3-1.1c2.6,1.6,4.3,3,4.4,3.1l2.1,1.7l-2,1.8c-0.1,0.1-2,1.8-4.9,3.5c3.5-1,6.2-1.2,6.4-1.3l2.7-0.3l-0.1,2.7
		c0,0.2-0.1,2.2-0.7,5c1.4-2.2,2.5-3.6,2.6-3.8l1.7-2.1l0.1,0.1v7.3c-1.3,1.9-2.9,4.7-3.8,7.8v0c-0.9,3,0.5,5.3,1.1,6.2
		c0.9,1.2,2,1.8,2.6,1.8c0,0,0,0,0,0v4.7c0,0,0,0,0,0c-2.2,0-4.6-1.4-6.4-3.7c-1.9-2.6-2.7-5.8-2.2-8.9c-2,2.5-4.8,4.2-7.9,4.6
		c-2.8,0.4-5.3-0.4-6.9-1.9c-1.6-1.6-2.3-4.3-1.9-7.1c0.5-3.4,2.4-6.4,5.3-8.2c-3.7,0.9-7.4,0.2-10.3-2c-2.2-1.7-3.5-4-3.5-6.3
		s1.4-4.6,3.7-6.4c2.1-1.6,4.5-2.4,7-2.4c1,0,2,0.1,3,0.4c-2.8-2-4.6-4.9-5-8.2c-0.4-2.8,0.4-5.3,1.9-6.9c1.3-1.3,3.3-2,5.5-2
		c0.5,0,1.1,0,1.6,0.1c3.2,0.5,6,2.2,7.9,4.8c-0.6-3.5,0.2-7.1,2.4-9.7c1.6-2,3.7-3.2,5.8-3.3v4.8c-0.6,0.2-1.4,0.7-2.1,1.6
		c-0.7,0.8-2.1,3.1-1.3,6.4c0.8,3.2,2.2,6,3.4,7.8c0,0,0,0,0,0V441.5z M21.4,447.2c0,0.6,0.5,1.6,1.7,2.5l0,0c0.8,0.6,3.1,2,6.4,1.2
		c3.2-0.8,5.9-2.4,7.7-3.6c-1.9-1.3-4.7-2.9-7.8-3.8c-3-0.9-5.3,0.5-6.2,1.1C22,445.5,21.4,446.6,21.4,447.2z M33.4,468.1
		c1-0.1,3.6-0.8,5.4-3.7c1.7-2.9,2.5-5.9,2.9-8c-2.2,0.5-5.4,1.3-8.2,2.8c-2.8,1.5-3.4,4.1-3.6,5.2c-0.2,1.5,0.1,2.7,0.5,3.1
		c0.3,0.3,1.2,0.7,2.2,0.7C32.9,468.1,33.1,468.1,33.4,468.1z M30,430.1c0.1,1,0.8,3.6,3.7,5.4c2.9,1.7,5.9,2.5,8,2.9
		c-0.5-2.2-1.3-5.4-2.8-8.2c-1.5-2.8-4.1-3.4-5.2-3.6c-1.5-0.2-2.7,0.1-3.1,0.5C30.2,427.5,29.9,428.6,30,430.1z"/>
	<path class="st1" d="M50.5,314.7v9.4c0,0,0,0-0.1,0c-2.6,0-4.7-2.1-4.7-4.7C45.7,316.8,47.8,314.7,50.5,314.7
		C50.4,314.7,50.4,314.7,50.5,314.7z"/>
	<path class="st2" d="M50.5,313.7L50.5,313.7l-1.8-2c-0.1-0.1-1.2-1.4-2.6-3.6c0.7,2.7,0.9,4.7,0.9,4.9l0.3,2.7l-2.7-0.1l0,0
		c-0.4,0-3-0.2-6.3-1.1c2.6,1.6,4.3,3,4.4,3.1l2.1,1.7l-2,1.8c-0.1,0.1-2,1.8-4.9,3.5c3.5-1,6.2-1.2,6.4-1.3l2.7-0.3l-0.1,2.7
		c0,0.2-0.1,2.2-0.7,5c1.4-2.2,2.5-3.6,2.6-3.8l1.7-2.1l0.1,0.1v7.3c-1.3,1.9-2.9,4.7-3.8,7.8v0c-0.9,3,0.5,5.3,1.1,6.2
		c0.9,1.2,2,1.8,2.6,1.8c0,0,0,0,0,0v4.7c0,0,0,0,0,0c-2.2,0-4.6-1.4-6.4-3.7c-1.9-2.6-2.7-5.8-2.2-8.9c-2,2.5-4.8,4.2-7.9,4.6
		c-2.8,0.4-5.3-0.4-6.9-1.9c-1.6-1.6-2.3-4.3-1.9-7.1c0.5-3.4,2.4-6.4,5.3-8.2c-3.7,0.9-7.4,0.2-10.3-2c-2.2-1.7-3.5-4-3.5-6.3
		s1.4-4.6,3.7-6.4c2.1-1.6,4.5-2.4,7-2.4c1,0,2,0.1,3,0.4c-2.8-2-4.6-4.9-5-8.2c-0.4-2.8,0.4-5.3,1.9-6.9c1.3-1.3,3.3-2,5.5-2
		c0.5,0,1.1,0,1.6,0.1c3.2,0.5,6,2.2,7.9,4.8c-0.6-3.5,0.2-7.1,2.4-9.7c1.6-2,3.7-3.2,5.8-3.3v4.8c-0.6,0.2-1.4,0.7-2.1,1.6
		c-0.7,0.8-2.1,3.1-1.3,6.4c0.8,3.2,2.2,6,3.4,7.8c0,0,0,0,0,0V313.7z M21.4,319.4c0,0.6,0.5,1.6,1.7,2.5l0,0c0.8,0.6,3.1,2,6.4,1.2
		c3.2-0.8,5.9-2.4,7.7-3.6c-1.9-1.3-4.7-2.9-7.8-3.8c-3-0.9-5.3,0.5-6.2,1.1C22,317.7,21.4,318.8,21.4,319.4z M33.4,340.3
		c1-0.1,3.6-0.8,5.4-3.7c1.7-2.9,2.5-5.9,2.9-8c-2.2,0.5-5.4,1.3-8.2,2.8c-2.8,1.5-3.4,4.1-3.6,5.2c-0.2,1.5,0.1,2.7,0.5,3.1
		c0.3,0.3,1.2,0.7,2.2,0.7C32.9,340.3,33.1,340.3,33.4,340.3z M30,302.3c0.1,1,0.8,3.6,3.7,5.4c2.9,1.7,5.9,2.5,8,2.9
		c-0.5-2.2-1.3-5.4-2.8-8.2c-1.5-2.8-4.1-3.4-5.2-3.6c-1.5-0.2-2.7,0.1-3.1,0.5C30.2,299.7,29.9,300.8,30,302.3z"/>
	<path class="st1" d="M50.5,186.9v9.4c0,0,0,0-0.1,0c-2.6,0-4.7-2.1-4.7-4.7C45.7,189,47.8,186.9,50.5,186.9
		C50.4,186.9,50.4,186.9,50.5,186.9z"/>
	<path class="st2" d="M50.5,186L50.5,186l-1.8-2c-0.1-0.1-1.2-1.4-2.6-3.6c0.7,2.7,0.9,4.7,0.9,4.9l0.3,2.7l-2.7-0.1l0,0
		c-0.4,0-3-0.2-6.3-1.1c2.6,1.6,4.3,3,4.4,3.1l2.1,1.7l-2,1.8c-0.1,0.1-2,1.8-4.9,3.5c3.5-1,6.2-1.2,6.4-1.3l2.7-0.3l-0.1,2.7
		c0,0.2-0.1,2.2-0.7,5c1.4-2.2,2.5-3.6,2.6-3.8l1.7-2.1l0.1,0.1v7.3c-1.3,1.9-2.9,4.7-3.8,7.8v0c-0.9,3,0.5,5.3,1.1,6.2
		c0.9,1.2,2,1.8,2.6,1.8c0,0,0,0,0,0v4.7c0,0,0,0,0,0c-2.2,0-4.6-1.4-6.4-3.7c-1.9-2.6-2.7-5.8-2.2-8.9c-2,2.5-4.8,4.2-7.9,4.6
		c-2.8,0.4-5.3-0.4-6.9-1.9c-1.6-1.6-2.3-4.3-1.9-7.1c0.5-3.4,2.4-6.4,5.3-8.2c-3.7,0.9-7.4,0.2-10.3-2c-2.2-1.7-3.5-4-3.5-6.3
		s1.4-4.6,3.7-6.4c2.1-1.6,4.5-2.4,7-2.4c1,0,2,0.1,3,0.4c-2.8-2-4.6-4.9-5-8.2c-0.4-2.8,0.4-5.4,1.9-6.9c1.3-1.3,3.3-2,5.5-2
		c0.5,0,1.1,0,1.6,0.1c3.2,0.5,6,2.2,7.9,4.8c-0.6-3.5,0.2-7.1,2.4-9.7c1.6-2,3.7-3.2,5.8-3.3v4.8c-0.6,0.2-1.4,0.7-2.1,1.6
		c-0.7,0.8-2.1,3.1-1.3,6.4c0.8,3.2,2.2,6,3.4,7.8c0,0,0,0,0,0V186z M21.4,191.6c0,0.6,0.5,1.6,1.7,2.5l0,0c0.8,0.6,3.1,2,6.4,1.2
		c3.2-0.8,5.9-2.4,7.7-3.6c-1.9-1.3-4.7-2.9-7.8-3.8c-3-0.9-5.3,0.5-6.2,1.1C22,189.9,21.4,191,21.4,191.6z M33.4,212.5
		c1-0.1,3.6-0.8,5.4-3.7c1.7-2.9,2.5-5.9,2.9-8c-2.2,0.5-5.4,1.3-8.2,2.8c-2.8,1.5-3.4,4.1-3.6,5.2c-0.2,1.5,0.1,2.7,0.5,3.1
		c0.3,0.3,1.2,0.7,2.2,0.7C32.9,212.6,33.1,212.5,33.4,212.5z M30,174.5c0.1,1,0.8,3.6,3.7,5.4c2.9,1.7,5.9,2.5,8,2.9
		c-0.5-2.2-1.3-5.4-2.8-8.2c-1.5-2.8-4.1-3.4-5.2-3.6c-1.5-0.2-2.7,0.1-3.1,0.5C30.2,171.9,29.9,173,30,174.5z"/>
	<path class="st2" d="M50.5,30.2c-2,0.2-4.2,1.4-5.8,3.3c-2.2,2.7-3,6.2-2.4,9.7c-1.8-2.6-4.6-4.3-7.9-4.8c-0.5-0.1-1.1-0.1-1.6-0.1
		c-2.2,0-4.2,0.7-5.5,2c-1.6,1.6-2.3,4.2-1.9,6.9c0.4,3.3,2.2,6.2,5,8.2c-1-0.3-2-0.4-3-0.4c-2.5,0-4.9,0.8-7,2.4
		c-2.3,1.7-3.7,4.1-3.7,6.4c0,2.2,1.3,4.6,3.5,6.3c2.9,2.2,6.6,2.9,10.3,2c-2.9,1.8-4.8,4.8-5.3,8.2c-0.4,2.9,0.3,5.5,1.9,7.1
		c1.6,1.6,4.2,2.3,6.9,1.9c3.1-0.4,5.9-2.1,7.9-4.6c-0.5,3.1,0.2,6.3,2.2,8.9c1.7,2.3,4.1,3.7,6.4,3.7c0,0,0,0,0,0v-4.7c0,0,0,0,0,0
		c-0.6,0-1.7-0.6-2.6-1.8c-0.6-0.9-2-3.2-1.1-6.2v0c0.9-3,2.5-5.9,3.8-7.8v-7.3l-0.1-0.1l-1.7,2.1c-0.1,0.1-1.3,1.5-2.6,3.8
		c0.7-2.8,0.7-4.8,0.7-5l0.1-2.7l-2.7,0.3c-0.2,0-2.9,0.3-6.4,1.3c3-1.7,4.8-3.4,4.9-3.5l2-1.8L42.6,62c-0.1-0.1-1.8-1.5-4.4-3.1
		c3.3,0.9,5.9,1.1,6.3,1.1l0,0l2.7,0.1L47,57.5c0-0.2-0.2-2.2-0.9-4.9c1.3,2.2,2.5,3.5,2.6,3.6l1.8,2l0.1-0.1v-7.5c0,0,0,0,0,0
		c-1.2-1.8-2.7-4.6-3.4-7.8c-0.8-3.3,0.7-5.6,1.3-6.4c0.7-0.9,1.5-1.4,2.1-1.6V30.2z M21.4,63.8c0,0.6,0.5,1.6,1.7,2.5l0,0
		c0.8,0.6,3.1,2,6.4,1.2c3.2-0.8,5.9-2.4,7.7-3.6c-1.9-1.3-4.7-2.9-7.8-3.8c-3-0.9-5.3,0.5-6.2,1.1C22,62.1,21.4,63.2,21.4,63.8z
		 M33.4,84.7c1-0.1,3.6-0.8,5.4-3.7c1.7-2.9,2.5-5.9,2.9-8c-2.2,0.5-5.4,1.3-8.2,2.8c-2.8,1.5-3.4,4.1-3.6,5.2
		c-0.2,1.5,0.1,2.7,0.5,3.1c0.3,0.3,1.2,0.7,2.2,0.7C32.9,84.8,33.1,84.8,33.4,84.7z M30,46.7c0.1,1,0.8,3.6,3.7,5.4
		c2.9,1.7,5.9,2.5,8,2.9c-0.5-2.2-1.3-5.4-2.8-8.2c-1.5-2.8-4.1-3.4-5.2-3.6c-1.5-0.2-2.7,0.1-3.1,0.5C30.2,44.1,29.9,45.3,30,46.7z
		"/>
	<path class="st1" d="M50.5,59.1C50.4,59.1,50.4,59.1,50.5,59.1c-2.7,0-4.8,2.1-4.8,4.7c0,2.6,2.1,4.7,4.7,4.7c0,0,0,0,0.1,0V59.1z"
		/>
	<path class="st2" d="M8.7,191.6c0,1.6,1.3,3,3,3c1.6,0,3-1.3,3-3c0-1.6-1.3-3-3-3C10.1,188.6,8.7,189.9,8.7,191.6z M13.4,191.6
		c0,1-0.8,1.7-1.7,1.7c-0.9,0-1.7-0.8-1.7-1.7c0-0.9,0.8-1.7,1.7-1.7C12.7,189.9,13.4,190.6,13.4,191.6z"/>
	<path class="st1" d="M22.5,219c0-1,0.8-1.8,1.8-1.8s1.8,0.8,1.8,1.8c0,1-0.8,1.8-1.8,1.8S22.5,220,22.5,219z"/>
	<path class="st1" d="M26.5,165.2c0.8-0.6,0.9-1.7,0.3-2.5s-1.7-0.9-2.5-0.3s-0.9,1.7-0.3,2.5S25.7,165.8,26.5,165.2z"/>
	<path class="st2" d="M8.7,574.9c0,1.6,1.3,3,3,3c1.6,0,3-1.3,3-3c0-1.6-1.3-3-3-3C10.1,572,8.7,573.3,8.7,574.9z M13.4,574.9
		c0,1-0.8,1.7-1.7,1.7c-0.9,0-1.7-0.8-1.7-1.7c0-0.9,0.8-1.7,1.7-1.7C12.7,573.2,13.4,574,13.4,574.9z"/>
	<path class="st1" d="M22.5,602.4c0-1,0.8-1.8,1.8-1.8s1.8,0.8,1.8,1.8c0,1-0.8,1.8-1.8,1.8S22.5,603.4,22.5,602.4z"/>
	<path class="st1" d="M26.5,548.5c0.8-0.6,0.9-1.7,0.3-2.5s-1.7-0.9-2.5-0.3s-0.9,1.7-0.3,2.5S25.7,549.1,26.5,548.5z"/>
	<path class="st2" d="M8.7,447.2c0,1.6,1.3,3,3,3c1.6,0,3-1.3,3-3c0-1.6-1.3-3-3-3C10.1,444.2,8.7,445.5,8.7,447.2z M13.4,447.2
		c0,1-0.8,1.7-1.7,1.7c-0.9,0-1.7-0.8-1.7-1.7c0-0.9,0.8-1.7,1.7-1.7C12.7,445.4,13.4,446.2,13.4,447.2z"/>
	<path class="st1" d="M22.5,474.6c0-1,0.8-1.8,1.8-1.8s1.8,0.8,1.8,1.8c0,1-0.8,1.8-1.8,1.8S22.5,475.6,22.5,474.6z"/>
	<path class="st1" d="M26.5,420.7c0.8-0.6,0.9-1.7,0.3-2.5c-0.6-0.8-1.7-0.9-2.5-0.3s-0.9,1.7-0.3,2.5S25.7,421.3,26.5,420.7z"/>
	<path class="st2" d="M8.7,319.4c0,1.6,1.3,3,3,3c1.6,0,3-1.3,3-3c0-1.6-1.3-3-3-3C10.1,316.4,8.7,317.7,8.7,319.4z M13.4,319.4
		c0,1-0.8,1.7-1.7,1.7c-0.9,0-1.7-0.8-1.7-1.7c0-0.9,0.8-1.7,1.7-1.7C12.7,317.6,13.4,318.4,13.4,319.4z"/>
	<path class="st1" d="M22.5,346.8c0-1,0.8-1.8,1.8-1.8s1.8,0.8,1.8,1.8c0,1-0.8,1.8-1.8,1.8S22.5,347.8,22.5,346.8z"/>
	<path class="st1" d="M26.5,292.9c0.8-0.6,0.9-1.7,0.3-2.5c-0.6-0.8-1.7-0.9-2.5-0.3c-0.8,0.6-0.9,1.7-0.3,2.5
		S25.7,293.5,26.5,292.9z"/>
	<path class="st2" d="M8.7,63.8c0,1.6,1.3,3,3,3s3-1.3,3-3c0-1.6-1.3-3-3-3S8.7,62.1,8.7,63.8z M13.4,63.8c0,1-0.8,1.7-1.7,1.7
		S10,64.7,10,63.8c0-0.9,0.8-1.7,1.7-1.7S13.4,62.8,13.4,63.8z"/>
	<path class="st1" d="M22.5,91.2c0-1,0.8-1.8,1.8-1.8c1,0,1.8,0.8,1.8,1.8c0,1-0.8,1.8-1.8,1.8C23.3,93,22.5,92.2,22.5,91.2z"/>
	<path class="st1" d="M26.5,37.4c0.8-0.6,0.9-1.7,0.3-2.5c-0.6-0.8-1.7-0.9-2.5-0.3S23.4,36.2,24,37C24.6,37.8,25.7,38,26.5,37.4z"
		/>
</g>
</svg>
